SplineFontDB: 3.0
FontName: StickNoBills
FullName: Stick No Bills
FamilyName: Stick No Bills
Weight: Regular
Copyright: Copyright (c) 2013 STICK NO BILLS, Copyright (c) 2015 mooniak\n
UComments: "2015-2-15: Created with FontForge (http://fontforge.org) The  Free Font Editor"
Version: 1.0
ItalicAngle: 0
UnderlinePosition: -102
UnderlineWidth: 51
Ascent: 819
Descent: 205
InvalidEm: 0
UFOAscent: 819
UFODescent: -205
LayerCount: 3
Layer: 0 0 "Back" 1
Layer: 1 0 "Fore" 0
Layer: 2 0 "Back 2" 1
PreferredKerning: 4
StyleMap: 0x0040
FSType: 0
OS2Version: 0
OS2_WeightWidthSlopeOnly: 0
OS2_UseTypoMetrics: 0
CreationTime: 1429518268
ModificationTime: 1433161608
PfmFamily: 16
TTFWeight: 400
TTFWidth: 5
LineGap: 94
VLineGap: 0
OS2TypoAscent: 819
OS2TypoAOffset: 0
OS2TypoDescent: -205
OS2TypoDOffset: 0
OS2TypoLinegap: 94
OS2WinAscent: 918
OS2WinAOffset: 0
OS2WinDescent: 205
OS2WinDOffset: 0
HheadAscent: 918
HheadAOffset: 0
HheadDescent: -205
HheadDOffset: 0
OS2Vendor: 'PfEd'
OS2UnicodeRanges: 00000002.00000000.00000000.00000000
Lookup: 4 0 0 "'abvs' Above Base Substitutions in Sinhala lookup 2" { "'abvs' Above Base Substitutions in Sinhala lookup 2-1"  } ['abvs' ('sinh' <'dflt' > ) ]
Lookup: 1 0 0 "'ordn' Ordinals lookup 1" { "'ordn' Ordinals lookup 1-1"  } ['ordn' ('DFLT' <'dflt' > 'hani' <'dflt' > 'latn' <'dflt' > 'sinh' <'dflt' > ) ]
Lookup: 4 0 1 "'liga' Standard Ligatures lookup 1" { "'liga' Standard Ligatures lookup 1-1"  } ['liga' ('DFLT' <'dflt' > 'hani' <'dflt' > 'latn' <'dflt' > ) ]
Lookup: 258 0 0 "'kern' Horizontal Kerning lookup 0" { "'kern' Horizontal Kerning lookup 0-1" [153,15,0] } ['kern' ('DFLT' <'dflt' > 'hani' <'dflt' > 'latn' <'dflt' > ) ]
MarkAttachClasses: 1
DEI: 91125
KernClass2: 7 7 "'kern' Horizontal Kerning lookup 0-1"
 1 A
 7 T Y P F
 9 f r v w y
 1 L
 3 W V
 0 
 7 W V T Y
 12 period comma
 17 a e s o q d c g u
 1 A
 5 w v t
 15 semicolon colon

StartChar: A
Encoding: 0 65 0
GlifName: A_
Width: 516
VWidth: 0
GlyphClass: 2
Flags: W
HStem: 0 21<26 164 26 26 353 353 353 490> 0 21<26 164 26 26 353 353 353 490> 679 20<200 339 339 339> 679 20<200 339 339 339>
VStem: 155 15<582 582>
LayerCount: 3
Back
Fore
SplineSet
155 582 m 257x88
 170 582 l 257
 230 302 l 257
 164 0 l 257
 26 0 l 257
 155 582 l 257x88
200 699 m 257xa8
 339 699 l 257
 490 0 l 257
 353 0 l 257
 333 85 l 261
 239 85 l 257
 269 223 l 261
 305 223 l 261
 200 699 l 257xa8
EndSplineSet
Validated: 1
Layer: 2
EndChar

StartChar: AE
Encoding: 1 198 1
GlifName: A_E_
Width: 727
VWidth: 0
GlyphClass: 2
Flags: W
HStem: 0 141<478 701 478 701> 277 141<478 607 478 607> 560 140<320 337 320 320 478 478 478 483 483 701>
VStem: 337 141<141 148 148 148 268 277 418 560>
LayerCount: 3
Back
Fore
SplineSet
701 141 m 257
 701 0 l 257
 337 0 l 257
 337 148 l 257
 272 148 l 257
 301 268 l 257
 337 268 l 257
 337 560 l 257
 320 560 l 257
 182 0 l 257
 26 0 l 257
 206 700 l 257
 701 700 l 257
 701 560 l 257
 483 560 l 257
 478 560 l 257
 478 418 l 257
 607 418 l 257
 607 277 l 257
 478 277 l 257
 478 141 l 257
 701 141 l 257
EndSplineSet
Validated: 1
Layer: 2
EndChar

StartChar: Aring
Encoding: 6 197 6
GlifName: A_ring
Width: 516
VWidth: 0
GlyphClass: 2
Flags: W
HStem: 0 21<26 164 26 26 353 490 353 353> 669 64 679 20<339 339 339 339> 797 64<260 278>
VStem: 155 15<582 582> 173 64<756 774 756 791.5> 301 64<756 774>
LayerCount: 3
Back
Fore
SplineSet
173 765 m 256xbe
 173 818 216 861 269 861 c 256
 322 861 365 818 365 765 c 256
 365 739 355 716 339 699 c 257
 339 699 l 257
 490 0 l 257
 353 0 l 257
 333 85 l 257
 239 85 l 257
 269 223 l 257
 305 223 l 257
 200 698 l 257
 183 715 173 739 173 765 c 256xbe
237 765 m 256
 237 747 251 733 269 733 c 256xde
 287 733 301 747 301 765 c 256
 301 783 287 797 269 797 c 256
 251 797 237 783 237 765 c 256
155 582 m 257
 170 582 l 257
 230 302 l 257
 164 0 l 257
 26 0 l 257
 155 582 l 257
EndSplineSet
Validated: 5
Layer: 2
EndChar

StartChar: B
Encoding: 8 66 8
GlifName: B_
Width: 484
VWidth: 0
GlyphClass: 2
Flags: W
HStem: 0 122<26 264.5 221 264.5> 289 122<221 251 221 266> 577 123<26 221>
VStem: 26 141<0 700 0 700> 324 134<197 201 197 216>
LayerCount: 3
Back
Fore
SplineSet
221 122 m 261
 308 122 324 179 324 205 c 260
 324 227 311 289 221 289 c 261
 221 411 l 261
 281 411 322 446 322 497 c 260
 322 547 280 576 221 577 c 261
 221 700 l 261
 229 701 237 701 245 701 c 260
 397 701 454 574 454 514 c 262
 454 513 l 262
 453 421 420 378 385 352 c 261
 423 322 458 285 458 201 c 260
 458 199 458 198 458 197 c 260
 457 86 366 -2 249 -2 c 260
 240 -2 230 -1 221 0 c 261
 221 122 l 261
26 700 m 257
 167 700 l 257
 167 0 l 257
 26 0 l 257
 26 700 l 257
EndSplineSet
Validated: 1
Layer: 2
EndChar

StartChar: C
Encoding: 9 67 9
GlifName: C_
Width: 494
VWidth: 0
GlyphClass: 2
Flags: W
HStem: 685 20<157.5 229 283 329>
VStem: 32 141<181 518> 330 138<129 215 129 215>
LayerCount: 3
Back
Fore
SplineSet
283 564 m 261
 283 705 l 261
 375 705 468 612 468 516 c 261
 330 480 l 261
 330 495 l 262
 330 509 330 520 325 532 c 260
 315 555 283 564 283 564 c 261
283 136 m 261
 283 136 315 143 325 166 c 260
 330 178 330 189 330 203 c 262
 330 215 l 261
 468 182 l 261
 468 76 375 -5 283 -5 c 261
 283 136 l 261
229 705 m 261
 229 564 l 261
 183 563 173 523 173 518 c 261
 173 181 l 261
 173 176 183 136 229 136 c 261
 229 -5 l 261
 86 -5 32 121 32 181 c 261
 32 518 l 261
 32 578 86 705 229 705 c 261
EndSplineSet
Validated: 1
Layer: 2
EndChar

StartChar: D
Encoding: 11 68 11
GlifName: D_
Width: 452
VWidth: 0
GlyphClass: 2
Flags: W
HStem: 0 21<32 32 32 173 227 257> 0 21<32 32 32 173 227 257> 680 20<32 173 173 173 227 298.5>
VStem: 32 141<0 700 0 700> 283 141<197 503>
LayerCount: 3
Back
Fore
SplineSet
227 0 m 257xb8
 227 141 l 257
 233 141 282 149 283 197 c 258
 283 503 l 257
 283 508 275 558 227 559 c 257
 227 700 l 257
 370 700 424 566 424 503 c 257
 424 197 l 257
 424 50 287 0 227 0 c 257xb8
32 0 m 257
 32 700 l 257
 173 700 l 257
 173 0 l 257
 32 0 l 257
EndSplineSet
Validated: 1
Layer: 2
EndChar

StartChar: E
Encoding: 12 69 12
GlifName: E_
Width: 422
VWidth: 0
GlyphClass: 2
Flags: W
HStem: 0 141<173 396 173 396> 277 141<173 302 173 302> 560 140<173 396 173 173>
VStem: 32 364<0 141 560 700> 32 141<141 277 418 560>
LayerCount: 3
Back
Fore
SplineSet
396 141 m 257xf0
 396 0 l 257
 32 0 l 257
 32 700 l 257
 396 700 l 257
 396 560 l 257xf0
 173 560 l 257
 173 418 l 257
 302 418 l 257
 302 277 l 257
 173 277 l 257
 173 141 l 257xe8
 396 141 l 257xf0
EndSplineSet
Validated: 1
Layer: 2
EndChar

StartChar: EURO
Encoding: 13 8364 13
GlifName: E_U_R_O_
Width: 567
VWidth: 0
GlyphClass: 2
Flags: W
HStem: 258 59<50 99 50 99 236 408> 376 60<236 408> 558 140<278 278 278 338>
VStem: 99 137<182 202 202 258 178.5 258 317 376 436 488> 381 136<182 186 171 199 514 518>
LayerCount: 3
Back
Fore
SplineSet
278 698 m 257
 278 558 l 257
 239 543 236 532 236 488 c 258
 236 436 l 257
 408 436 l 257
 408 376 l 257
 236 376 l 257
 236 317 l 257
 408 317 l 257
 408 258 l 257
 236 258 l 257
 236 202 l 258
 236 155 254 154 278 141 c 257
 278 2 l 257
 197 8 168 45 134 90 c 256
 113 118 101 149 99 182 c 258
 99 258 l 257
 50 258 l 257
 50 317 l 257
 99 317 l 257
 99 377 l 257
 50 377 l 257
 50 436 l 257
 99 436 l 257
 99 496 l 258
 99 540 106 576 134 613 c 256
 172 666 217 696 278 698 c 257
338 698 m 257
 387 697 426 675 464 636 c 256
 501 598 517 544 517 514 c 257
 380 463 l 257
 381 501 l 258
 381 535 366 549 338 558 c 257
 338 698 l 257
338 2 m 257
 338 142 l 257
 366 151 381 165 381 199 c 258
 380 237 l 257
 517 186 l 257
 517 156 501 102 464 64 c 256
 426 25 387 3 338 2 c 257
EndSplineSet
Validated: 1
Layer: 2
EndChar

StartChar: Eth
Encoding: 18 208 18
GlifName: E_th
Width: 501
VWidth: 0
GlyphClass: 2
Flags: W
HStem: 0 21<83 224 83 83 278 308> 292 128<26 83 26 83 224 280> 680 20<83 224 224 224 278 349.5>
VStem: 83 141<0 292 0 292 420 700> 334 141<197 503>
LayerCount: 3
Back
Fore
SplineSet
278 0 m 257
 278 141 l 257
 284 141 333 149 334 197 c 258
 334 503 l 258
 334 508 326 558 278 559 c 257
 278 700 l 257
 421 700 475 566 475 503 c 258
 475 197 l 258
 475 50 338 0 278 0 c 257
224 420 m 257
 280 420 l 257
 280 292 l 257
 224 292 l 257
 224 0 l 257
 83 0 l 257
 83 292 l 257
 26 292 l 257
 26 420 l 257
 83 420 l 257
 83 700 l 257
 224 700 l 257
 224 420 l 257
EndSplineSet
Validated: 1
Layer: 2
EndChar

StartChar: F
Encoding: 19 70 19
GlifName: F_
Width: 422
VWidth: 0
GlyphClass: 2
Flags: W
HStem: 1 21<32 173 32 32> 1 21<32 173 32 32> 277 141<173 302 173 302> 560 140<173 396 173 173>
VStem: 32 141<1 277 418 560>
LayerCount: 3
Back
Fore
SplineSet
302 418 m 257xb8
 302 277 l 257
 173 277 l 257
 173 1 l 257
 32 1 l 257
 32 700 l 257
 396 700 l 257
 396 560 l 257
 173 560 l 257
 173 418 l 257
 302 418 l 257xb8
EndSplineSet
Validated: 1
Layer: 2
EndChar

StartChar: G
Encoding: 20 71 20
GlifName: G_
Width: 493
VWidth: 0
GlyphClass: 2
Flags: W
HStem: -5 141<219.5 222 219.5 222 219.5 276> 685 20<156 222 276 322.5>
VStem: 26 141<192 508 192 524 192 524> 276 185<135.5 136 136 136 223 353 135.5 353> 319 142<190 223 223 223>
LayerCount: 3
Back
Fore
SplineSet
276 564 m 257xf0
 276 705 l 257xf0
 369 705 461 612 461 516 c 257xe8
 323 465 l 257
 323 495 l 258
 323 509 323 520 318 532 c 256
 308 555 276 564 276 564 c 257xf0
461 353 m 257
 461 176 l 258
 461 95 358 -4 276 -5 c 257
 276 136 l 257xf0
 282 136 319 155 319 190 c 258
 319 223 l 257xe8
 276 223 l 257
 276 353 l 257
 461 353 l 257
222 -5 m 257
 162 -5 26 48 26 192 c 257
 26 524 l 257
 34 589 90 705 222 705 c 257
 222 564 l 257
 176 563 167 513 167 508 c 257
 167 192 l 258
 168 146 217 136 222 136 c 257
 222 -5 l 257
EndSplineSet
Validated: 1
Layer: 2
EndChar

StartChar: H
Encoding: 21 72 21
GlifName: H_
Width: 458
VWidth: 0
GlyphClass: 2
Flags: W
HStem: 0 21<32 173 32 32 285 285 285 426> 0 21<32 173 32 32 285 285 285 426> 680 20<32 173 173 173 285 426 426 426>
VStem: 32 170<283 421 283 700> 32 141<0 283 0 421 421 700> 256 170<283 421 421 421> 285 141<0 283 283 283 421 700 0 700>
LayerCount: 3
Back
Fore
SplineSet
202 421 m 257xb0
 202 283 l 257xb0
 173 283 l 257
 173 0 l 257
 32 0 l 257xa8
 32 700 l 257xb0
 173 700 l 257
 173 421 l 257xa8
 202 421 l 257xb0
285 700 m 257xa2
 426 700 l 257
 426 0 l 257
 285 0 l 257
 285 283 l 257xa2
 256 283 l 257
 256 421 l 257xa4
 285 421 l 257
 285 700 l 257xa2
EndSplineSet
Validated: 1
Layer: 2
EndChar

StartChar: HKD
Encoding: 22 22291 22
GlifName: H_K_D_
Width: 843
VWidth: 0
GlyphClass: 2
Flags: W
HStem: 488 210<50 92 50 92 50 126 126 169 50 198 198 241 284 284 284 325> 573 41<92 101 92 101 92 117 117 126>
VStem: 50 51<573 614 573 698> 50 42<488 573 488 614 614 698> 117 52<573 614 614 614> 126 43<488 573 573 573 614 698 488 698> 198 43<488 698 488 698> 360 134 464 71 590 71 652 141
LayerCount: 3
Back
Fore
SplineSet
101 614 m 257x62
 101 573 l 257x62
 92 573 l 257x52
 92 488 l 257
 50 488 l 257x92
 50 698 l 257xa2
 92 698 l 257x92
 92 614 l 257x52
 101 614 l 257x62
283 698 m 257x82
 325 698 l 257
 299 611 l 257
 326 488 l 257
 284 488 l 257
 257 611 l 257
 283 698 l 257x82
198 698 m 257
 241 698 l 257
 241 488 l 257
 198 488 l 257
 198 698 l 257
126 698 m 257x86
 169 698 l 257
 169 488 l 257
 126 488 l 257x86
 126 573 l 257x46
 117 573 l 257
 117 614 l 257x4a
 126 614 l 257x46
 126 698 l 257x86
EndSplineSet
Refer: 105 36 N 1 0 0 1 322 0 2
Validated: 1
Layer: 2
EndChar

StartChar: I
Encoding: 23 73 23
GlifName: I_
Width: 209
VWidth: 0
GlyphClass: 2
Flags: W
HStem: 0 21<34 175 34 34> 0 21<34 175 34 34> 680 20<34 175 175 175>
VStem: 34 141<0 700 0 700>
LayerCount: 3
Back
Fore
SplineSet
34 700 m 257xb0
 175 700 l 257
 175 0 l 257
 34 0 l 257
 34 700 l 257xb0
EndSplineSet
Validated: 1
Layer: 2
EndChar

StartChar: J
Encoding: 28 74 28
GlifName: J_
Width: 495
VWidth: 0
GlyphClass: 2
Flags: W
HStem: -5 142<210.5 213 210.5 213 267 269.5 210.5 297> 680 20<323 463 463 463>
VStem: 26 141<193 242 193 242> 323 140<193 700>
LayerCount: 3
Back
Fore
SplineSet
213 -5 m 257
 153 -5 26 54 26 193 c 257
 26 242 l 257
 167 242 l 257
 167 193 l 258
 168 147 208 137 213 137 c 257
 213 -5 l 257
267 -5 m 257
 267 137 l 257
 272 137 322 147 323 193 c 258
 323 700 l 257
 463 700 l 257
 463 193 l 257
 463 49 327 -5 267 -5 c 257
EndSplineSet
Validated: 1
Layer: 2
EndChar

StartChar: K
Encoding: 29 75 29
GlifName: K_
Width: 475
VWidth: 0
GlyphClass: 2
Flags: W
HStem: 0 21<26 167 26 26 319 457 319 319> 0 21<26 167 26 26 319 457 319 319> 680 20<26 167 167 167 314 453 453 453>
VStem: 26 141<0 700 0 700>
LayerCount: 3
Back
Fore
SplineSet
314 700 m 257xb0
 453 700 l 257
 347 341 l 257
 457 0 l 257
 319 0 l 257
 207 341 l 257
 314 700 l 257xb0
26 700 m 257
 167 700 l 257
 167 0 l 257
 26 0 l 257
 26 700 l 257
EndSplineSet
Validated: 1
Layer: 2
EndChar

StartChar: L
Encoding: 30 76 30
GlifName: L_
Width: 428
VWidth: 0
GlyphClass: 2
Flags: W
HStem: 0 139<167 402 167 402> 680 20<26 167 167 167>
VStem: 26 141<139 700 139 700 139 700>
LayerCount: 3
Back
Fore
SplineSet
402 139 m 257
 402 0 l 257
 26 0 l 257
 26 700 l 257
 167 700 l 257
 167 139 l 257
 402 139 l 257
EndSplineSet
Validated: 1
Layer: 2
EndChar

StartChar: Lslash
Encoding: 31 321 31
GlifName: L_slash
Width: 530
VWidth: 0
GlyphClass: 2
Flags: W
HStem: 0 139<270 505 270 505> 680 20<129 270 270 270>
VStem: 129 141<139 233 233 233 492 700>
LayerCount: 3
Back
Fore
SplineSet
348 553 m 257
 420 460 l 257
 270 343 l 257
 270 139 l 257
 505 139 l 257
 505 0 l 257
 129 0 l 257
 129 233 l 257
 98 209 l 257
 26 302 l 257
 129 382 l 257
 129 700 l 257
 270 700 l 257
 270 492 l 257
 348 553 l 257
EndSplineSet
Validated: 1
Layer: 2
EndChar

StartChar: M
Encoding: 32 77 32
GlifName: M_
Width: 676
VWidth: 0
GlyphClass: 2
Flags: W
HStem: 0 21<32 32 32 173 285 285 285 382 503 503 503 644> 0 21<32 32 32 173 285 285 285 382 503 503 503 644> 680 20<32 142 142 142 503 644 644 644>
VStem: 32 141<0 127 0 444> 503 141<0 700 0 700>
LayerCount: 3
Back
Fore
SplineSet
32 0 m 257xb8
 32 444 l 257
 41 444 l 257
 173 127 l 257
 173 0 l 257
 32 0 l 257xb8
32 700 m 257
 142 700 l 257
 333 237 l 257
 439 476 l 257
 449 476 l 257
 449 151 l 257
 382 0 l 257
 285 0 l 257
 32 608 l 257
 32 700 l 257
503 700 m 257
 644 700 l 257
 644 0 l 257
 503 0 l 257
 503 700 l 257
EndSplineSet
Validated: 1
Layer: 2
EndChar

StartChar: N
Encoding: 33 78 33
GlifName: N_
Width: 509
VWidth: 0
GlyphClass: 2
Flags: W
HStem: 0 21<32 32 32 173 410 410 410 477> 0 21<32 32 32 173 410 410 410 477> 680 20<32 147 147 147 336 477 477 477>
VStem: 32 141<0 278 0 492> 336 141<498 700>
LayerCount: 3
Back
Fore
SplineSet
32 0 m 257xb8
 32 492 l 257
 40 492 l 257
 173 278 l 257
 173 0 l 257
 32 0 l 257xb8
477 700 m 257
 477 284 l 257
 469 284 l 257
 336 498 l 257
 336 700 l 257
 477 700 l 257
32 700 m 257
 147 700 l 257
 477 168 l 257
 477 0 l 257
 410 0 l 257
 32 608 l 257
 32 700 l 257
EndSplineSet
Validated: 1
Layer: 2
EndChar

StartChar: O
Encoding: 35 79 35
GlifName: O_
Width: 508
VWidth: 0
GlyphClass: 2
Flags: W
HStem: -5 142<223.5 226 223.5 226 281 283.5 223.5 311> 564 141<161 227 161 281>
VStem: 30 141<195 508> 337 141<195 508 508 510.5>
LayerCount: 3
Back
Fore
SplineSet
226 -5 m 257
 166 -5 30 51 30 195 c 258
 30 524 l 258
 30 584 95 705 227 705 c 257
 227 564 l 257
 181 563 171 513 171 508 c 258
 171 195 l 258
 171 149 221 137 226 137 c 257
 226 -5 l 257
281 -5 m 257
 281 137 l 257
 286 137 336 149 337 195 c 258
 337 508 l 258
 337 513 327 563 281 564 c 257
 281 705 l 257
 412 705 478 583 478 524 c 258
 478 195 l 258
 478 51 341 -5 281 -5 c 257
EndSplineSet
Validated: 1
Layer: 2
EndChar

StartChar: OE
Encoding: 36 338 36
GlifName: O_E_
Width: 724
VWidth: 0
GlyphClass: 2
Flags: W
HStem: -5 142 564 141
VStem: 26 141<200 503> 333 141
LayerCount: 3
Back
Fore
SplineSet
698 141 m 257
 698 0 l 257
 277 0 l 257
 277 142 l 257
 334 142 l 257
 334 559 l 257
 277 559 l 257
 277 700 l 257
 698 700 l 257
 698 560 l 257
 475 560 l 257
 475 418 l 257
 604 418 l 257
 604 277 l 257
 475 277 l 257
 475 141 l 257
 698 141 l 257
222 0 m 257
 162 0 26 56 26 200 c 258
 26 519 l 258
 26 579 91 700 223 700 c 257
 223 559 l 257
 177 558 167 508 167 503 c 258
 167 200 l 258
 167 154 217 142 222 142 c 257
 222 0 l 257
EndSplineSet
Validated: 1
Layer: 2
EndChar

StartChar: Oslash
Encoding: 41 216 41
GlifName: O_slash
Width: 662
VWidth: 0
GlyphClass: 2
Flags: W
HStem: -5 142<301.5 304 301.5 304 359 361.5 301.5 389> 564 141<239 305 239 359>
VStem: 108 141<356 508> 415 141<195 347 347 347>
LayerCount: 3
Back
Fore
SplineSet
584 658 m 257
 662 570 l 257
 556 474 l 257
 556 195 l 258
 556 51 419 -5 359 -5 c 257
 359 137 l 257
 364 137 414 149 415 195 c 258
 415 347 l 257
 249 197 l 257
 249 195 l 258
 249 149 299 137 304 137 c 257
 304 -5 l 257
 261 -5 178 24 135 94 c 257
 78 43 l 257
 0 131 l 257
 108 228 l 257
 108 524 l 258
 108 584 173 705 305 705 c 257
 305 564 l 257
 259 563 249 513 249 508 c 258
 249 356 l 257
 415 505 l 257
 415 508 l 258
 415 513 405 563 359 564 c 257
 359 705 l 257
 441 705 497 658 528 607 c 257
 584 658 l 257
EndSplineSet
Validated: 1
Layer: 2
EndChar

StartChar: P
Encoding: 43 80 43
GlifName: P_
Width: 474
VWidth: 0
GlyphClass: 2
Flags: W
HStem: 0 21G<26 167> 318 139<221 294.329> 561 139<221 296.296>
VStem: 26 141<0 700> 305 143<466.352 553.217>
LayerCount: 3
Back
Fore
SplineSet
221 457 m 257
 254 457 l 258
 261 457 305 458 305 508 c 256
 305 559 263 561 254 561 c 258
 221 561 l 257
 221 700 l 257
 402 700 448 626 448 512 c 256
 448 369 378 318 221 318 c 257
 221 457 l 257
26 700 m 257
 167 700 l 257
 167 0 l 257
 26 0 l 257
 26 700 l 257
EndSplineSet
Validated: 1
Layer: 2
EndChar

StartChar: Percent_sign
Encoding: 44 37 44
GlifName: P_ercent_sign
Width: 629
VWidth: 0
GlyphClass: 2
Flags: W
HStem: 9 216<465 525> 467 216<104 164>
VStem: 26 216<545 605> 387 216<87 147>
LayerCount: 3
Back
Fore
SplineSet
160 -23 m 257
 335 716 l 257
 461 716 l 257
 287 -23 l 257
 160 -23 l 257
26 575 m 256
 26 635 74 683 134 683 c 256
 194 683 242 635 242 575 c 256
 242 515 194 467 134 467 c 256
 74 467 26 515 26 575 c 256
387 117 m 256
 387 177 435 225 495 225 c 256
 555 225 603 177 603 117 c 256
 603 57 555 9 495 9 c 256
 435 9 387 57 387 117 c 256
EndSplineSet
Validated: 1
Layer: 2
EndChar

StartChar: Q
Encoding: 45 81 45
GlifName: Q_
Width: 500
VWidth: 0
GlyphClass: 2
Flags: W
HStem: 564 141<157 223 157 277>
VStem: 26 141<195 508> 333 141<195 508 508 510.5>
LayerCount: 3
Back
Fore
SplineSet
222 -5 m 257
 162 -5 26 51 26 195 c 258
 26 524 l 258
 26 584 91 705 223 705 c 257
 223 564 l 257
 177 563 167 513 167 508 c 258
 167 195 l 258
 167 149 217 137 222 137 c 257
 222 -5 l 257
405 47 m 257
 460 -32 l 257
 348 -107 l 257
 277 -5 l 257
 277 137 l 257
 282 137 332 149 333 195 c 258
 333 508 l 258
 333 513 323 563 277 564 c 257
 277 705 l 257
 408 705 474 583 474 524 c 258
 474 195 l 258
 474 127 444 79 405 47 c 257
EndSplineSet
Validated: 1
Layer: 2
EndChar

StartChar: R
Encoding: 46 82 46
GlifName: R_
Width: 495
VWidth: 0
GlyphClass: 2
Flags: W
HStem: 0 21<32 173 32 32 343 469 343 343> 0 21<32 173 32 32 343 469 343 343> 286 125<227 240> 567 133<227 240 32 227>
VStem: 32 141<0 700 0 700> 326 127<467.5 512>
LayerCount: 3
Back
Fore
SplineSet
227 411 m 257xbc
 240 411 l 258
 300 411 326 447 326 488 c 256
 326 536 289 567 240 567 c 258
 227 567 l 257
 227 700 l 257
 377 700 453 616 453 496 c 256
 453 428 432 381 386 352 c 257
 422 325 448 266 452 217 c 258
 469 0 l 257
 343 0 l 257
 328 178 l 258
 321 257 298 285 227 286 c 257
 227 411 l 257xbc
32 700 m 257
 173 700 l 257
 173 0 l 257
 32 0 l 257
 32 700 l 257
EndSplineSet
Validated: 1
Layer: 2
EndChar

StartChar: S
Encoding: 47 83 47
GlifName: S_
Width: 497
VWidth: 0
GlyphClass: 2
Flags: W
HStem: 680 20<216 216 271 324>
VStem: 41 134<479.5 525 479.5 577.5> 333 141<176.5 240.5>
LayerCount: 3
Back
Fore
SplineSet
216 700 m 257
 216 568 l 257
 195 562 175 537 175 513 c 256
 175 446 279 434 346 394 c 256
 407 358 474 311 474 209 c 256
 474 96 379 -3 271 -3 c 257
 271 127 l 257
 295 130 333 150 333 203 c 256
 333 278 224 294 164 323 c 256
 93 357 41 403 41 508 c 256
 41 647 165 699 216 700 c 257
271 700 m 257
 377 700 440 589 446 553 c 257
 316 510 l 257
 311 557 271 568 271 568 c 257
 271 700 l 257
216 -3 m 257
 107 -3 34 103 33 158 c 257
 160 203 l 257
 162 147 216 127 216 127 c 257
 216 -3 l 257
EndSplineSet
Validated: 1
Layer: 2
EndChar

StartChar: T
Encoding: 49 84 49
GlifName: T_
Width: 485
VWidth: 0
GlyphClass: 2
Flags: W
HStem: 0 21<172 313 172 172> 0 21<172 313 172 172> 562 138<26 172 26 459 313 459 313 313>
VStem: 172 141<0 562 0 562>
LayerCount: 3
Back
Fore
SplineSet
459 700 m 257xb0
 459 562 l 257
 313 562 l 257
 313 0 l 257
 172 0 l 261
 172 562 l 257
 26 562 l 257
 26 700 l 257
 459 700 l 257xb0
EndSplineSet
Validated: 1
Layer: 2
EndChar

StartChar: Thorn
Encoding: 50 222 50
GlifName: T_horn
Width: 474
VWidth: 0
GlyphClass: 2
Flags: W
HStem: 0 21<26 167 26 26> 0 21<26 167 26 26> 208 139<221 254 254 257.5 221 299.5> 451 139<221 254 221 311.5> 680 20<26 167 167 167>
VStem: 26 141<0 700 0 700> 305 143<373 423.5>
LayerCount: 3
Back
Fore
SplineSet
221 347 m 257x3e
 254 347 l 258
 261 347 305 348 305 398 c 256
 305 449 263 451 254 451 c 258
 221 451 l 257
 221 590 l 257
 402 590 448 516 448 402 c 256
 448 259 378 208 221 208 c 257
 221 347 l 257x3e
26 700 m 257
 167 700 l 257
 167 0 l 257
 26 0 l 257xbe
 26 700 l 257
EndSplineSet
Validated: 1
Layer: 2
EndChar

StartChar: TradeMarkSign
Encoding: 51 8482 51
GlifName: T_radeM_arkS_ign
Width: 403
VWidth: 0
GlyphClass: 2
Flags: W
HStem: 653 47<26 72 26 165 120 165 120 120>
VStem: 72 48<484 653 484 653> 188 48<484 522 484 628> 330 47<484 700 484 700>
LayerCount: 3
Back
Fore
SplineSet
188 484 m 257
 188 628 l 257
 191 628 l 257
 236 522 l 257
 236 484 l 257
 188 484 l 257
188 700 m 257
 225 700 l 257
 281 564 l 257
 313 636 l 257
 317 636 l 257
 317 529 l 257
 298 484 l 257
 265 484 l 257
 188 669 l 257
 188 700 l 257
330 700 m 257
 377 700 l 257
 377 484 l 257
 330 484 l 257
 330 700 l 257
165 700 m 257
 165 653 l 257
 120 653 l 257
 120 484 l 257
 72 484 l 257
 72 653 l 257
 26 653 l 257
 26 700 l 257
 165 700 l 257
EndSplineSet
Validated: 1
Layer: 2
EndChar

StartChar: U
Encoding: 52 85 52
GlifName: U_
Width: 512
VWidth: 0
GlyphClass: 2
Flags: W
HStem: -5 142<226.5 229 226.5 229 283 285.5 226.5 313.5> 680 20<32 173 173 173 339 479 479 479>
VStem: 32 141<193 700 193 700> 339 140<193 700>
LayerCount: 3
Back
Fore
SplineSet
229 -5 m 257
 169 -5 32 49 32 193 c 258
 32 700 l 257
 173 700 l 257
 173 193 l 257
 174 147 224 137 229 137 c 257
 229 -5 l 257
283 -5 m 257
 283 137 l 257
 288 137 338 147 339 193 c 257
 339 700 l 257
 479 700 l 257
 479 193 l 258
 479 48 344 -5 283 -5 c 257
EndSplineSet
Validated: 1
Layer: 2
EndChar

StartChar: V
Encoding: 57 86 57
GlifName: V_
Width: 508
VWidth: 0
GlyphClass: 2
Flags: W
HStem: 0 21<229 276 229 229> 0 21<229 276 229 229> 680 20<26 170 170 170 338 482 482 482>
LayerCount: 3
Back
Fore
SplineSet
26 700 m 257xa0
 170 700 l 257
 329 158 l 257
 276 0 l 257
 229 0 l 257
 26 700 l 257xa0
482 700 m 257
 442 569 401 430 359 290 c 257
 349 290 l 257
 283 514 l 257
 338 700 l 257
 482 700 l 257
EndSplineSet
Validated: 1
Layer: 2
EndChar

StartChar: W
Encoding: 58 87 58
GlifName: W_
Width: 725
VWidth: 0
GlyphClass: 2
Flags: W
HStem: 0 21<229 276 229 229 442 442 442 489> 0 21<229 276 229 229 442 442 442 489> 680 20<26 170 170 170 239 383 383 383 555 699 699 699>
LayerCount: 3
Back
Fore
SplineSet
26 700 m 257xa0
 170 700 l 257
 328 158 l 257
 276 0 l 257
 229 0 l 257
 26 700 l 257xa0
239 700 m 257
 383 700 l 257
 541 158 l 257
 489 0 l 257
 442 0 l 257
 239 700 l 257
699 700 m 257
 576 290 l 257
 566 290 l 257
 500 514 l 257
 555 700 l 257
 699 700 l 257
EndSplineSet
Validated: 1
Layer: 2
EndChar

StartChar: X
Encoding: 59 88 59
GlifName: X_
Width: 464
VWidth: 0
GlyphClass: 2
Flags: W
HStem: 0 21<26 171 26 26 293 438 293 293> 0 21<26 171 26 26 293 438 293 293> 680 20<38 175 175 175 289 426 426 426>
LayerCount: 3
Back
Fore
SplineSet
426 700 m 257xa0
 302 361 l 257
 438 0 l 257
 293 0 l 257
 232 167 l 257
 171 0 l 257
 26 0 l 257
 162 361 l 257
 38 700 l 257
 175 700 l 257
 232 548 l 257
 289 700 l 257
 426 700 l 257xa0
EndSplineSet
Validated: 1
Layer: 2
EndChar

StartChar: Y
Encoding: 60 89 60
GlifName: Y_
Width: 479
VWidth: 0
GlyphClass: 2
Flags: W
HStem: 0 21<157 303 157 157> 0 21<157 303 157 157> 680 20<26 173 173 173 308 453 453 453>
VStem: 157 146<0 252 252 252>
LayerCount: 3
Back
Fore
SplineSet
26 700 m 257xb0
 173 700 l 257
 303 253 l 257
 303 0 l 257
 157 0 l 257
 157 252 l 257
 26 700 l 257xb0
269 565 m 257
 308 700 l 257
 453 700 l 257
 344 331 l 257
 335 331 l 257
 269 565 l 257
EndSplineSet
Validated: 1
Layer: 2
EndChar

StartChar: Z
Encoding: 63 90 63
GlifName: Z_
Width: 418
VWidth: 0
GlyphClass: 2
Flags: W
HStem: 0 144<182 392 182 392> 560 140<26 236 26 392>
VStem: 26 366<0 141 141 141 563 700>
LayerCount: 3
Back
Fore
SplineSet
182 144 m 257
 392 144 l 257
 392 0 l 257
 26 0 l 257
 26 141 l 257
 236 560 l 257
 26 560 l 257
 26 700 l 257
 392 700 l 257
 392 563 l 257
 182 144 l 257
EndSplineSet
Validated: 1
Layer: 2
EndChar

StartChar: a
Encoding: 65 97 65
GlifName: a
Width: 435
VWidth: 0
GlyphClass: 2
Flags: W
HStem: 1 112<163 180 163 180 229 232 163 229>
VStem: 26 101<139 149 149 162 139 167 139 183.5> 268 116<149 227 227 227 351 363 361 375>
LayerCount: 3
Back
Fore
SplineSet
228 519 m 257
 231 519 l 258
 334 519 384 424 384 380 c 258
 384 143 l 258
 384 138 386 114 407 114 c 258
 410 114 l 257
 410 1 l 257
 407 1 l 258
 370 1 341 13 321 30 c 257
 298 12 268 1 232 1 c 258
 229 1 l 257
 229 113 l 257
 232 113 l 258
 262 114 268 146 268 149 c 258
 268 227 l 257
 230 205 153 190 139 183 c 256
 133 180 127 173 127 162 c 258
 127 149 l 258
 127 129 137 113 163 113 c 258
 180 113 l 257
 180 1 l 257
 83 1 26 64 26 121 c 258
 26 167 l 258
 26 200 33 233 75 257 c 256
 118 282 268 311 268 351 c 256
 268 355 268 359 268 363 c 256
 268 387 266 404 231 407 c 256
 228 408 l 257
 228 519 l 257
181 407 m 257
 178 407 l 258
 155 405 138 390 138 353 c 258
 138 349 l 257
 33 389 l 257
 33 391 l 258
 33 462 110 519 178 519 c 258
 181 519 l 257
 181 407 l 257
EndSplineSet
Validated: 1
Layer: 2
EndChar

StartChar: acute
Encoding: 68 180 68
GlifName: acute
Width: 263
VWidth: 0
GlyphClass: 2
Flags: W
HStem: 605 152<87 141 50 214>
VStem: 50 164<605 757>
LayerCount: 3
Back
Fore
SplineSet
141 605 m 257
 50 605 l 257
 87 757 l 257
 214 757 l 257
 141 605 l 257
EndSplineSet
Validated: 1
Layer: 2
EndChar

StartChar: ae
Encoding: 70 230 70
GlifName: ae
Width: 666
VWidth: 0
GlyphClass: 2
Flags: W
HStem: 1 112<163 180 163 180 229 232 163 229> 208 116<384 525 384 639 384 525> 400 116<424 426 426 429>
VStem: 26 101<139 149 149 162 139 180 139 196.5> 268 116<149 208 132 227 132 227 351 363 363 373> 525 114<324 369 369 378 208 382.5>
LayerCount: 3
Back
Fore
SplineSet
482 402 m 258
 478 402 l 257
 478 516 l 257
 484 516 l 258
 554 516 639 450 639 378 c 258
 639 208 l 257
 384 208 l 257
 384 143 l 258
 384 121 400 109 425 108 c 258
 484 108 l 258
 517 108 536 134 541 157 c 257
 640 120 l 257
 624 55 555 0 484 0 c 258
 425 0 l 258
 380 0 345 9 321 30 c 257
 298 12 268 1 232 1 c 258
 229 1 l 257
 229 113 l 257
 232 113 l 258
 262 114 268 146 268 149 c 258
 268 227 l 257
 230 205 153 190 139 183 c 256
 133 180 127 173 127 162 c 258
 127 149 l 258
 127 129 137 113 163 113 c 258
 180 113 l 257
 180 1 l 257
 83 1 26 53 26 110 c 258
 26 180 l 258
 26 213 33 233 75 257 c 256
 118 282 268 311 268 351 c 258
 268 363 l 258
 268 387 266 407 231 407 c 258
 178 407 l 258
 155 407 138 390 138 353 c 258
 138 349 l 257
 33 389 l 257
 33 391 l 258
 33 462 110 519 178 519 c 258
 233 519 l 258
 273 519 305 504 329 483 c 257
 353 502 385 516 424 516 c 258
 429 516 l 257
 429 400 l 257
 426 400 l 258
 400 400 387 385 384 373 c 258
 384 324 l 257
 525 324 l 257
 525 369 l 258
 525 396 502 402 482 402 c 258
EndSplineSet
Validated: 1
Layer: 2
EndChar

StartChar: ampersand
Encoding: 72 38 72
GlifName: ampersand
Width: 687
VWidth: 0
GlyphClass: 2
Flags: W
HStem: 682 20<257 257>
VStem: 26 157<182 227.5 182 260> 94 137<518.5 552.5 518.5 574.5> 344 133<518.5 545>
LayerCount: 3
Back
Fore
SplineSet
257 578 m 257xb0
 257 578 231 569 231 536 c 256xb0
 231 501 251 495 257 489 c 257
 257 269 l 257
 233 297 l 257
 208 275 183 251 183 204 c 256
 183 160 210 135 257 135 c 257
 257 3 l 257
 107 3 26 93 26 214 c 256xd0
 26 306 81 370 151 404 c 257
 124 424 94 486 94 528 c 256
 94 621 153 681 257 702 c 257
 257 578 l 257xb0
317 700 m 257
 424 681 477 618 477 520 c 256
 477 445 417 383 363 361 c 257
 431 280 l 257
 443 299 451 320 455 345 c 257
 594 345 l 257
 584 274 559 227 520 180 c 257
 661 16 l 257
 464 16 l 257
 417 72 l 257
 393 50 352 26 317 16 c 257
 317 168 l 257
 324 173 325 174 332 180 c 257
 317 198 l 257
 317 486 l 257
 328 495 344 504 344 533 c 256
 344 557 340 570 317 582 c 257
 317 700 l 257
EndSplineSet
Validated: 1
Layer: 2
EndChar

StartChar: asciicircum
Encoding: 74 94 74
GlifName: asciicircum
Width: 374
VWidth: 0
GlyphClass: 2
Flags: W
HStem: 460 296<27 264 27 264 176 290 176 413>
LayerCount: 3
Back
Fore
SplineSet
27 460 m 257
 176 756 l 257
 264 756 l 257
 413 460 l 257
 290 460 l 257
 219 603 l 257
 149 460 l 257
 27 460 l 257
EndSplineSet
Validated: 1
Layer: 2
EndChar

StartChar: asciitilde
Encoding: 75 126 75
GlifName: asciitilde
Width: 568
VWidth: 0
GlyphClass: 2
Flags: W
HStem: 235 132<343 399.5> 308 132<147.5 198>
LayerCount: 3
Back
Fore
SplineSet
518 281 m 257x80
 462 247 418 235 381 235 c 256x80
 289 235 239 308 157 308 c 256
 127 308 92 299 50 272 c 257
 50 405 l 257
 95 431 132 440 163 440 c 256x40
 250 440 299 367 387 367 c 256
 422 367 464 379 518 412 c 257
 518 281 l 257x80
EndSplineSet
Validated: 1
Layer: 2
EndChar

StartChar: asterisk
Encoding: 76 42 76
GlifName: asterisk
Width: 394
VWidth: 0
GlyphClass: 2
Flags: W
HStem: 478 307<160 231 160 231> 517 21<92 92>
VStem: 160 71<478 564 564 564 704 785>
LayerCount: 3
Back
Fore
SplineSet
231 478 m 257xa0
 160 478 l 257xa0
 160 564 l 257
 92 517 l 257x60
 51 574 l 257
 138 633 l 257
 50 691 l 257
 92 748 l 257
 160 704 l 257
 160 785 l 257
 231 785 l 257
 231 702 l 257
 302 748 l 257
 344 691 l 257
 256 632 l 257
 343 572 l 257
 302 515 l 257
 231 565 l 257
 231 478 l 257xa0
EndSplineSet
Validated: 1
Layer: 2
EndChar

StartChar: at
Encoding: 77 64 77
GlifName: at
Width: 803
VWidth: 0
GlyphClass: 2
Flags: W
HStem: -87 109<337 457.5 337 480.5> 116 403<368 375.5 368 593> 116 124<556 580.5 556 593> 602 113<367.5 500>
VStem: 16 120<217 396.5 217 421> 205 340<257.5 273 257.5 366.5> 666 120<346 471>
LayerCount: 3
Back
Fore
SplineSet
667 103 m 257xbe
 717 12 l 257
 658 -45 538 -87 423 -87 c 256
 195 -87 16 47 16 309 c 256
 16 533 191 715 448 715 c 256
 610 715 786 612 786 412 c 256
 786 201 654 116 532 116 c 256xde
 494 116 463 137 453 161 c 257
 439 139 407 116 344 116 c 256xbe
 268 116 205 193 205 289 c 256
 205 444 327 519 409 519 c 256xde
 473 519 495 493 510 477 c 257
 518 504 l 257
 602 504 l 257
 552 308 l 258
 549 297 545 280 545 266 c 256
 545 249 549 240 563 240 c 256
 598 240 666 280 666 412 c 256
 666 530 549 602 451 602 c 256
 284 602 136 481 136 312 c 256
 136 122 260 22 414 22 c 256
 501 22 587 47 667 103 c 257xbe
EndSplineSet
Validated: 1
Layer: 2
EndChar

StartChar: b
Encoding: 79 98 79
GlifName: b
Width: 414
VWidth: 0
GlyphClass: 2
Flags: W
HStem: 0 118<30 236 203 236 203 236> 398 118<203 236 236 237 203 236> 679 20<30 155 155 155> 679 20<30 155 155 155>
VStem: 30 125<0 699 0 699> 270 118<143 373 373 374>
LayerCount: 3
Back
Fore
SplineSet
30 0 m 257xec
 30 699 l 257
 155 699 l 257
 155 0 l 257
 30 0 l 257xec
270 373 m 257
 270 375 264 397 237 398 c 258
 203 398 l 257
 203 516 l 257
 236 516 l 258
 338 516 387 422 388 377 c 257
 388 141 l 258
 388 97 339 0 236 0 c 258
 203 0 l 257
 203 118 l 257
 236 118 l 258
 264 118 270 142 270 143 c 257
 270 373 l 257
EndSplineSet
Validated: 1
Layer: 2
EndChar

StartChar: backslash
Encoding: 80 92 80
GlifName: backslash
Width: 402
VWidth: 0
GlyphClass: 2
Flags: W
VStem: 50 301
LayerCount: 3
Back
Fore
SplineSet
351 -23 m 257
 224 -23 l 257
 50 716 l 257
 176 716 l 257
 351 -23 l 257
EndSplineSet
Validated: 1
Layer: 2
EndChar

StartChar: bar
Encoding: 81 124 81
GlifName: bar
Width: 205
VWidth: 0
GlyphClass: 2
Flags: W
VStem: 50 105<-134 754 -134 754>
LayerCount: 3
Back
Fore
SplineSet
50 754 m 257
 155 754 l 257
 155 -134 l 257
 50 -134 l 257
 50 754 l 257
EndSplineSet
Validated: 1
Layer: 2
EndChar

StartChar: braceleft
Encoding: 82 123 82
GlifName: braceleft
Width: 407
VWidth: 0
GlyphClass: 2
Flags: W
HStem: -38 99<280 292 289 307> 635 100<273 307>
VStem: 112 127<192 207 207 290 290 304 146.5 306 408 469>
LayerCount: 3
Back
Fore
SplineSet
307 735 m 257
 307 635 l 257
 239 635 240 591 239 469 c 257
 239 383 l 258
 239 366 219 354 195 348 c 257
 220 340 239 325 239 304 c 258
 239 207 l 258
 239 86 253 61 307 61 c 257
 307 -38 l 257
 301 -38 295 -38 289 -38 c 256
 200 -38 112 -31 112 192 c 258
 112 290 l 258
 112 322 86 329 50 348 c 257
 86 363 111 370 112 408 c 258
 112 504 l 258
 112 715 198 735 307 735 c 257
EndSplineSet
Validated: 1
Layer: 2
EndChar

StartChar: braceright
Encoding: 83 125 83
GlifName: braceright
Width: 407
VWidth: 0
GlyphClass: 2
Flags: W
HStem: -38 99<100 118 100 103> 635 100<100 134>
VStem: 168 127<208 290 80.5 304 80.5 314.5 408 469 469 469>
LayerCount: 3
Back
Fore
SplineSet
100 735 m 257
 209 735 295 715 295 504 c 258
 295 408 l 258
 296 370 321 363 357 348 c 257
 321 329 295 322 295 290 c 258
 295 192 l 258
 295 -31 207 -38 118 -38 c 256
 112 -38 106 -38 100 -38 c 257
 100 61 l 257
 154 61 168 87 168 208 c 258
 168 304 l 258
 168 325 187 340 212 348 c 257
 188 354 168 366 168 383 c 256
 168 384 168 384 168 384 c 256
 168 469 l 258
 167 591 168 635 100 635 c 257
 100 735 l 257
EndSplineSet
Validated: 1
Layer: 2
EndChar

StartChar: bracketleft
Encoding: 84 91 84
GlifName: bracketleft
Width: 258
VWidth: 0
GlyphClass: 2
Flags: W
HStem: -36 110<180 244 180 244> 629 110<183 244 183 183>
VStem: 50 194<-36 74 629 739> 50 130<74 74 74 739>
LayerCount: 3
Back
Fore
SplineSet
244 739 m 257xe0
 244 629 l 257xe0
 183 629 l 257
 180 74 l 257xd0
 244 74 l 257
 244 -36 l 257
 50 -36 l 257
 50 739 l 257
 244 739 l 257xe0
EndSplineSet
Validated: 1
Layer: 2
EndChar

StartChar: bracketright
Encoding: 85 93 85
GlifName: bracketright
Width: 258
VWidth: 0
GlyphClass: 2
Flags: W
HStem: -36 110<14 78 14 208 14 78> 629 110<14 75 14 208>
VStem: 14 194<-36 74 74 74 629 739 -36 739> 78 130<74 74>
LayerCount: 3
Back
Fore
SplineSet
14 739 m 257xe0
 208 739 l 257
 208 -36 l 257
 14 -36 l 257
 14 74 l 257xe0
 78 74 l 257xd0
 75 629 l 257
 14 629 l 257
 14 739 l 257xe0
EndSplineSet
Validated: 1
Layer: 2
EndChar

StartChar: breve
Encoding: 86 728 86
GlifName: breve
Width: 244
VWidth: 0
GlyphClass: 2
Flags: W
HStem: 430 64<113 131 113 148.5>
VStem: 26 64<517 526 517 526> 154 64<517 526>
LayerCount: 3
Back
Fore
SplineSet
218 526 m 257
 218 473 175 430 122 430 c 256
 69 430 26 473 26 526 c 257
 90 526 l 257
 90 508 104 494 122 494 c 256
 140 494 154 508 154 526 c 257
 218 526 l 257
EndSplineSet
Validated: 1
Layer: 2
EndChar

StartChar: brokenbar
Encoding: 87 166 87
GlifName: brokenbar
Width: 222
VWidth: 0
GlyphClass: 2
Flags: W
VStem: 50 122<-134 221 -134 221 399 754>
LayerCount: 3
Back
Fore
SplineSet
50 754 m 257
 172 754 l 257
 172 399 l 257
 50 399 l 257
 50 754 l 257
50 221 m 257
 172 221 l 257
 172 -134 l 257
 50 -134 l 257
 50 221 l 257
EndSplineSet
Validated: 1
Layer: 2
EndChar

StartChar: bullet
Encoding: 88 8226 88
GlifName: bullet
Width: 352
VWidth: 0
GlyphClass: 2
Flags: W
LayerCount: 3
Back
Fore
SplineSet
26 344 m 256
 26 428 92 496 176 496 c 256
 260 496 326 428 326 344 c 256
 326 260 260 194 176 194 c 256
 92 194 26 260 26 344 c 256
EndSplineSet
Validated: 1
Layer: 2
EndChar

StartChar: c
Encoding: 89 99 89
GlifName: c
Width: 418
VWidth: 0
GlyphClass: 2
Flags: W
HStem: -1 117<243 249 243 249 249 250> 496 20<185 191 191 191 233 239 239 275.5>
VStem: 30 119<141 375>
LayerCount: 3
Back
Fore
SplineSet
266 383 m 257
 261 397 239 399 239 399 c 258
 238 399 237 399 236 399 c 258
 233 399 l 257
 233 516 l 257
 239 516 l 258
 312 516 381 448 381 376 c 258
 381 372 l 257
 270 330 l 257
 270 360 l 258
 270 370 270 375 266 383 c 257
243 -1 m 257
 243 116 l 257
 249 116 l 257
 251 116 272 119 277 132 c 257
 281 140 281 146 281 156 c 258
 281 186 l 257
 392 144 l 257
 392 140 l 258
 392 68 323 -1 250 -1 c 258
 243 -1 l 257
30 377 m 257
 31 421 80 516 185 516 c 258
 191 516 l 257
 191 400 l 257
 185 400 l 258
 154 400 149 377 149 375 c 258
 149 141 l 258
 149 139 154 115 194 115 c 256
 199 114 l 257
 199 0 l 257
 194 0 l 258
 79 0 30 97 30 141 c 258
 30 377 l 257
EndSplineSet
Validated: 1
Layer: 2
EndChar

StartChar: caron
Encoding: 90 711 90
GlifName: caron
Width: 270
VWidth: 0
GlyphClass: 2
Flags: W
HStem: 514 152<101 107 162 167 101 101>
VStem: 26 218<666 666>
LayerCount: 3
Back
Fore
SplineSet
26 666 m 257
 107 666 l 257
 134 609 l 257
 162 666 l 257
 244 666 l 257
 167 514 l 257
 101 514 l 257
 26 666 l 257
EndSplineSet
Validated: 1
Layer: 2
EndChar

StartChar: cedilla
Encoding: 92 184 92
GlifName: cedilla
Width: 219
VWidth: 0
GlyphClass: 2
Flags: W
HStem: -36 91<26 44 26 89.5>
VStem: 102 92<95.5 123>
LayerCount: 3
Back
Fore
SplineSet
102 123 m 257
 194 123 l 257
 194 47 153 -36 26 -36 c 257
 26 55 l 257
 62 55 102 68 102 123 c 257
EndSplineSet
Validated: 1
Layer: 2
EndChar

StartChar: cent
Encoding: 93 162 93
GlifName: cent
Width: 494
VWidth: 0
GlyphClass: 2
Flags: W
VStem: 32 141<181 518> 158 71<-48 -5 -5 7 7 7 693 705 705 749> 283 71<-48 -5 -5 11 -48 86 687 705 705 749> 330 138<143 215 143 215>
LayerCount: 3
Back
Fore
SplineSet
158 749 m 257x40
 229 749 l 257
 229 705 l 257
 229 595 l 257
 229 564 l 257x40
 183 563 173 523 173 518 c 258
 173 181 l 258x80
 173 176 183 136 229 136 c 257
 229 86 l 257
 229 -5 l 257
 229 -48 l 257
 158 -48 l 257
 158 7 l 257x40
 68 40 32 132 32 181 c 258
 32 518 l 258x80
 32 567 68 660 158 693 c 257
 158 749 l 257x40
283 749 m 257x20
 354 749 l 257
 354 687 l 257x20
 417 656 468 587 468 516 c 257
 330 480 l 257
 330 495 l 258x10
 330 509 330 520 325 532 c 256
 315 555 283 564 283 564 c 257
 283 595 l 257
 283 705 l 257
 283 749 l 257x20
283 136 m 257
 283 136 315 143 325 166 c 256
 330 178 330 189 330 203 c 258
 330 215 l 257
 468 182 l 257x10
 468 104 417 40 354 11 c 257
 354 -48 l 257
 283 -48 l 257
 283 -5 l 257
 283 86 l 257
 283 136 l 257
EndSplineSet
Validated: 1
Layer: 2
EndChar

StartChar: circumflex
Encoding: 94 710 94
GlifName: circumflex
Width: 270
VWidth: 0
GlyphClass: 2
Flags: W
HStem: 514 152<26 167 101 107 162 162 162 167 101 244>
VStem: 26 218<514 514>
LayerCount: 3
Back
Fore
SplineSet
26 514 m 257
 101 666 l 257
 167 666 l 257
 244 514 l 257
 162 514 l 257
 134 571 l 257
 107 514 l 257
 26 514 l 257
EndSplineSet
Validated: 1
Layer: 2
EndChar

StartChar: colon
Encoding: 95 58 95
GlifName: colon
Width: 250
VWidth: 0
GlyphClass: 2
Flags: W
HStem: -5 151<104 146> 285 151<104 146>
VStem: 50 150<49 91 339 381>
LayerCount: 3
Back
Fore
SplineSet
50 70 m 256
 50 112 83 146 125 146 c 256
 167 146 200 112 200 70 c 256
 200 28 167 -5 125 -5 c 256
 83 -5 50 28 50 70 c 256
50 360 m 256
 50 402 83 436 125 436 c 256
 167 436 200 402 200 360 c 256
 200 318 167 285 125 285 c 256
 83 285 50 318 50 360 c 256
EndSplineSet
Validated: 1
Layer: 2
EndChar

StartChar: comma
Encoding: 96 44 96
GlifName: comma
Width: 265
VWidth: 0
GlyphClass: 2
Flags: W
LayerCount: 3
Back
Fore
SplineSet
178 -23 m 257
 51 -23 l 257
 88 129 l 257
 215 129 l 257
 178 -23 l 257
EndSplineSet
Validated: 1
Layer: 2
EndChar

StartChar: copyright
Encoding: 97 169 97
GlifName: copyright
Width: 859
VWidth: 0
GlyphClass: 2
Flags: W
HStem: -49 93<412 412 412 447> 112 89<366.5 447 447 476.5> 476 90<397.5 412 366.5 447> 636 90<412 412 412 447>
VStem: 50 89<332 339 332 339 337 339 332 464> 287 90<231 447> 720 89<332 339 338 339 327 427.5>
LayerCount: 3
Back
Fore
SplineSet
412 44 m 257
 412 -49 l 257
 240 -43 56 104 50 327 c 256
 50 331 50 335 50 339 c 256
 50 589 264 725 412 726 c 257
 412 636 l 257
 283 635 139 516 139 339 c 256
 139 337 139 334 139 332 c 256
 142 179 266 51 412 44 c 257
447 476 m 257
 447 566 l 257
 506 566 565 507 565 446 c 257
 477 413 l 257
 477 432 l 258
 477 441 477 448 474 456 c 256
 468 470 447 476 447 476 c 257
447 201 m 257
 447 201 468 207 474 222 c 256
 477 229 477 236 477 245 c 258
 477 264 l 257
 565 232 l 257
 565 171 506 112 447 112 c 257
 447 201 l 257
412 566 m 257
 412 476 l 257
 383 476 377 450 377 447 c 257
 377 231 l 257
 377 228 383 203 412 203 c 257
 412 112 l 257
 321 112 287 193 287 231 c 257
 287 447 l 257
 287 485 321 566 412 566 c 257
447 44 m 257
 593 51 717 179 720 332 c 256
 720 334 720 337 720 339 c 256
 720 516 576 635 447 636 c 257
 447 726 l 257
 595 725 809 589 809 339 c 256
 809 335 809 331 809 327 c 256
 803 104 619 -43 447 -49 c 257
 447 44 l 257
EndSplineSet
Validated: 1
Layer: 2
EndChar

StartChar: currency
Encoding: 98 164 98
GlifName: currency
Width: 656
VWidth: 0
GlyphClass: 2
Flags: W
HStem: 133 118<281 310 304 310 304 357 304 351> 477 118<287.5 310 304 310 304 351 351 357>
VStem: 146 120<275 275 275 276 276 452> 393 117<275 451 451 452.5>
LayerCount: 3
Back
Fore
SplineSet
351 477 m 257
 351 595 l 257
 357 595 l 258
 400 595 434 578 459 555 c 257
 534 622 l 257
 606 540 l 257
 510 456 l 258
 510 455 510 455 510 455 c 256
 510 275 l 256
 510 275 510 275 510 275 c 256
 605 190 l 257
 534 109 l 257
 460 174 l 257
 435 150 401 133 357 133 c 258
 351 133 l 257
 351 247 l 257
 357 247 l 258
 388 248 393 272 393 274 c 258
 393 451 l 258
 393 454 387 477 357 477 c 258
 351 477 l 257
50 540 m 257
 122 622 l 257
 198 555 l 257
 223 578 259 595 304 595 c 258
 310 595 l 257
 310 477 l 257
 304 477 l 258
 271 477 266 453 266 452 c 258
 266 276 l 258
 266 273 274 251 304 251 c 258
 310 251 l 257
 310 133 l 257
 304 133 l 258
 258 133 222 151 197 175 c 257
 122 109 l 257
 51 190 l 257
 146 275 l 256
 146 275 146 275 146 275 c 256
 146 455 l 256
 146 455 146 455 146 456 c 258
 50 540 l 257
EndSplineSet
Validated: 5
Layer: 2
EndChar

StartChar: d
Encoding: 99 100 99
GlifName: d
Width: 414
VWidth: 0
GlyphClass: 2
Flags: W
HStem: 0 118<130 210 182 210 182 258 182 384> 398 118<180 210 180 210> 678 20<258 384 384 384>
VStem: 30 118<142 143 143 373> 258 126<0 698>
LayerCount: 3
Back
Fore
SplineSet
180 516 m 258
 210 516 l 257
 210 398 l 257
 180 398 l 257
 153 397 148 375 148 373 c 258
 148 143 l 257
 148 141 154 118 182 118 c 258
 210 118 l 257
 210 0 l 257
 182 0 l 258
 78 0 30 97 30 141 c 258
 30 377 l 257
 31 422 79 516 180 516 c 258
384 0 m 257
 258 0 l 257
 258 698 l 257
 384 698 l 257
 384 0 l 257
EndSplineSet
Validated: 1
Layer: 2
EndChar

StartChar: dagger
Encoding: 100 8224 100
GlifName: dagger
Width: 453
VWidth: 0
GlyphClass: 2
Flags: W
HStem: 450 127<26 156 26 156 297 427>
VStem: 156 141<-56 450 -56 450 577 764>
LayerCount: 3
Back
Fore
SplineSet
427 577 m 257
 427 450 l 257
 297 450 l 257
 297 -56 l 257
 156 -56 l 257
 156 450 l 257
 26 450 l 257
 26 577 l 257
 156 577 l 257
 156 764 l 257
 297 764 l 257
 297 577 l 257
 427 577 l 257
EndSplineSet
Validated: 1
Layer: 2
EndChar

StartChar: daggerdbl
Encoding: 101 8225 101
GlifName: daggerdbl
Width: 453
VWidth: 0
GlyphClass: 2
Flags: W
HStem: 131 127<26 156 26 156 297 427> 450 127<26 156 26 156 297 427>
VStem: 156 141<-56 131 -56 131 258 450 577 764>
LayerCount: 3
Back
Fore
SplineSet
156 764 m 257
 297 764 l 257
 297 577 l 257
 427 577 l 257
 427 450 l 257
 297 450 l 257
 297 258 l 257
 427 258 l 257
 427 131 l 257
 297 131 l 257
 297 -56 l 257
 156 -56 l 257
 156 131 l 257
 26 131 l 257
 26 258 l 257
 156 258 l 257
 156 450 l 257
 26 450 l 257
 26 577 l 257
 156 577 l 257
 156 764 l 257
EndSplineSet
Validated: 1
Layer: 2
EndChar

StartChar: degree
Encoding: 102 176 102
GlifName: degree
Width: 282
VWidth: 0
GlyphClass: 2
Flags: W
HStem: 468 77<129.5 151 129.5 172> 622 77
VStem: 25 77<572.5 594 572.5 615> 179 77<572.5 594>
LayerCount: 3
Back
Fore
SplineSet
102 583 m 256
 102 562 119 545 140 545 c 256
 162 545 179 562 179 583 c 256
 179 605 162 622 140 622 c 256
 119 622 102 605 102 583 c 256
25 583 m 256
 25 647 77 698 140 698 c 256
 204 698 256 647 256 583 c 256
 256 520 204 468 140 468 c 256
 77 468 25 520 25 583 c 256
EndSplineSet
Validated: 1
Layer: 2
EndChar

StartChar: dieresis
Encoding: 103 168 103
GlifName: dieresis
Width: 320
VWidth: 0
GlyphClass: 2
Flags: W
LayerCount: 3
Back
Fore
SplineSet
170 678 m 256
 170 720 203 754 245 754 c 256
 287 754 320 720 320 678 c 256
 320 636 287 603 245 603 c 256
 203 603 170 636 170 678 c 256
0 678 m 256
 0 720 33 754 75 754 c 256
 117 754 150 720 150 678 c 256
 150 636 117 603 75 603 c 256
 33 603 0 636 0 678 c 256
EndSplineSet
Validated: 1
Layer: 2
EndChar

StartChar: divide
Encoding: 104 247 104
GlifName: divide
Width: 650
VWidth: 0
GlyphClass: 2
Flags: W
HStem: 40 151 228 127<100 550 100 550> 393 151
VStem: 213 150
LayerCount: 3
Back
Fore
SplineSet
550 355 m 257
 550 228 l 257
 100 228 l 257
 100 355 l 257
 550 355 l 257
EndSplineSet
Refer: 175 46 N 1 0 0 1 196 415 2
Refer: 175 46 N 1 0 0 1 196 62 2
Validated: 1
Layer: 2
EndChar

StartChar: dollar
Encoding: 105 36 105
GlifName: dollar
Width: 501
VWidth: 0
GlyphClass: 2
Flags: W
VStem: 38 134<499.5 525 499.5 553.5> 142 71<-47 13 13 13 679 750> 268 71<-47 -3 -3 12 -47 127 682 750> 330 141<176.5 222>
LayerCount: 3
Back
Fore
SplineSet
268 428 m 257x20
 294 418 320 407 343 394 c 256
 404 358 471 311 471 209 c 256x10
 471 122 414 44 339 12 c 257
 339 -47 l 257
 268 -47 l 257
 268 -3 l 256
 268 127 l 257x20
 292 130 330 150 330 203 c 256x10
 330 241 303 263 268 280 c 257
 268 428 l 257x20
213 750 m 257x40
 213 568 l 257x40
 192 562 172 537 172 513 c 256x80
 172 486 189 469 213 454 c 257
 213 302 l 257x40
 194 309 176 316 161 323 c 256
 90 357 38 403 38 508 c 256x80
 38 599 91 652 142 679 c 257
 142 750 l 257
 213 750 l 257x40
339 682 m 257x20
 402 649 438 580 443 553 c 257
 313 510 l 257
 308 557 268 568 268 568 c 257
 268 750 l 257
 339 750 l 257
 339 682 l 257x20
213 -47 m 257x40
 142 -47 l 257
 142 13 l 257
 73 45 31 116 30 158 c 257
 157 203 l 257
 159 147 213 127 213 127 c 257
 213 -47 l 257x40
EndSplineSet
Validated: 1
Layer: 2
EndChar

StartChar: dotaccent
Encoding: 106 729 106
GlifName: dotaccent
Width: 202
VWidth: 0
GlyphClass: 2
Flags: W
HStem: 603 151<80 122>
VStem: 26 150<657 699>
LayerCount: 3
Back
Fore
SplineSet
26 678 m 256
 26 720 59 754 101 754 c 256
 143 754 176 720 176 678 c 256
 176 636 143 603 101 603 c 256
 59 603 26 636 26 678 c 256
EndSplineSet
Validated: 1
Layer: 2
EndChar

StartChar: dotlessi
Encoding: 107 305 107
GlifName: dotlessi
Width: 174
VWidth: 0
GlyphClass: 2
Flags: W
LayerCount: 3
Back
Fore
SplineSet
148 0 m 257
 26 0 l 257
 26 516 l 257
 148 516 l 257
 148 0 l 257
EndSplineSet
Validated: 1
Layer: 2
EndChar

StartChar: e
Encoding: 108 101 108
GlifName: e
Width: 424
VWidth: 0
GlyphClass: 2
Flags: W
HStem: 0 111<131 242 183 242 236 242 236 242> 208 116<148 283 148 397 148 283> 402 114<236 240 182 236>
VStem: 26 122<141 208 324 369> 283 114<324 369 369 378>
LayerCount: 3
Back
Fore
SplineSet
240 402 m 258
 236 402 l 257
 236 516 l 257
 242 516 l 258
 312 516 397 450 397 378 c 258
 397 208 l 257
 148 208 l 257
 148 141 l 258
 148 138 155 109 183 108 c 258
 188 108 l 257
 188 0 l 257
 183 0 l 258
 79 0 26 96 26 141 c 258
 26 377 l 257
 27 422 80 516 182 516 c 258
 187 516 l 257
 187 400 l 257
 184 400 l 258
 155 400 148 380 148 369 c 258
 148 324 l 257
 283 324 l 257
 283 369 l 258
 283 396 260 402 240 402 c 258
236 0 m 257
 236 111 l 257
 242 111 l 258
 273 113 294 132 298 153 c 258
 299 157 l 257
 398 120 l 257
 397 118 l 256
 382 54 312 0 242 0 c 258
 236 0 l 257
EndSplineSet
Validated: 1
Layer: 2
EndChar

StartChar: eight
Encoding: 113 56 113
GlifName: eight
Width: 486
VWidth: 0
GlyphClass: 2
Flags: W
HStem: 0 125<190 212 210 212 212 276 212 275> 571 127<179 214 179 272>
VStem: 26 128<183 226 183 234> 329 123<471.5 524> 332 128<183 226>
LayerCount: 3
Back
Fore
SplineSet
274 125 m 257xe8
 307 134 332 165 332 201 c 256xe8
 332 251 305 274 273 283 c 257
 273 413 l 257
 309 424 329 446 329 497 c 256
 329 551 290 568 272 571 c 257
 272 698 l 257
 342 698 452 619 452 499 c 256xf0
 452 415 409 352 395 349 c 257
 423 330 460 269 460 199 c 256
 460 53 316 0 276 0 c 258
 275 0 l 257
 274 125 l 257xe8
212 125 m 257
 211 0 l 257
 210 0 l 258
 170 0 26 53 26 199 c 256
 26 269 63 330 91 349 c 257
 77 352 33 415 33 499 c 256
 33 619 144 698 214 698 c 257
 214 571 l 257
 196 568 157 551 157 497 c 256
 157 446 177 424 213 413 c 257
 213 283 l 257
 181 274 154 251 154 201 c 256
 154 165 179 134 212 125 c 257
EndSplineSet
Validated: 1
Layer: 2
EndChar

StartChar: emdash
Encoding: 114 8212 114
GlifName: emdash
Width: 906
VWidth: 0
GlyphClass: 2
Flags: W
HStem: 230 127<26 880 26 880>
LayerCount: 3
Back
Fore
SplineSet
880 357 m 257
 880 230 l 257
 26 230 l 257
 26 357 l 257
 880 357 l 257
EndSplineSet
Validated: 1
Layer: 2
EndChar

StartChar: endash
Encoding: 115 8211 115
GlifName: endash
Width: 532
VWidth: 0
GlyphClass: 2
Flags: W
HStem: 230 127<26 506 26 506>
LayerCount: 3
Back
Fore
SplineSet
506 357 m 257
 506 230 l 257
 26 230 l 257
 26 357 l 257
 506 357 l 257
EndSplineSet
Validated: 1
Layer: 2
EndChar

StartChar: equal
Encoding: 116 61 116
GlifName: equal
Width: 418
VWidth: 0
GlyphClass: 2
Flags: W
HStem: 131 127<50 368 50 368> 325 127<50 368 50 368>
VStem: 50 318<131 258 131 258 325 452 131 452>
LayerCount: 3
Back
Fore
SplineSet
368 258 m 257
 368 131 l 257
 50 131 l 257
 50 258 l 257
 368 258 l 257
368 452 m 257
 368 325 l 257
 50 325 l 257
 50 452 l 257
 368 452 l 257
EndSplineSet
Validated: 1
Layer: 2
EndChar

StartChar: eth
Encoding: 117 240 117
GlifName: eth
Width: 420
VWidth: 0
GlyphClass: 2
Flags: W
HStem: -1 118<132 192 186 192 233 239 186 233> 398 118<169.5 192 186 192 233 239 186 233>
VStem: 28 120<144.5 154 154 363> 275 117<152 363 363 364 364 371.5>
LayerCount: 3
Back
Fore
SplineSet
267 558 m 257
 210 541 l 257
 192 598 l 257
 242 614 l 257
 230 627 214 637 192 647 c 257
 192 714 l 257
 250 703 297 679 330 641 c 257
 380 657 l 257
 398 599 l 257
 364 588 l 257
 383 548 392 500 392 442 c 258
 392 376 l 257
 392 364 l 257
 392 141 l 258
 392 96 343 -1 239 -1 c 258
 233 -1 l 257
 233 117 l 257
 239 117 l 258
 270 118 275 141 275 152 c 258
 275 363 l 258
 275 380 269 398 239 398 c 258
 233 398 l 257
 233 516 l 257
 239 516 l 258
 251 516 262 515 273 512 c 257
 271 530 270 545 267 558 c 257
28 376 m 258
 28 421 79 516 186 516 c 258
 192 516 l 257
 192 398 l 257
 186 398 l 258
 153 398 148 373 148 363 c 258
 148 154 l 258
 148 135 156 117 186 117 c 258
 192 117 l 257
 192 -1 l 257
 186 -1 l 258
 78 -1 28 97 28 141 c 258
 28 376 l 258
EndSplineSet
Validated: 1
Layer: 2
EndChar

StartChar: exclam
Encoding: 118 33 118
GlifName: exclam
Width: 244
VWidth: 0
GlyphClass: 2
Flags: W
HStem: -22 151<61.75 168.25> 680 20G<52 181>
VStem: 40 150<-0.25 106.75> 52 129<166 700>
LayerCount: 3
Back
Fore
SplineSet
40 53 m 256xe0
 40 95 73 129 115 129 c 256
 157 129 190 95 190 53 c 256
 190 11 157 -22 115 -22 c 256
 73 -22 40 11 40 53 c 256xe0
52 166 m 257xd0
 52 700 l 257
 181 700 l 257
 181 166 l 257
 52 166 l 257xd0
EndSplineSet
Layer: 2
EndChar

StartChar: exclamdown
Encoding: 119 161 119
GlifName: exclamdown
Width: 210
VWidth: 0
GlyphClass: 2
Flags: W
HStem: 0 21<38 167 38 38> 0 21<38 167 38 38> 571 151<80 122>
VStem: 26 150<626 668> 38 129<0 534 0 534>
LayerCount: 3
Back
Fore
SplineSet
26 647 m 256x30
 26 689 59 722 101 722 c 256
 143 722 176 689 176 647 c 256
 176 605 143 571 101 571 c 256
 59 571 26 605 26 647 c 256x30
38 534 m 257xa8
 167 534 l 257
 167 0 l 257
 38 0 l 257
 38 534 l 257xa8
EndSplineSet
Validated: 1
Layer: 2
EndChar

StartChar: f
Encoding: 120 102 120
GlifName: f
Width: 304
VWidth: 0
GlyphClass: 2
Flags: W
HStem: 0 21<89 211 89 89> 0 21<89 211 89 89> 400 116<26 89 26 89> 579 117<244 277 244 244>
VStem: 89 122<0 400 0 400 516 552>
LayerCount: 3
Back
Fore
SplineSet
89 552 m 258xb8
 89 597 140 695 243 696 c 258
 304 696 l 257
 277 579 l 257
 244 579 l 257
 216 578 211 555 211 552 c 258
 211 515 l 257
 277 516 l 257
 277 400 l 257
 211 400 l 257
 211 0 l 257
 89 0 l 257
 89 400 l 257
 26 400 l 257
 26 516 l 257
 89 516 l 257
 89 552 l 258xb8
EndSplineSet
Validated: 1
Layer: 2
EndChar

StartChar: fi
Encoding: 121 64257 121
GlifName: fi
Width: 494
VWidth: 0
GlyphClass: 2
Flags: W
HStem: 0 21<89 211 89 89 335 457 335 335> 0 21<89 211 89 89 335 457 335 335> 400 116<26 89 26 89 211 335> 558 145<375 415> 579 117<244 277 244 244>
VStem: 89 122<0 400 0 400 516 552> 322 146<610.5 650> 335 122<0 400 400 400>
LayerCount: 3
Back
Fore
SplineSet
468 630 m 256x36
 468 591 435 558 395 558 c 256
 355 558 322 591 322 630 c 256
 322 670 355 703 395 703 c 256
 435 703 468 670 468 630 c 256x36
89 552 m 258
 89 597 140 695 243 696 c 258
 304 696 l 257
 277 579 l 257
 244 579 l 258
 216 578 211 555 211 552 c 258
 211 516 l 257
 457 516 l 257
 457 0 l 257
 335 0 l 257
 335 400 l 257
 211 400 l 257
 211 0 l 257
 89 0 l 257xad
 89 400 l 257
 26 400 l 257
 26 516 l 257
 89 516 l 257
 89 552 l 258
EndSplineSet
Validated: 1
Layer: 2
Ligature2: "'liga' Standard Ligatures lookup 1-1" f i
EndChar

StartChar: five
Encoding: 122 53 122
GlifName: five
Width: 492
VWidth: 0
GlyphClass: 2
Flags: W
HStem: 0 126<162 204 204 258> 324 123<195.5 204 195.5 258> 573 127<171 171>
VStem: 338 128<199 252>
LayerCount: 3
Back
Fore
SplineSet
409 574 m 257
 171 573 l 257
 159 442 l 257
 172 445 187 447 204 447 c 257
 204 324 l 257
 170 321 148 301 136 286 c 257
 26 354 l 257
 55 700 l 257
 409 700 l 257
 409 574 l 257
258 447 m 257
 401 444 466 333 466 223 c 256
 466 82 363 2 258 0 c 257
 258 126 l 257
 307 135 338 174 338 224 c 256
 338 280 296 319 258 324 c 257
 258 447 l 257
131 175 m 257
 147 144 177 131 204 126 c 257
 204 0 l 257
 120 0 60 46 28 107 c 257
 131 175 l 257
EndSplineSet
Validated: 1
Layer: 2
EndChar

StartChar: fl
Encoding: 123 64258 123
GlifName: fl
Width: 483
VWidth: 0
GlyphClass: 2
Flags: W
HStem: 0 21<89 211 89 89 331 457 331 331> 0 21<89 211 89 89 331 457 331 331> 400 116<26 89 26 89> 579 117<244 331 244 244>
VStem: 89 122<0 400 0 400 516 552> 331 126<0 579 579 579>
LayerCount: 3
Back
Fore
SplineSet
457 0 m 257xbc
 331 0 l 257
 331 579 l 257
 244 579 l 258
 216 578 211 555 211 552 c 258
 211 515 l 257
 277 516 l 257
 277 400 l 257
 211 400 l 257
 211 0 l 257
 89 0 l 257
 89 400 l 257
 26 400 l 257
 26 516 l 257
 89 516 l 257
 89 552 l 258
 89 597 140 695 243 696 c 258
 457 696 l 257
 457 0 l 257xbc
EndSplineSet
Validated: 1
Layer: 2
Ligature2: "'liga' Standard Ligatures lookup 1-1" f l
EndChar

StartChar: florin
Encoding: 124 402 124
GlifName: florin
Width: 382
VWidth: 0
GlyphClass: 2
Flags: W
HStem: -168 105<53 108 53 109 26 108> 400 116<78 141 78 141> 579 117<296 329 296 296>
VStem: 141 122<-36 -30 -30 0 0 7 7 400 516 552>
LayerCount: 3
Back
Fore
SplineSet
141 552 m 258
 141 597 192 695 295 696 c 258
 356 696 l 257
 329 579 l 257
 296 579 l 258
 268 578 263 555 263 552 c 258
 263 515 l 257
 329 516 l 257
 329 400 l 257
 263 400 l 257
 263 7 l 257
 263 0 l 257
 263 -30 l 258
 263 -92 221 -168 109 -168 c 258
 26 -168 l 257
 53 -63 l 257
 108 -63 l 258
 136 -62 141 -39 141 -36 c 258
 141 0 l 257
 141 7 l 257
 141 400 l 257
 78 400 l 257
 78 516 l 257
 141 516 l 257
 141 552 l 258
EndSplineSet
Validated: 1
Layer: 2
EndChar

StartChar: four
Encoding: 125 52 125
GlifName: four
Width: 483
VWidth: 0
GlyphClass: 2
Flags: W
HStem: 0 21<273 403 273 273> 0 21<273 403 273 273> 145 127<170 216 26 26 403 457> 681 20<273 403 403 403>
VStem: 26 190<145 272 145 272> 273 184<145 272 145 701> 273 130<0 145 0 272 272 701>
LayerCount: 3
Back
Fore
SplineSet
216 272 m 257x38
 216 145 l 257
 26 145 l 257
 26 272 l 257
 216 598 l 257
 216 351 l 257
 170 272 l 257
 216 272 l 257x38
457 272 m 257xbc
 457 145 l 257xbc
 403 145 l 257
 403 0 l 257
 273 0 l 257xba
 273 701 l 257xbc
 403 701 l 257
 403 272 l 257xba
 457 272 l 257xbc
EndSplineSet
Validated: 1
Layer: 2
EndChar

StartChar: fraction
Encoding: 126 8260 126
GlifName: fraction
Width: 560
VWidth: 0
GlyphClass: 2
Flags: W
HStem: 682 20<458 534 534 534>
LayerCount: 3
Back
Fore
SplineSet
26 -2 m 257
 458 702 l 257
 534 702 l 257
 109 -2 l 257
 26 -2 l 257
EndSplineSet
Validated: 1
Layer: 2
EndChar

StartChar: g
Encoding: 127 103 127
GlifName: g
Width: 415
VWidth: 0
GlyphClass: 2
Flags: W
HStem: -181 112<54 234 54 236 26 234> -1 113<136.5 192 189 192 189 234 189 231> 403 113<173 192 189 192 231 234 189 231>
VStem: 35 115<139 140 140 375> 231 158<-1 109 109 109 403 516> 272 117<-40 3 3 3 139 374 374 375.5 511 516>
LayerCount: 3
Back
Fore
SplineSet
236 -181 m 257xf4
 26 -181 l 257
 54 -69 l 257
 234 -69 l 257
 265 -68 272 -43 272 -40 c 258
 272 3 l 257xf4
 260 0 248 -1 234 -1 c 258
 231 -1 l 257
 231 109 l 257xf8
 234 109 l 258
 265 110 272 136 272 139 c 258
 272 374 l 258xf4
 272 377 265 403 234 403 c 258
 231 403 l 257
 231 516 l 257xf8
 234 516 l 258
 247 516 261 514 272 511 c 257
 272 516 l 257xf4
 389 516 l 257xf8
 389 -40 l 258
 389 -83 339 -180 236 -181 c 257xf4
189 516 m 258
 192 516 l 257
 192 403 l 257
 189 403 l 258
 157 403 150 378 150 375 c 258
 150 140 l 258
 150 137 158 112 189 112 c 258
 192 112 l 257
 192 -1 l 257
 189 -1 l 258
 84 -1 35 96 35 139 c 258
 35 378 l 257
 36 422 85 516 189 516 c 258
EndSplineSet
Validated: 1
Layer: 2
EndChar

StartChar: germandbls
Encoding: 128 223 128
GlifName: germandbls
Width: 522
VWidth: 0
GlyphClass: 2
Flags: W
HStem: 0 109<26 327 199 327 199 327> 586 119<199.5 242>
VStem: 26 129<0 457 457 457> 191 114<355 364.5 355 408.5> 294 112<507 518 405 519 405 545.5> 379 117<136.5 175.5>
LayerCount: 3
Back
Fore
SplineSet
155 0 m 257xe8
 26 0 l 257
 26 457 l 258
 27 531 16 705 226 705 c 256
 396 705 406 575 406 518 c 258
 406 405 l 257xe8
 342 406 l 257
 308 400 305 368 305 361 c 256
 305 349 310 326 391 299 c 256
 441 282 496 243 496 160 c 256
 496 57 420 0 327 0 c 258
 199 0 l 257
 199 109 l 257
 327 109 l 258
 342 110 379 120 379 153 c 256
 379 198 331 200 276 228 c 256
 228 252 191 287 191 371 c 256xf4
 191 446 244 489 294 507 c 257
 294 519 l 258
 294 572 259 586 225 586 c 256
 174 586 155 554 155 498 c 258
 155 0 l 257xe8
EndSplineSet
Validated: 1
Layer: 2
EndChar

StartChar: grave
Encoding: 129 96 129
GlifName: grave
Width: 263
VWidth: 0
GlyphClass: 2
Flags: W
HStem: 605 152<122 122 122 176 49 213>
VStem: 49 164<605 757>
LayerCount: 3
Back
Fore
SplineSet
122 605 m 257
 49 757 l 257
 176 757 l 257
 213 605 l 257
 122 605 l 257
EndSplineSet
Validated: 1
Layer: 2
EndChar

StartChar: greater
Encoding: 130 62 130
GlifName: greater
Width: 414
VWidth: 0
GlyphClass: 2
Flags: W
LayerCount: 3
Back
Fore
SplineSet
30 500 m 257
 384 322 l 257
 384 258 l 257
 30 79 l 257
 30 206 l 257
 206 292 l 257
 30 370 l 257
 30 500 l 257
EndSplineSet
Validated: 1
Layer: 2
EndChar

StartChar: guillemotleft
Encoding: 131 171 131
GlifName: guillemotleft
Width: 475
VWidth: 0
GlyphClass: 2
Flags: W
LayerCount: 3
Back
Fore
SplineSet
238 477 m 257
 238 352 l 257
 149 292 l 257
 238 224 l 257
 238 102 l 257
 27 259 l 257
 27 321 l 257
 238 477 l 257
449 477 m 257
 449 352 l 257
 360 292 l 257
 449 224 l 257
 449 102 l 257
 238 259 l 257
 238 321 l 257
 449 477 l 257
EndSplineSet
Validated: 1
Layer: 2
EndChar

StartChar: guillemotright
Encoding: 132 187 132
GlifName: guillemotright
Width: 414
VWidth: 0
GlyphClass: 2
Flags: W
LayerCount: 3
Back
Fore
SplineSet
26 477 m 257
 237 321 l 257
 237 259 l 257
 26 102 l 257
 26 224 l 257
 115 292 l 257
 26 352 l 257
 26 477 l 257
237 477 m 257
 448 321 l 257
 448 259 l 257
 237 102 l 257
 237 224 l 257
 326 292 l 257
 237 352 l 257
 237 477 l 257
EndSplineSet
Validated: 1
Layer: 2
EndChar

StartChar: guilsinglleft
Encoding: 133 8249 133
GlifName: guilsinglleft
Width: 338
VWidth: 0
GlyphClass: 2
Flags: W
VStem: 26 286<79 292>
LayerCount: 3
Back
Fore
SplineSet
157 500 m 257
 312 500 l 257
 181 292 l 257
 312 79 l 257
 157 79 l 257
 26 292 l 257
 157 500 l 257
EndSplineSet
Validated: 1
Layer: 2
EndChar

StartChar: guilsinglright
Encoding: 134 8250 134
GlifName: guilsinglright
Width: 338
VWidth: 0
GlyphClass: 2
Flags: W
VStem: 26 286<79 292 292 500>
LayerCount: 3
Back
Fore
SplineSet
181 500 m 257
 312 292 l 257
 181 79 l 257
 26 79 l 257
 157 292 l 257
 26 500 l 257
 181 500 l 257
EndSplineSet
Validated: 1
Layer: 2
EndChar

StartChar: h
Encoding: 135 104 135
GlifName: h
Width: 421
VWidth: 0
GlyphClass: 2
Flags: W
HStem: 1 21<30 145 30 30 281 281 281 395> 1 21<30 145 30 30 281 281 281 395> 399 112<190 193 190 193 190 238 238 241> 678 20<30 144 144 144>
VStem: 30 163<399 511 399 698> 30 115<1 365> 281 114<1 365 365 367>
LayerCount: 3
Back
Fore
SplineSet
145 1 m 257xb6
 30 1 l 257xb6
 30 698 l 257
 144 698 l 257
 144 505 l 257
 147 506 l 258
 159 509 176 511 190 511 c 258
 193 511 l 257
 193 399 l 257xba
 190 399 l 258
 158 396 145 370 145 365 c 258
 145 1 l 257xb6
238 511 m 257
 241 511 l 256
 338 507 395 444 395 374 c 258
 395 1 l 257
 281 1 l 257
 281 365 l 258
 281 369 275 396 241 399 c 258
 238 399 l 257
 238 511 l 257
EndSplineSet
Validated: 1
Layer: 2
EndChar

StartChar: hungarumlaut
Encoding: 136 733 136
GlifName: hungarumlaut
Width: 336
VWidth: 0
GlyphClass: 2
Flags: W
HStem: 605 152<55 109 26 167 55 169 198 252>
VStem: 26 284<605 757>
LayerCount: 3
Back
Fore
SplineSet
109 605 m 257
 26 605 l 257
 55 757 l 257
 167 757 l 257
 109 605 l 257
252 605 m 257
 169 605 l 257
 198 757 l 257
 310 757 l 257
 252 605 l 257
EndSplineSet
Validated: 1
Layer: 2
EndChar

StartChar: hyphen
Encoding: 137 45 137
GlifName: hyphen
Width: 416
VWidth: 0
GlyphClass: 2
Flags: W
LayerCount: 3
Back
Fore
SplineSet
366 357 m 257
 366 230 l 257
 50 230 l 257
 50 357 l 257
 366 357 l 257
EndSplineSet
Validated: 1
Layer: 2
EndChar

StartChar: i
Encoding: 138 105 138
GlifName: i
Width: 199
VWidth: 0
GlyphClass: 2
Flags: W
HStem: 0 21<39 161 39 39> 0 21<39 161 39 39> 496 20<39 161 161 161> 558 145<79 119>
VStem: 26 146<610.5 650> 39 122<0 516>
LayerCount: 3
Back
Fore
SplineSet
172 630 m 256x38
 172 591 139 558 99 558 c 256
 59 558 26 591 26 630 c 256
 26 670 59 703 99 703 c 256
 139 703 172 670 172 630 c 256x38
161 0 m 257xb4
 39 0 l 257
 39 516 l 257
 161 516 l 257
 161 0 l 257xb4
EndSplineSet
Validated: 1
Layer: 2
EndChar

StartChar: iacute
Encoding: 139 237 139
GlifName: iacute
Width: 199
VWidth: 0
GlyphClass: 2
Flags: W
HStem: 0 21<39 161 39 39> 0 21<39 161 39 39> 496 20<39 161 161 161>
VStem: 39 122<0 516>
LayerCount: 3
Back
Fore
SplineSet
161 0 m 257xb0
 39 0 l 257
 39 516 l 257
 161 516 l 257
 161 0 l 257xb0
144 577 m 257
 54 577 l 257
 90 729 l 257
 218 729 l 257
 144 577 l 257
EndSplineSet
Validated: 1
Layer: 2
EndChar

StartChar: idieresis
Encoding: 141 239 141
GlifName: idieresis
Width: 199
VWidth: 0
GlyphClass: 2
Flags: W
HStem: 0 21<39 161 39 39> 0 21<39 161 39 39> 496 20<39 161 161 161> 576 151<-7 35 163 205>
VStem: -61 150<630 672> 39 122<0 516> 109 150<630 672>
LayerCount: 3
Back
Fore
SplineSet
161 0 m 257xb4
 39 0 l 257
 39 516 l 257
 161 516 l 257
 161 0 l 257xb4
109 651 m 256x32
 109 693 142 727 184 727 c 256
 226 727 259 693 259 651 c 256
 259 609 226 576 184 576 c 256
 142 576 109 609 109 651 c 256x32
-61 651 m 256x38
 -61 693 -28 727 14 727 c 256
 56 727 89 693 89 651 c 256
 89 609 56 576 14 576 c 256
 -28 576 -61 609 -61 651 c 256x38
EndSplineSet
Validated: 1
Layer: 2
EndChar

StartChar: igrave
Encoding: 142 236 142
GlifName: igrave
Width: 199
VWidth: 0
GlyphClass: 2
Flags: W
HStem: 0 21<39 161 39 39> 0 21<39 161 39 39> 496 20<39 161 161 161>
VStem: 39 122<0 516>
LayerCount: 3
Back
Fore
SplineSet
161 0 m 257xb0
 39 0 l 257
 39 516 l 257
 161 516 l 257
 161 0 l 257xb0
54 577 m 257
 -20 729 l 257
 108 729 l 257
 144 577 l 257
 54 577 l 257
EndSplineSet
Validated: 1
Layer: 2
EndChar

StartChar: j
Encoding: 143 106 143
GlifName: j
Width: 194
VWidth: 0
GlyphClass: 2
Flags: W
HStem: -181 117<-23 4 -23 7 -50 4> 496 20<37 159 159 159> 556 146<77 117>
VStem: 24 146<608 648> 37 122<-38 516>
LayerCount: 3
Back
Fore
SplineSet
159 -38 m 258xe8
 159 -85 109 -181 7 -181 c 258
 -50 -181 l 257
 -23 -64 l 257
 4 -64 l 257
 32 -63 37 -40 37 -38 c 258
 37 516 l 257
 159 516 l 257
 159 -38 l 258xe8
170 628 m 256xf0
 170 588 137 556 97 556 c 256
 57 556 24 588 24 628 c 256
 24 668 57 702 97 702 c 256
 137 702 170 668 170 628 c 256xf0
EndSplineSet
Validated: 1
Layer: 2
EndChar

StartChar: k
Encoding: 144 107 144
GlifName: k
Width: 452
VWidth: 0
GlyphClass: 2
Flags: W
HStem: 0 21<30 155 30 30 296 428 296 296> 0 21<30 155 30 30 296 428 296 296> 494 20<295 428 428 428> 678 20<30 155 155 155>
VStem: 30 125<0 698>
LayerCount: 3
Back
Fore
SplineSet
155 0 m 257xb8
 30 0 l 257
 30 698 l 257
 155 698 l 257
 155 0 l 257xb8
296 0 m 257
 183 257 l 257
 295 514 l 257
 428 514 l 257
 313 257 l 257
 428 0 l 257
 296 0 l 257
EndSplineSet
Validated: 1
Layer: 2
EndChar

StartChar: l
Encoding: 145 108 145
GlifName: l
Width: 184
VWidth: 0
GlyphClass: 2
Flags: W
HStem: 0 21<30 161 30 30> 0 21<30 161 30 30> 678 20<30 161 161 161>
VStem: 30 131<0 698>
LayerCount: 3
Back
Fore
SplineSet
161 0 m 257xb0
 30 0 l 257
 30 698 l 257
 161 698 l 257
 161 0 l 257xb0
EndSplineSet
Validated: 1
Layer: 2
EndChar

StartChar: less
Encoding: 146 60 146
GlifName: less
Width: 414
VWidth: 0
GlyphClass: 2
Flags: W
LayerCount: 3
Back
Fore
SplineSet
384 500 m 257
 384 370 l 257
 208 292 l 257
 384 206 l 257
 384 79 l 257
 30 258 l 257
 30 322 l 257
 384 500 l 257
EndSplineSet
Validated: 1
Layer: 2
EndChar

StartChar: logicalnot
Encoding: 147 172 147
GlifName: logicalnot
Width: 502
VWidth: 0
GlyphClass: 2
Flags: W
HStem: 327 115<26 358 26 476>
VStem: 358 118<208 327 327 327>
LayerCount: 3
Back
Fore
SplineSet
476 208 m 257
 358 208 l 257
 358 327 l 257
 26 327 l 257
 26 442 l 257
 476 442 l 257
 476 208 l 257
EndSplineSet
Validated: 1
Layer: 2
EndChar

StartChar: lslash
Encoding: 148 322 148
GlifName: lslash
Width: 424
VWidth: 0
GlyphClass: 2
Flags: W
HStem: 0 21 678 20
VStem: 147 131
LayerCount: 3
Back
Fore
SplineSet
326 536 m 257
 398 443 l 257
 98 209 l 257
 26 302 l 257
 326 536 l 257
EndSplineSet
Refer: 145 108 N 1 0 0 1 117 0 2
Validated: 5
Layer: 2
EndChar

StartChar: m
Encoding: 149 109 149
GlifName: m
Width: 684
VWidth: 0
GlyphClass: 2
Flags: W
HStem: 0 21<30 154 30 30 280 404 280 280 530 530 530 654> 0 21<30 154 30 30 280 404 280 280 530 530 530 654> 398 121<174 195 189 195 189 237 237 243 441 447 488 494>
VStem: 30 124<0 372 0 377 0 401> 280 124<0 372 0 373.5> 530 124<0 372 372 373.5>
CounterMasks: 1 1c
LayerCount: 3
Back
Fore
SplineSet
154 372 m 257xbc
 154 0 l 257
 30 0 l 257
 30 377 l 258
 30 425 84 519 189 519 c 258
 195 519 l 257
 195 398 l 257
 189 398 l 258
 159 398 154 374 154 372 c 257xbc
530 372 m 257
 530 375 524 398 494 398 c 258
 488 398 l 257
 488 519 l 257
 494 519 l 258
 600 519 654 422 654 377 c 258
 654 0 l 257
 530 0 l 257
 530 372 l 257
280 0 m 257
 280 372 l 258
 280 375 273 398 243 398 c 258
 237 398 l 257
 237 519 l 257
 243 519 l 258
 285 519 317 505 342 486 c 257
 367 506 399 519 441 519 c 258
 447 519 l 257
 447 398 l 257
 441 398 l 258
 410 398 404 374 404 372 c 257
 404 0 l 257
 280 0 l 257
EndSplineSet
Validated: 1
Layer: 2
EndChar

StartChar: mu
Encoding: 152 181 152
GlifName: mu
Width: 468
VWidth: 0
GlyphClass: 2
Flags: W
HStem: 0 21<26 150 26 26> 0 21<26 150 26 26> 179 121<180.5 192 187 192 187 234 234 239> 678 20<26 150 150 150 276 276 400 400> 680 20<276 400 400 400>
VStem: 26 166<179 300 179 321 179 356 179 698> 26 124<0 183 0 321 324.5 326 326 356 356 698> 276 124<326.5 328 328 698 698 700>
LayerCount: 3
Back
Fore
SplineSet
26 698 m 257xb5
 150 698 l 257
 150 356 l 257
 150 326 l 258xb3
 150 323 156 300 187 300 c 258
 192 300 l 257
 192 179 l 257xb5
 187 179 l 258
 174 179 162 180 150 183 c 257
 150 0 l 257
 26 0 l 257xb3
 26 321 l 257
 26 356 l 257
 26 698 l 257xb5
276 700 m 257x29
 400 700 l 257x29
 400 698 l 257
 400 328 l 258
 400 325 406 302 437 302 c 258
 442 302 l 257
 442 181 l 257
 437 181 l 258
 397 181 364 194 339 213 c 257
 313 193 280 179 239 179 c 258
 234 179 l 257
 234 300 l 257
 239 300 l 258
 270 300 276 324 276 326 c 258
 276 698 l 257x31
 276 700 l 257x29
EndSplineSet
Validated: 1
Layer: 2
EndChar

StartChar: multiply
Encoding: 153 215 153
GlifName: multiply
Width: 697
VWidth: 0
GlyphClass: 2
Flags: W
LayerCount: 3
Back
Fore
SplineSet
260 417 m 257
 100 578 l 257
 189 667 l 257
 349 507 l 257
 508 666 l 257
 597 577 l 257
 438 418 l 257
 597 259 l 257
 507 170 l 257
 349 328 l 257
 190 168 l 257
 101 257 l 257
 260 417 l 257
EndSplineSet
Validated: 1
Layer: 2
EndChar

StartChar: n
Encoding: 154 110 154
GlifName: n
Width: 434
VWidth: 0
GlyphClass: 2
Flags: W
HStem: 0 21<30 154 30 30 280 404 280 280> 0 21<30 154 30 30 280 404 280 280> 398 121<175.5 196 191 196 238 243 191 238>
VStem: 30 124<0 372 0 377 0 401> 280 124<0 372 372 373.5>
LayerCount: 3
Back
Fore
SplineSet
280 372 m 257xb8
 280 375 273 398 243 398 c 258
 238 398 l 257
 238 519 l 257
 243 519 l 258
 350 519 404 422 404 377 c 258
 404 0 l 257
 280 0 l 257
 280 372 l 257xb8
154 372 m 257
 154 0 l 257
 30 0 l 257
 30 377 l 258
 30 425 84 519 191 519 c 258
 196 519 l 257
 196 398 l 257
 191 398 l 258
 160 398 154 374 154 372 c 257
EndSplineSet
Validated: 1
Layer: 2
EndChar

StartChar: nine
Encoding: 155 57 155
GlifName: nine
Width: 504
VWidth: 0
GlyphClass: 2
Flags: W
HStem: 1 126<179 218> 274 118<156 273 272 273 272 287> 576 124<218 218>
VStem: 26 119<450 515.5 450 547.5> 349 129<282.5 300>
LayerCount: 3
Back
Fore
SplineSet
218 274 m 257
 94 274 26 359 26 485 c 256
 26 610 117 699 218 700 c 257
 218 576 l 257
 183 572 145 540 145 491 c 256
 145 409 198 395 217 390 c 257
 218 274 l 257
142 178 m 257
 164 150 175 132 218 127 c 257
 218 1 l 257
 140 1 76 51 43 115 c 257
 142 178 l 257
272 2 m 257
 272 127 l 257
 344 142 349 248 349 300 c 257
 330 285 302 274 272 274 c 257
 272 392 l 257
 273 392 l 256
 293 397 340 413 340 490 c 256
 340 529 310 571 272 575 c 257
 272 700 l 257
 447 700 478 513 478 341 c 256
 478 224 444 6 272 2 c 257
EndSplineSet
Validated: 1
Layer: 2
EndChar

StartChar: numbersign
Encoding: 157 35 157
GlifName: numbersign
Width: 888
VWidth: 0
GlyphClass: 2
Flags: W
HStem: 176 121<126 241 101 263 126 362 126 383 126 467> 404 121<157 281 135 303 157 402 157 507>
LayerCount: 3
Back
Fore
SplineSet
335 22 m 257
 214 22 l 257
 241 176 l 257
 101 176 l 257
 126 297 l 257
 263 297 l 257
 281 404 l 257
 135 404 l 257
 157 525 l 257
 303 525 l 257
 330 682 l 257
 451 682 l 257
 423 524 l 257
 529 524 l 257
 556 682 l 257
 677 682 l 257
 649 524 l 257
 787 524 l 257
 768 403 l 257
 628 404 l 257
 609 296 l 257
 752 296 l 257
 734 175 l 257
 588 176 l 257
 561 22 l 257
 441 22 l 257
 467 176 l 257
 362 176 l 257
 335 22 l 257
507 404 m 257
 402 404 l 257
 383 297 l 257
 489 296 l 257
 507 404 l 257
EndSplineSet
Validated: 1
Layer: 2
EndChar

StartChar: o
Encoding: 158 111 158
GlifName: o
Width: 420
VWidth: 0
GlyphClass: 2
Flags: W
HStem: -1 118<132 192 186 192 186 233 233 239> 398 118<169.5 192 186 192 233 239 186 233>
VStem: 28 120<144.5 154 154 363> 275 117<152 363 363 371.5>
LayerCount: 3
Back
Fore
SplineSet
28 376 m 258
 28 421 79 516 186 516 c 258
 192 516 l 257
 192 398 l 257
 186 398 l 258
 153 398 148 373 148 363 c 257
 148 154 l 257
 148 135 156 117 186 117 c 258
 192 117 l 257
 192 -1 l 257
 186 -1 l 258
 78 -1 28 97 28 141 c 258
 28 376 l 258
233 398 m 257
 233 516 l 257
 239 516 l 258
 342 516 392 421 392 376 c 258
 392 141 l 258
 392 96 343 -1 239 -1 c 258
 233 -1 l 257
 233 117 l 257
 239 117 l 258
 270 118 275 141 275 152 c 257
 275 363 l 257
 275 380 269 398 239 398 c 258
 233 398 l 257
EndSplineSet
Validated: 1
Layer: 2
EndChar

StartChar: oe
Encoding: 162 339 162
GlifName: oe
Width: 671
VWidth: 0
GlyphClass: 2
Flags: W
HStem: -1 114<130 190 184 190 231 237 184 231> 208 116<395 530 395 644 395 530> 398 118<167.5 190 184 190 231 237 184 231>
VStem: 26 120<141 142 142 373> 273 122<140 141 141 208 324 369> 530 114<324 369 369 378>
LayerCount: 3
Back
Fore
SplineSet
487 402 m 258
 483 402 l 257
 483 516 l 257
 489 516 l 258
 559 516 644 450 644 378 c 258
 644 208 l 257
 395 208 l 257
 395 141 l 258
 395 138 402 109 430 108 c 258
 489 108 l 258
 519 108 541 132 545 153 c 258
 546 157 l 257
 645 120 l 257
 644 118 l 257
 629 54 559 0 489 0 c 258
 430 0 l 258
 390 0 359 14 334 34 c 257
 310 14 277 -1 237 -1 c 258
 231 -1 l 257
 231 113 l 257
 237 113 l 258
 268 114 273 138 273 140 c 258
 273 372 l 258
 273 375 267 398 237 398 c 258
 231 398 l 257
 231 516 l 257
 237 516 l 258
 277 516 309 502 333 482 c 257
 358 502 390 516 429 516 c 258
 434 516 l 257
 434 400 l 257
 431 400 l 258
 402 400 395 380 395 369 c 258
 395 324 l 257
 530 324 l 257
 530 369 l 258
 530 396 507 402 487 402 c 258
26 376 m 258
 26 421 77 516 184 516 c 258
 190 516 l 257
 190 398 l 257
 184 398 l 258
 151 398 146 374 146 373 c 258
 146 142 l 258
 146 139 154 113 184 113 c 258
 190 113 l 257
 190 -1 l 257
 184 -1 l 258
 76 -1 26 97 26 141 c 258
 26 376 l 258
EndSplineSet
Validated: 1
Layer: 2
EndChar

StartChar: one
Encoding: 164 49 164
GlifName: one
Width: 266
VWidth: 0
GlyphClass: 2
Flags: W
HStem: 0 21<106 236 106 106> 0 21<106 236 106 106> 679 20<106 236 236 236> 679 20<106 236 236 236>
VStem: 30 206<439 640 640 640> 106 130<0 499 499 499 0 699>
LayerCount: 3
Back
Fore
SplineSet
106 499 m 257xa4
 30 439 l 257
 30 640 l 257xa8
 106 699 l 257
 236 699 l 257
 236 0 l 257
 106 0 l 257
 106 499 l 257xa4
EndSplineSet
Validated: 1
Layer: 2
Substitution2: "'ordn' Ordinals lookup 1-1" one.ordn
EndChar

StartChar: onehalf
Encoding: 165 189 165
GlifName: onehalf
Width: 581
VWidth: 0
GlyphClass: 2
Flags: W
HStem: -1 66<346 551 346 551> 288 66<422 424 422 424 448 449 424 448> 682 20<114 182 182 182 458 534 534 534>
VStem: 76 106<567 671 671 671> 114 68<349 597 597 597 349 702> 490 64<235.5 251 224 263>
LayerCount: 3
Back
Fore
SplineSet
422 288 m 258xe4
 420 287 400 278 400 250 c 258
 400 248 l 257
 337 261 l 257
 338 263 l 257
 343 306 374 347 422 353 c 257
 424 354 l 257
 424 290 l 257
 424 288 l 257
 422 288 l 258xe4
26 -2 m 257
 458 702 l 257
 534 702 l 257
 109 -2 l 257
 26 -2 l 257
551 65 m 257
 551 -1 l 257
 346 -1 l 257
 346 65 l 257
 551 65 l 257
448 288 m 257
 448 354 l 257
 453 354 l 258
 531 354 553 290 554 251 c 256
 554 197 529 180 499 159 c 256
 464 134 445 119 428 93 c 257
 427 92 l 257
 348 92 l 257
 349 94 l 258
 379 156 429 184 444 196 c 256
 467 215 490 220 490 251 c 256
 490 275 476 287 449 288 c 258
 448 288 l 257
114 597 m 257xec
 76 567 l 257
 76 671 l 257xf4
 114 702 l 257
 182 702 l 257
 182 349 l 257
 114 349 l 257
 114 597 l 257xec
EndSplineSet
Validated: 1
Layer: 2
EndChar

StartChar: onequarter
Encoding: 166 188 166
GlifName: onequarter
Width: 560
VWidth: 0
GlyphClass: 2
Flags: W
HStem: -1 21<393 461 393 393> -1 21<393 461 393 393> 71 66<346 368 270 270 461 488> 682 20<114 181 181 181 458 534 534 534>
VStem: 75 106<567 671 671 671> 113 68<349 597 597 597> 270 98<71 137 71 137> 393 95<71 137 71 352> 393 68<-1 71 -1 137 137 352>
LayerCount: 3
Back
Fore
SplineSet
113 597 m 257x36
 75 567 l 257
 75 671 l 257x3a
 114 702 l 257
 181 702 l 257
 181 349 l 257
 113 349 l 257
 113 597 l 257x36
488 137 m 257xb3
 488 71 l 257xb3
 461 71 l 257
 461 -1 l 257
 393 -1 l 257xb280
 393 352 l 257xb3
 461 352 l 257
 461 137 l 257xb280
 488 137 l 257xb3
368 137 m 257
 368 71 l 257
 270 71 l 257
 270 137 l 257
 368 305 l 257
 368 175 l 257
 346 137 l 257
 368 137 l 257
26 -2 m 257
 458 702 l 257
 534 702 l 257
 109 -2 l 257
 26 -2 l 257
EndSplineSet
Validated: 1
Layer: 2
EndChar

StartChar: ordfeminine
Encoding: 167 170 167
GlifName: ordfeminine
Width: 227
VWidth: 0
GlyphClass: 2
Flags: W
LayerCount: 3
Back
Fore
SplineSet
26 430 m 257
 201 430 l 257
 201 362 l 257
 26 362 l 257
 26 430 l 257
96 649 m 258
 87 648 80 643 80 627 c 258
 80 623 l 257
 31 642 l 257
 31 644 l 258
 31 676 65 701 96 701 c 258
 99 701 l 257
 99 649 l 257
 96 649 l 258
116 701 m 257
 119 701 l 258
 165 701 188 659 188 639 c 258
 188 535 l 258
 188 533 189 523 197 523 c 258
 200 523 l 257
 200 471 l 257
 197 471 l 258
 181 471 168 476 159 483 c 257
 148 475 136 471 120 471 c 258
 117 471 l 257
 117 523 l 257
 120 523 l 258
 132 523 134 536 134 537 c 258
 134 569 l 257
 115 559 85 554 79 551 c 256
 77 550 75 547 75 543 c 258
 75 537 l 258
 75 529 78 523 89 523 c 258
 99 523 l 257
 99 471 l 257
 97 471 l 258
 54 471 28 494 28 520 c 258
 28 551 l 258
 28 566 31 575 50 586 c 256
 70 598 134 610 134 626 c 258
 134 631 l 258
 134 641 133 648 119 649 c 258
 116 650 l 257
 116 701 l 257
EndSplineSet
Validated: 1
Layer: 2
EndChar

StartChar: ordmasculine
Encoding: 168 186 168
GlifName: ordmasculine
Width: 230
VWidth: 0
GlyphClass: 2
Flags: W
HStem: 361 71<26 204 26 204> 470 55<78.5 108 103 108 103 127 103 123> 645 55<96.5 108 103 108 103 123 123 127>
VStem: 32 56<533.5 534 534 635> 141 55<533 635 635 635.5>
LayerCount: 3
Back
Fore
SplineSet
26 432 m 257
 204 432 l 257
 204 361 l 257
 26 361 l 257
 26 432 l 257
123 645 m 257
 123 700 l 257
 127 700 l 258
 173 700 196 658 196 637 c 258
 196 533 l 258
 196 513 174 470 127 470 c 258
 123 470 l 257
 123 523 l 257
 127 523 l 258
 139 523 141 532 141 533 c 258
 141 635 l 258
 141 636 139 645 127 645 c 258
 123 645 l 257
32 637 m 258
 32 658 55 700 103 700 c 258
 108 700 l 257
 108 645 l 257
 103 645 l 258
 90 645 88 636 88 635 c 258
 88 534 l 258
 88 533 91 525 103 525 c 258
 108 525 l 257
 108 470 l 257
 103 470 l 258
 54 470 32 513 32 533 c 258
 32 637 l 258
EndSplineSet
Validated: 1
Layer: 2
EndChar

StartChar: oslash
Encoding: 169 248 169
GlifName: oslash
Width: 498
VWidth: 0
GlyphClass: 2
Flags: W
HStem: -1 118<195 231 225 231 272 278 225 272> 398 118<208.5 231 225 231 225 272 272 278>
VStem: 67 120<253 363 253 376 253 398.5> 314 117<152 261 261 261>
LayerCount: 3
Back
Fore
SplineSet
445 490 m 257
 498 430 l 257
 431 369 l 257
 431 141 l 258
 431 96 382 -1 278 -1 c 258
 272 -1 l 257
 272 117 l 257
 278 117 l 258
 309 118 314 141 314 152 c 258
 314 261 l 257
 188 145 l 257
 190 130 200 117 225 117 c 258
 231 117 l 257
 231 -1 l 257
 225 -1 l 258
 165 -1 123 29 98 63 c 257
 53 22 l 257
 0 82 l 257
 67 143 l 257
 67 376 l 258
 67 421 118 516 225 516 c 258
 231 516 l 257
 231 398 l 257
 225 398 l 258
 192 398 187 373 187 363 c 258
 187 253 l 257
 314 370 l 257
 312 384 304 398 278 398 c 258
 272 398 l 257
 272 516 l 257
 278 516 l 258
 336 516 378 486 402 451 c 257
 445 490 l 257
EndSplineSet
Validated: 1
Layer: 2
EndChar

StartChar: p
Encoding: 171 112 171
GlifName: p
Width: 422
VWidth: 0
GlyphClass: 2
Flags: W
HStem: 0 118<203 232 203 234> 398 118<196 228 30 196>
VStem: 30 125<-182 516 -182 516> 276 120<143 372 372 375>
LayerCount: 3
Back
Fore
SplineSet
232 0 m 258
 203 0 l 257
 203 118 l 257
 234 118 l 257
 271 119 276 134 276 143 c 258
 276 372 l 257
 276 385 258 398 228 398 c 258
 196 398 l 257
 196 516 l 257
 228 516 l 258
 335 516 396 431 396 375 c 258
 396 139 l 257
 396 86 345 0 232 0 c 258
30 516 m 257
 155 516 l 257
 155 -182 l 257
 30 -182 l 257
 30 516 l 257
EndSplineSet
Validated: 1
Layer: 2
EndChar

StartChar: paragraph
Encoding: 172 182 172
GlifName: paragraph
Width: 444
VWidth: 0
GlyphClass: 2
Flags: W
LayerCount: 3
Back
Fore
SplineSet
278 705 m 257
 278 -5 l 257
 195 -5 l 257
 195 329 l 257
 91 329 26 403 26 517 c 256
 26 617 93 705 195 705 c 256
 223 705 250 705 278 705 c 257
418 705 m 257
 418 -5 l 257
 335 -5 l 257
 335 705 l 257
 418 705 l 257
EndSplineSet
Validated: 1
Layer: 2
EndChar

StartChar: parenleft
Encoding: 173 40 173
GlifName: parenleft
Width: 262
VWidth: 0
GlyphClass: 2
Flags: W
LayerCount: 3
Back
Fore
SplineSet
212 735 m 257
 213 648 l 257
 174 625 154 593 153 521 c 258
 153 208 l 258
 153 206 153 204 153 202 c 256
 153 104 178 73 213 51 c 257
 213 -37 l 257
 71 22 50 93 50 189 c 257
 50 510 l 257
 50 652 113 696 212 735 c 257
EndSplineSet
Validated: 1
Layer: 2
EndChar

StartChar: parenright
Encoding: 174 41 174
GlifName: parenright
Width: 330
VWidth: 0
GlyphClass: 2
Flags: W
VStem: 161 119<202 208 208 510>
LayerCount: 3
Back
Fore
SplineSet
101 746 m 257
 209 706 280 650 280 510 c 257
 280 189 l 257
 280 93 243 9 101 -47 c 257
 101 51 l 257
 136 73 161 104 161 202 c 256
 161 204 161 206 161 208 c 258
 161 521 l 258
 160 593 139 626 100 649 c 257
 101 746 l 257
EndSplineSet
Validated: 1
Layer: 2
EndChar

StartChar: period
Encoding: 175 46 175
GlifName: period
Width: 250
VWidth: 0
GlyphClass: 2
Flags: W
LayerCount: 3
Back
Fore
SplineSet
50 53 m 256
 50 95 83 129 125 129 c 256
 167 129 200 95 200 53 c 256
 200 11 167 -22 125 -22 c 256
 83 -22 50 11 50 53 c 256
EndSplineSet
Validated: 1
Layer: 2
EndChar

StartChar: perthousand
Encoding: 177 8240 177
GlifName: perthousand
Width: 897
VWidth: 0
GlyphClass: 2
Flags: W
HStem: 0 65<487 489 488 489 488 489 488 517 517 518 488 519 746 747 775 776> 287 65<488 490 488 490 516 518 488 516 746 748 774 776> 680 20<497 570 570 570>
VStem: 26 68<499 522 522 551 499 592> 178 68<522 551 551 567> 393 68<148 171 171 201 148 242> 546 68<171 201 201 217> 651 68<148 171 171 201 148 242> 804 68<171 201 201 217>
LayerCount: 3
Back
Fore
SplineSet
67 0 m 257
 497 700 l 257
 570 700 l 257
 147 0 l 257
 67 0 l 257
151 702 m 257
 197 699 246 657 246 528 c 256
 246 378 186 353 152 351 c 257
 150 350 l 257
 150 415 l 257
 151 415 l 257
 177 421 178 476 178 522 c 258
 178 551 l 258
 178 583 176 631 151 637 c 257
 150 637 l 257
 150 703 l 257
 151 702 l 257
122 703 m 257
 122 637 l 257
 121 637 l 257
 96 631 94 583 94 551 c 258
 94 522 l 258
 94 476 95 421 121 415 c 257
 122 415 l 257
 122 350 l 257
 120 351 l 257
 86 353 26 378 26 528 c 256
 26 656 75 699 121 702 c 257
 122 703 l 257
518 352 m 258
 564 349 614 307 614 178 c 256
 614 28 553 2 519 0 c 258
 517 0 l 257
 517 65 l 257
 518 65 l 257
 544 71 546 125 546 171 c 258
 546 201 l 258
 546 233 543 281 518 287 c 257
 516 287 l 257
 516 352 l 257
 518 352 l 258
490 352 m 257
 490 287 l 257
 488 287 l 257
 463 281 461 233 461 201 c 258
 461 171 l 258
 461 125 462 71 488 65 c 257
 489 65 l 257
 489 0 l 257
 487 0 l 258
 453 2 393 28 393 178 c 256
 393 306 442 349 488 352 c 258
 490 352 l 257
776 352 m 258
 822 349 872 307 872 178 c 256
 872 28 811 2 777 0 c 258
 775 0 l 257
 775 65 l 257
 776 65 l 257
 802 71 804 125 804 171 c 258
 804 201 l 258
 804 233 801 281 776 287 c 257
 774 287 l 257
 774 352 l 257
 776 352 l 258
748 352 m 257
 748 287 l 257
 746 287 l 257
 721 281 719 233 719 201 c 258
 719 171 l 258
 719 125 720 71 746 65 c 257
 747 65 l 257
 747 0 l 257
 745 0 l 258
 711 2 651 28 651 178 c 256
 651 306 700 349 746 352 c 258
 748 352 l 257
EndSplineSet
Validated: 1
Layer: 2
EndChar

StartChar: plus
Encoding: 178 43 178
GlifName: plus
Width: 475
VWidth: 0
GlyphClass: 2
Flags: W
LayerCount: 3
Back
Fore
SplineSet
425 357 m 257
 425 230 l 257
 300 230 l 257
 300 87 l 257
 173 87 l 257
 173 230 l 257
 50 230 l 257
 50 357 l 257
 173 357 l 257
 173 498 l 257
 300 498 l 257
 300 357 l 257
 425 357 l 257
EndSplineSet
Validated: 1
Layer: 2
EndChar

StartChar: plusminus
Encoding: 179 177 179
GlifName: plusminus
Width: 575
VWidth: 0
GlyphClass: 2
Flags: W
HStem: 40 127<100 476 100 476> 391 127
VStem: 223 127
LayerCount: 3
Back
Fore
SplineSet
476 167 m 257
 476 40 l 257
 100 40 l 257
 100 167 l 257
 476 167 l 257
EndSplineSet
Refer: 178 43 N 1 0 0 1 0 161 2
Validated: 1
Layer: 2
EndChar

StartChar: q
Encoding: 180 113 180
GlifName: q
Width: 416
VWidth: 0
GlyphClass: 2
Flags: W
HStem: 0 118<188 190 190 219> 398 118<167 214 183 214>
VStem: 26 120<142 143 143 373> 262 124<-182 -182>
LayerCount: 3
Back
Fore
SplineSet
146 143 m 258
 146 141 150 119 188 118 c 258
 219 118 l 257
 219 0 l 257
 190 0 l 258
 77 0 27 93 26 139 c 257
 26 375 l 258
 26 420 76 516 183 516 c 258
 214 516 l 257
 214 398 l 257
 183 398 l 258
 151 398 146 375 146 373 c 257
 146 143 l 258
385 516 m 257
 386 -182 l 257
 262 -182 l 257
 261 516 l 257
 385 516 l 257
EndSplineSet
Validated: 1
Layer: 2
EndChar

StartChar: question
Encoding: 181 63 181
GlifName: question
Width: 460
VWidth: 0
GlyphClass: 2
Flags: W
HStem: -22 151<176 218> 166 220<134 263 134 134> 575 128<188.5 233.5>
VStem: 122 151<32 74> 134 129<166 276 166 386 166 386> 302 128<446.5 482.5 482.5 491 385 519>
LayerCount: 3
Back
Fore
SplineSet
122 53 m 256xf4
 122 95 155 129 197 129 c 256
 239 129 273 95 273 53 c 256
 273 11 239 -22 197 -22 c 256
 155 -22 122 11 122 53 c 256xf4
112 526 m 257
 30 611 l 257
 60 649 110 703 218 703 c 256
 346 703 426 620 430 491 c 256
 430 488 430 484 430 481 c 256
 430 289 263 276 263 276 c 257
 263 166 l 257
 134 166 l 257
 134 386 l 257xec
 251 388 302 400 302 493 c 256
 302 545 257 575 210 575 c 256
 167 575 133 554 112 526 c 257
EndSplineSet
Validated: 1
Layer: 2
EndChar

StartChar: questiondown
Encoding: 182 191 182
GlifName: questiondown
Width: 460
VWidth: 0
GlyphClass: 2
Flags: W
HStem: -14 128<188.5 233.5 188.5 283.5> 303 220<134 263> 560 151<176 218>
VStem: 122 151<615 657> 134 129<413 523 413 523 413 523> 302 128<170 242.5>
LayerCount: 3
Back
Fore
SplineSet
112 163 m 257xec
 133 135 167 114 210 114 c 256
 257 114 302 144 302 196 c 256
 302 289 251 301 134 303 c 257
 134 523 l 257
 263 523 l 257
 263 413 l 257
 263 413 430 400 430 208 c 256
 430 72 349 -14 218 -14 c 256
 110 -14 60 40 30 78 c 257
 112 163 l 257xec
122 636 m 256xf4
 122 678 155 711 197 711 c 256
 239 711 273 678 273 636 c 256
 273 594 239 560 197 560 c 256
 155 560 122 594 122 636 c 256xf4
EndSplineSet
Validated: 1
Layer: 2
EndChar

StartChar: quotedbl
Encoding: 183 34 183
GlifName: quotedbl
Width: 407
VWidth: 0
GlyphClass: 2
Flags: W
LayerCount: 3
Back
Fore
SplineSet
177 465 m 257
 50 465 l 257
 50 736 l 257
 177 736 l 257
 177 465 l 257
357 465 m 257
 230 465 l 257
 230 736 l 257
 357 736 l 257
 357 465 l 257
EndSplineSet
Validated: 1
Layer: 2
EndChar

StartChar: quotedbl.alt
Encoding: 184 -1 184
GlifName: quotedbl.alt
Width: 359
VWidth: 0
GlyphClass: 2
Flags: W
HStem: 476 224<26 153 26 153 26 206 206 333>
VStem: 26 127<476 700> 206 127<476 700>
LayerCount: 3
Back
SplineSet
153 476 m 257
 26 476 l 257
 26 700 l 257
 153 700 l 257
 153 476 l 257
333 476 m 257
 206 476 l 257
 206 700 l 257
 333 700 l 257
 333 476 l 257
EndSplineSet
Validated: 1
Fore
Layer: 2
EndChar

StartChar: quotesingle
Encoding: 191 39 191
GlifName: quotesingle
Width: 227
VWidth: 0
GlyphClass: 2
Flags: W
LayerCount: 3
Back
Fore
SplineSet
177 465 m 257
 50 465 l 257
 50 736 l 257
 177 736 l 257
 177 465 l 257
EndSplineSet
Validated: 1
Layer: 2
EndChar

StartChar: r
Encoding: 192 114 192
GlifName: r
Width: 316
VWidth: 0
GlyphClass: 2
Flags: W
HStem: 0 21<36 160 36 36> 0 21<36 160 36 36> 395 121<289 289>
VStem: 36 124<0 271 454 516>
LayerCount: 3
Back
Fore
SplineSet
36 516 m 257xb0
 160 516 l 257
 160 454 l 257
 181 481 229 516 284 516 c 258
 317 516 l 257
 289 395 l 257
 222 394 160 331 160 271 c 258
 160 0 l 257
 36 0 l 257
 36 516 l 257xb0
EndSplineSet
Validated: 1
Layer: 2
EndChar

StartChar: registered
Encoding: 193 174 193
GlifName: registered
Width: 404
VWidth: 0
GlyphClass: 2
Flags: W
HStem: 354 42<191 192 191 211> 511 36<206 210 210 216> 591 37<206 210 206 227> 662 41<193 195 193 195 193 240.5>
VStem: 30 40<523 567.5 526 567.5 526 587> 151 39<430 627 430 627> 234 36<562.5 575> 334 40<525 527 526.5 528 473 567.5>
LayerCount: 3
Back
Fore
SplineSet
191 396 m 257
 192 354 l 257
 111 355 30 432 30 523 c 256
 30 524 30 524 30 525 c 256
 30 649 133 703 193 703 c 256
 194 703 194 703 195 703 c 257
 195 662 l 257
 136 662 70 609 70 526 c 256
 71 457 126 399 191 396 c 257
211 396 m 257
 276 399 332 456 334 525 c 256
 334 526 334 526 334 527 c 256
 334 608 270 662 211 662 c 257
 211 703 l 257
 277 702 374 641 374 528 c 256
 374 526 374 525 374 523 c 256
 374 423 288 357 211 354 c 257
 211 396 l 257
206 547 m 257
 210 547 l 258
 227 547 234 557 234 568 c 256
 234 582 224 591 210 591 c 258
 206 591 l 257
 206 628 l 257
 248 628 270 604 270 570 c 256
 270 551 264 538 251 530 c 257
 261 522 269 506 270 492 c 258
 270 431 l 257
 235 431 l 257
 235 481 l 258
 235 504 226 511 206 511 c 257
 206 547 l 257
151 627 m 257
 190 627 l 257
 190 430 l 257
 151 430 l 257
 151 627 l 257
EndSplineSet
Validated: 1
Layer: 2
EndChar

StartChar: ring
Encoding: 194 730 194
GlifName: ring
Width: 244
VWidth: 0
GlyphClass: 2
Flags: W
HStem: 430 64<113 131 113 148.5> 558 64<113 131>
VStem: 26 64<517 535 517 552.5> 154 64<517 535>
LayerCount: 3
Back
Fore
SplineSet
90 526 m 256
 90 508 104 494 122 494 c 256
 140 494 154 508 154 526 c 256
 154 544 140 558 122 558 c 256
 104 558 90 544 90 526 c 256
26 526 m 256
 26 579 69 622 122 622 c 256
 175 622 218 579 218 526 c 256
 218 473 175 430 122 430 c 256
 69 430 26 473 26 526 c 256
EndSplineSet
Validated: 1
Layer: 2
EndChar

StartChar: s
Encoding: 195 115 195
GlifName: s
Width: 418
VWidth: 0
GlyphClass: 2
Flags: W
HStem: 404 113<224 226 179 223>
VStem: 26 112<353 369.5 353 422> 280 117<136.5 175.5>
LayerCount: 3
Back
Fore
SplineSet
22 134 m 256
 21 136 l 257
 133 157 l 257
 133 154 l 258
 135 135 157 113 181 111 c 256
 184 110 l 257
 184 -5 l 257
 181 -5 l 258
 87 -5 25 70 22 134 c 256
388 376 m 258
 388 374 l 257
 276 355 l 257
 276 358 l 256
 272 399 234 404 226 404 c 258
 223 404 l 257
 224 517 l 257
 227 517 l 258
 321 517 388 440 388 376 c 258
182 406 m 257
 180 406 l 256
 140 402 138 377 138 362 c 256
 138 344 153 323 294 296 c 256
 346 286 397 243 397 160 c 256
 397 57 321 -5 228 -5 c 258
 225 -5 l 257
 225 109 l 257
 228 109 l 258
 243 110 280 120 280 153 c 256
 280 198 168 206 111 232 c 256
 62 256 26 287 26 371 c 256
 26 473 125 517 179 517 c 258
 182 517 l 257
 182 406 l 257
EndSplineSet
Validated: 1
Layer: 2
EndChar

StartChar: section
Encoding: 197 167 197
GlifName: section
Width: 547
VWidth: 0
GlyphClass: 2
Flags: W
HStem: -136 132<170 274 274 282 170 274> 627 132<265 273 273 377>
VStem: 26 141<335.5 368.5 335.5 382> 88 131<565.5 591 565.5 640.5> 328 131<32 57.5> 380 141<254.5 288>
LayerCount: 3
Back
Fore
SplineSet
363 223 m 257xc8
 373 231 380 243 380 266 c 256
 380 310 343 333 300 351 c 257
 300 498 l 257
 331 485 365 473 393 457 c 256
 454 421 521 374 521 272 c 256xc4
 521 210 493 158 449 124 c 257
 456 104 459 80 459 52 c 256
 459 -87 350 -136 282 -136 c 258
 170 -136 l 257
 170 -4 l 257
 274 -4 l 258
 307 -4 328 17 328 47 c 256
 328 68 317 84 300 97 c 257
 300 252 l 257
 313 247 325 242 336 237 c 256
 345 232 354 228 363 223 c 257xc8
265 759 m 258
 377 759 l 257
 377 627 l 257
 273 627 l 258
 240 627 219 606 219 576 c 256xd0
 219 555 230 540 246 527 c 257
 246 372 l 257
 233 377 221 381 211 386 c 256
 202 391 193 395 184 400 c 257
 174 392 167 380 167 357 c 256
 167 314 204 290 246 272 c 257
 246 125 l 257
 215 138 181 150 154 166 c 256
 93 202 26 249 26 351 c 256xe0
 26 413 54 465 98 499 c 257
 91 519 88 543 88 571 c 256xd0
 88 710 197 759 265 759 c 258
EndSplineSet
Validated: 1
Layer: 2
EndChar

StartChar: semicolon
Encoding: 198 59 198
GlifName: semicolon
Width: 291
VWidth: 0
GlyphClass: 2
Flags: W
HStem: -23 152<87 177 50 214> 285 151<145 187>
VStem: 91 150<339 381>
LayerCount: 3
Back
Fore
SplineSet
91 360 m 256
 91 402 124 436 166 436 c 256
 208 436 241 402 241 360 c 256
 241 318 208 285 166 285 c 256
 124 285 91 318 91 360 c 256
177 -23 m 257
 50 -23 l 257
 87 129 l 257
 214 129 l 257
 177 -23 l 257
EndSplineSet
Validated: 1
Layer: 2
EndChar

StartChar: seven
Encoding: 199 55 199
GlifName: seven
Width: 435
VWidth: 0
GlyphClass: 2
Flags: W
HStem: 0 21<136 273 136 136> 0 21<136 273 136 136> 510 188<236 371 236 236> 572 126<20 260 20 409>
LayerCount: 3
Back
Fore
SplineSet
20 698 m 257x10
 409 698 l 257x10
 409 573 l 257
 397 562 378 529 371 510 c 257
 236 510 l 257x20
 260 572 l 257
 20 572 l 257
 20 698 l 257x10
223 450 m 257
 356 450 l 257
 317 300 289 154 273 0 c 257
 136 0 l 257x80
 153 158 181 295 223 450 c 257
EndSplineSet
Validated: 1
Layer: 2
EndChar

StartChar: six
Encoding: 200 54 200
GlifName: six
Width: 497
VWidth: 0
GlyphClass: 2
Flags: W
HStem: -1 125<140.5 228 228 282> 307 118<227 228 227 227> 573 125<282 293 282 284>
VStem: 26 124<399 416.5> 356 115<183.5 249>
LayerCount: 3
Back
Fore
SplineSet
282 425 m 257
 406 425 471 327 471 209 c 256
 471 84 383 0 282 -1 c 257
 282 123 l 257
 317 127 356 159 356 208 c 256
 356 290 302 304 283 309 c 257
 282 425 l 257
355 537 m 261
 339 559 321 573 293 573 c 260
 289 573 286 573 282 573 c 261
 282 698 l 261
 360 698 415 659 450 600 c 261
 355 537 l 261
228 697 m 257
 228 572 l 257
 165 565 150 448 150 399 c 257
 169 414 198 425 228 425 c 257
 228 307 l 257
 227 307 l 256
 207 302 160 286 160 209 c 256
 160 170 190 128 228 124 c 257
 228 -1 l 257
 53 -1 26 186 26 358 c 256
 26 475 55 675 228 697 c 257
EndSplineSet
Validated: 1
Layer: 2
EndChar

StartChar: slash
Encoding: 201 47 201
GlifName: slash
Width: 401
VWidth: 0
GlyphClass: 2
Flags: W
LayerCount: 3
Back
Fore
SplineSet
50 -23 m 257
 225 716 l 257
 351 716 l 257
 177 -23 l 257
 50 -23 l 257
EndSplineSet
Validated: 1
Layer: 2
EndChar

StartChar: sterling
Encoding: 203 163 203
GlifName: sterling
Width: 520
VWidth: 0
GlyphClass: 2
Flags: W
HStem: 0 108<238 462 238 462> 289 107<239 378 239 378 238 378> 584 121<291 293 293 307 291 319>
VStem: 106 132<108 288 288 288 108 514>
LayerCount: 3
Back
Fore
SplineSet
371 520 m 257
 361 551 341 584 297 584 c 256
 265 584 239 568 239 517 c 258
 239 396 l 257
 378 396 l 257
 378 289 l 257
 238 289 l 257
 238 108 l 257
 462 108 l 257
 462 0 l 257
 106 0 l 257
 106 288 l 257
 50 288 l 257
 50 395 l 257
 106 395 l 257
 106 514 l 258
 106 617 161 705 291 705 c 256
 292 705 292 705 293 705 c 256
 321 705 345 700 366 691 c 256
 424 668 459 618 470 570 c 257
 371 520 l 257
EndSplineSet
Validated: 1
Layer: 2
EndChar

StartChar: t
Encoding: 204 116 204
GlifName: t
Width: 324
VWidth: 0
GlyphClass: 2
Flags: W
HStem: 0 125<244 271 244 298 243 271> 398 118<26 89 26 89 211 271> 680 20<89 211 211 211>
VStem: 89 122<168 398 516 700>
LayerCount: 3
Back
Fore
SplineSet
244 125 m 258
 271 125 l 257
 298 0 l 257
 243 0 l 258
 121 1 89 66 89 168 c 258
 89 398 l 257
 26 398 l 257
 26 516 l 257
 89 516 l 257
 89 700 l 257
 211 700 l 257
 211 516 l 257
 271 516 l 257
 271 398 l 257
 211 398 l 257
 211 159 l 258
 211 145 216 126 244 125 c 258
EndSplineSet
Validated: 1
Layer: 2
EndChar

StartChar: thorn
Encoding: 205 254 205
GlifName: thorn
Width: 422
VWidth: 0
GlyphClass: 2
Flags: W
HStem: 0 118<203 232 203 234> 398 118<196 228 196 228> 680 20<30 155 155 155>
VStem: 30 125<-182 700 -182 700> 276 120<143 372 372 375>
LayerCount: 3
Back
Fore
SplineSet
232 0 m 258
 203 0 l 257
 203 118 l 257
 234 118 l 258
 271 119 276 134 276 143 c 258
 276 372 l 258
 276 385 258 398 228 398 c 258
 196 398 l 257
 196 516 l 257
 228 516 l 258
 335 516 396 431 396 375 c 258
 396 139 l 258
 396 86 345 0 232 0 c 258
30 700 m 257
 155 700 l 257
 155 -182 l 257
 30 -182 l 257
 30 700 l 257
EndSplineSet
Validated: 1
Layer: 2
EndChar

StartChar: three
Encoding: 206 51 206
GlifName: three
Width: 484
VWidth: 0
GlyphClass: 2
Flags: W
HStem: 0 122<255 257 255 255.5> 286 124<188 247> 574 124<156 256 156 252.5>
VStem: 327 131<181 231>
LayerCount: 3
Back
Fore
SplineSet
132 537 m 257
 26 600 l 257
 59 656 117 698 195 698 c 257
 195 572 l 257
 166 570 146 558 132 537 c 257
254 122 m 257
 297 122 327 161 327 201 c 256
 327 261 306 286 188 286 c 257
 188 410 l 257
 308 410 327 439 327 499 c 256
 327 553 286 574 256 574 c 256
 255 574 253 574 252 574 c 257
 252 698 l 257
 386 695 453 582 453 508 c 256
 453 411 422 366 391 350 c 257
 419 331 458 284 458 199 c 256
 458 75 337 0 257 0 c 256
 256 0 256 0 255 0 c 257
 254 122 l 257
132 160 m 257
 146 139 166 127 195 125 c 257
 195 -1 l 257
 117 -1 60 30 26 97 c 257
 132 160 l 257
EndSplineSet
Validated: 1
Layer: 2
Substitution2: "'ordn' Ordinals lookup 1-1" three.ordn
EndChar

StartChar: threequarters
Encoding: 207 190 207
GlifName: threequarters
Width: 584
VWidth: 0
GlyphClass: 2
Flags: W
HStem: -1 21<417 485 417 417> -1 21<417 485 417 417> 71 66<370 392 294 294 485 512> 348 66<93.5 114 113 114 113 141 113 144> 492 65<108 109 109 137.5> 636 64<94 141 94 143 94 140>
VStem: 177 68<440.5 464.5> 294 98<71 137 71 137> 417 95<71 137 71 352> 417 68<-1 71 -1 137 137 352>
LayerCount: 3
Back
Fore
SplineSet
83 431 m 258x3f
 90 421 99 415 113 414 c 258
 114 414 l 257
 114 348 l 257
 113 348 l 258
 74 348 44 364 27 398 c 257
 26 399 l 257
 82 432 l 257
 83 431 l 258x3f
142 412 m 258
 163 412 177 431 177 450 c 256
 177 479 167 492 108 492 c 257
 108 557 l 257
 109 557 l 258
 169 557 177 571 177 600 c 256
 177 626 157 636 143 636 c 258
 140 636 l 257
 140 701 l 257
 141 700 l 257
 209 698 243 642 243 604 c 256
 243 557 229 534 214 525 c 257
 229 514 245 491 245 450 c 256
 245 387 185 348 144 348 c 258
 141 348 l 257
 141 412 l 257
 142 412 l 258
82 616 m 257
 26 649 l 257
 27 651 l 258
 44 679 74 700 114 700 c 257
 114 635 l 257
 113 635 l 258
 99 634 90 628 83 618 c 258
 82 616 l 257
512 137 m 257xbf80
 512 71 l 257xbf80
 485 71 l 257
 485 -1 l 257
 417 -1 l 257xbf40
 417 352 l 257xbf80
 485 352 l 257
 485 137 l 257xbf40
 512 137 l 257xbf80
392 137 m 257
 392 71 l 257
 294 71 l 257
 294 137 l 257
 392 305 l 257
 392 175 l 257
 370 137 l 257
 392 137 l 257
50 -2 m 257
 482 702 l 257
 558 702 l 257
 133 -2 l 257
 50 -2 l 257
EndSplineSet
Validated: 1
Layer: 2
EndChar

StartChar: tilde
Encoding: 208 732 208
GlifName: tilde
Width: 333
VWidth: 0
GlyphClass: 2
Flags: W
HStem: 86 101<201.5 234.5> 126 102<86.5 116>
VStem: 26 281<114 114 114 206 206 206>
LayerCount: 3
Back
Fore
SplineSet
307 114 m 257xa0
 273 93 246 86 223 86 c 256xa0
 170 86 140 126 92 126 c 256
 74 126 52 120 26 104 c 257
 26 206 l 257
 54 222 77 228 96 228 c 256x60
 147 228 176 187 227 187 c 256
 249 187 274 195 307 215 c 257
 307 114 l 257xa0
EndSplineSet
Validated: 1
Layer: 2
EndChar

StartChar: two
Encoding: 209 50 209
GlifName: two
Width: 480
VWidth: 0
GlyphClass: 2
Flags: W
HStem: 0 127<43 447 43 447> 574 126<245 252>
VStem: 330 123<495 497 496.5 497 442 522>
LayerCount: 3
Back
Fore
SplineSet
447 127 m 257
 447 0 l 257
 43 0 l 257
 43 127 l 257
 447 127 l 257
190 699 m 257
 190 573 l 258
 189 573 142 557 142 495 c 257
 24 520 l 257
 33 604 95 687 190 699 c 257
245 574 m 257
 245 700 l 257
 247 700 250 700 252 700 c 256
 406 700 452 574 453 497 c 256
 453 496 453 495 453 494 c 256
 453 390 403 358 342 315 c 256
 271 265 231 232 197 179 c 257
 45 179 l 257
 105 302 205 359 235 384 c 256
 278 421 329 433 330 495 c 256
 330 496 330 496 330 497 c 256
 330 547 300 572 245 574 c 257
EndSplineSet
Validated: 1
Layer: 2
Substitution2: "'ordn' Ordinals lookup 1-1" two.ordn
EndChar

StartChar: u
Encoding: 210 117 210
GlifName: u
Width: 434
VWidth: 0
GlyphClass: 2
Flags: W
HStem: -5 121<137.5 196 191 196 238 243 191 238> 494 20<30 154 154 154 280 404 404 404>
VStem: 30 124<140.5 142 142 514> 280 124<142 514>
LayerCount: 3
Back
Fore
SplineSet
238 116 m 257
 243 116 l 258
 274 116 280 140 280 142 c 257
 280 514 l 257
 404 514 l 257
 404 137 l 258
 404 92 350 -5 243 -5 c 258
 238 -5 l 257
 238 116 l 257
30 514 m 257
 154 514 l 257
 154 142 l 257
 154 139 160 116 191 116 c 258
 196 116 l 257
 196 -5 l 257
 191 -5 l 258
 84 -5 30 89 30 137 c 258
 30 514 l 257
EndSplineSet
Validated: 1
Layer: 2
EndChar

StartChar: underscore
Encoding: 215 95 215
GlifName: underscore
Width: 510
VWidth: 0
GlyphClass: 2
Flags: W
HStem: -205 107<30 480 30 480>
LayerCount: 3
Back
Fore
SplineSet
480 -205 m 257
 30 -205 l 257
 30 -98 l 257
 480 -98 l 257
 480 -205 l 257
EndSplineSet
Validated: 1
Layer: 2
EndChar

StartChar: two.ordn
Encoding: 218 178 218
GlifName: uni00B_2
Width: 245
VWidth: 0
GlyphClass: 2
Flags: W
LayerCount: 3
Back
Fore
SplineSet
102 638 m 258
 98 636 85 629 85 608 c 258
 85 604 l 257
 26 616 l 257
 26 619 l 257
 30 657 58 695 101 700 c 257
 105 700 l 257
 105 645 l 257
 105 638 l 257
 102 638 l 258
216 451 m 257
 216 389 l 257
 34 389 l 257
 34 451 l 257
 216 451 l 257
122 639 m 257
 122 700 l 257
 129 700 l 258
 198 700 219 643 219 609 c 256
 219 560 196 546 170 527 c 256
 139 505 123 493 109 471 c 258
 108 469 l 257
 34 469 l 257
 37 475 l 258
 63 529 107 553 119 563 c 256
 139 580 159 584 159 608 c 256
 159 629 148 638 125 639 c 258
 122 639 l 257
EndSplineSet
Validated: 1
Layer: 2
EndChar

StartChar: three.ordn
Encoding: 219 179 219
GlifName: uni00B_3
Width: 247
VWidth: 0
GlyphClass: 2
Flags: W
HStem: 392 60<86.5 129 104 129 126 129 126 129 129 131> 516 61<97 101 97 101> 640 61<104 107 104 107 125 128 104 130 104 125>
VStem: 157 64<475 495>
LayerCount: 3
Back
Fore
SplineSet
80 467 m 258
 85 459 92 455 104 454 c 258
 107 453 l 257
 107 392 l 257
 104 392 l 258
 69 392 43 406 28 436 c 257
 26 439 l 257
 78 470 l 257
 80 467 l 258
129 452 m 258
 145 452 157 467 157 483 c 256
 157 507 151 516 101 516 c 258
 97 516 l 257
 97 577 l 257
 101 577 l 258
 152 577 157 588 157 612 c 256
 157 633 141 640 130 640 c 258
 125 640 l 257
 125 701 l 257
 128 701 l 258
 188 700 219 650 219 616 c 256
 219 578 208 557 195 547 c 257
 207 537 221 516 221 482 c 256
 221 426 167 392 131 392 c 258
 126 392 l 257
 126 452 l 257
 129 452 l 258
78 623 m 257
 26 654 l 257
 28 657 l 258
 43 682 69 701 104 701 c 258
 107 701 l 257
 107 640 l 257
 104 640 l 258
 92 639 85 634 80 626 c 258
 78 623 l 257
EndSplineSet
Validated: 1
Layer: 2
EndChar

StartChar: one.ordn
Encoding: 220 185 220
GlifName: uni00B_9
Width: 186
VWidth: 0
GlyphClass: 2
Flags: W
HStem: 391 309<95 161 95 161 93 161>
VStem: 60 101<584 673 673 673> 93 68<391 610 610 610>
LayerCount: 3
Back
Fore
SplineSet
93 610 m 257xa0
 60 584 l 257
 60 673 l 257xc0
 95 700 l 257
 161 700 l 257
 161 391 l 257
 93 391 l 257
 93 610 l 257xa0
EndSplineSet
Validated: 1
Layer: 2
EndChar

StartChar: v
Encoding: 221 118 221
GlifName: v
Width: 400
VWidth: 0
GlyphClass: 2
Flags: W
HStem: 0 21<174 174 174 243> 0 21<174 174 174 243> 496 20<151 151 269 269>
LayerCount: 3
Back
Fore
SplineSet
174 0 m 257xa0
 16 515 l 257
 151 516 l 257
 286 120 l 257
 243 0 l 257
 174 0 l 257xa0
269 516 m 257
 400 515 l 257
 308 208 l 257
 296 208 l 257
 232 394 l 257
 269 516 l 257
EndSplineSet
Validated: 1
Layer: 2
EndChar

StartChar: w
Encoding: 222 119 222
GlifName: w
Width: 577
VWidth: 0
GlyphClass: 2
Flags: W
HStem: 0 21<160 160 160 222 348 412 348 348> 0 21<160 160 160 222 348 412 348 348> 496 20<144 144 328 328 443 443>
LayerCount: 3
Back
Fore
SplineSet
160 0 m 257xa0
 8 515 l 257
 144 516 l 257
 261 120 l 257
 222 0 l 257
 160 0 l 257xa0
348 0 m 257
 190 515 l 257
 328 516 l 257
 449 120 l 257
 412 0 l 257
 348 0 l 257
443 516 m 257
 569 515 l 257
 471 208 l 257
 463 208 l 257
 407 394 l 257
 443 516 l 257
EndSplineSet
Validated: 1
Layer: 2
EndChar

StartChar: x
Encoding: 223 120 223
GlifName: x
Width: 381
VWidth: 0
GlyphClass: 2
Flags: W
HStem: 0 21<18 143 18 18 257 382 257 257> 0 21<18 143 18 18 257 382 257 257> 496 19
LayerCount: 3
Back
Fore
SplineSet
132 262 m 257xa0
 22 516 l 257
 147 516 l 257
 200 399 l 257
 252 515 l 257
 378 515 l 257
 269 262 l 257
 382 0 l 257
 257 0 l 257
 200 126 l 257
 143 0 l 257
 18 0 l 257
 132 262 l 257xa0
EndSplineSet
Validated: 1
Layer: 2
EndChar

StartChar: y
Encoding: 224 121 224
GlifName: y
Width: 383
VWidth: 0
GlyphClass: 2
Flags: W
HStem: 495 20<131 131 251 251>
VStem: 188 1
LayerCount: 3
Back
Fore
SplineSet
118 113 m 257
 0 514 l 257
 131 515 l 257
 188 327 l 257
 188 328 189 328 189 329 c 257
 252 111 l 257
 155 -182 l 257
 29 -182 l 257
 118 113 l 257
251 515 m 257
 382 514 l 257
 279 208 l 257
 267 208 l 257
 213 393 l 257
 251 515 l 257
EndSplineSet
Validated: 1
Layer: 2
EndChar

StartChar: yen
Encoding: 227 165 227
GlifName: yen
Width: 542
VWidth: 0
GlyphClass: 2
Flags: W
HStem: 0 21<203 340 203 203> 0 21<203 340 203 203> 238 57<50 193 50 203 50 193> 351 58<50 162 50 177 50 162> 678 20<73 210 210 210 333 470 470 470>
VStem: 203 137<0 236 0 238 0 238>
LayerCount: 3
Back
Fore
SplineSet
73 698 m 257xbc
 210 698 l 257
 273 485 l 257
 333 698 l 257
 470 698 l 257
 382 408 l 257
 492 408 l 257
 492 350 l 257
 365 350 l 257
 351 295 l 257
 492 295 l 257
 492 236 l 257
 340 236 l 257
 340 0 l 257
 203 0 l 257
 203 238 l 257
 50 238 l 257
 50 295 l 257
 193 295 l 257
 177 351 l 257
 50 351 l 257
 50 409 l 257
 162 409 l 257
 73 698 l 257xbc
EndSplineSet
Validated: 1
Layer: 2
EndChar

StartChar: z
Encoding: 228 122 228
GlifName: z
Width: 348
VWidth: 0
GlyphClass: 2
Flags: W
HStem: 0 118<169 169 169 322> 394 120<26 183 26 322>
VStem: 26 296<0 116 116 116 400 514>
LayerCount: 3
Back
Fore
SplineSet
322 400 m 257
 169 118 l 257
 322 117 l 257
 322 0 l 257
 26 0 l 257
 26 116 l 257
 183 394 l 257
 26 394 l 257
 26 514 l 257
 322 514 l 257
 322 400 l 257
EndSplineSet
Validated: 1
Layer: 2
EndChar

StartChar: zero
Encoding: 230 48 230
GlifName: zero
Width: 496
VWidth: 0
GlyphClass: 2
Flags: W
HStem: 0 124<187.23 214 276 302.77> 573 125<185.747 215 275 304.253>
VStem: 32 125<166.059 534.063> 333 125<166.059 534.063>
LayerCount: 3
Back
Fore
SplineSet
215 698 m 257
 215 573 l 257
 162 560 157 461 157 398 c 256
 157 371 157 360 157 339 c 256
 157 248 159 137 214 124 c 257
 214 0 l 257
 148 3 32 60 32 353 c 256
 32 602 126 693 215 698 c 257
275 698 m 257
 364 693 458 602 458 353 c 256
 458 60 342 3 276 0 c 257
 276 124 l 257
 331 137 333 248 333 339 c 256
 333 360 333 371 333 398 c 256
 333 461 328 560 275 573 c 257
 275 698 l 257
EndSplineSet
Layer: 2
EndChar

StartChar: anusvara
Encoding: 231 3458 231
Width: 398
VWidth: 853
Flags: W
LayerCount: 3
Back
Fore
SplineSet
226.954101562 281.596679688 m 0
 179.530273438 259.1328125 149.579101562 224.499023438 137.098632812 177.69921875 c 0
 123.994140625 130.899414062 138.346679688 99.388671875 180.154296875 83.1640625 c 0
 206.986328125 72.556640625 237.5625 70.3720703125 271.881835938 76.6123046875 c 0
 306.203125 82.8525390625 333.659179688 98.7646484375 354.25 124.34765625 c 0
 364.859375 137.452148438 372.502929688 154.298828125 377.182617188 174.891601562 c 0
 381.862304688 195.484375 380.927734375 214.671875 374.374023438 232.45703125 c 0
 367.823242188 250.240234375 357.21484375 264.591796875 342.549804688 275.512695312 c 0
 327.885742188 286.432617188 310.415039062 292.828125 290.134765625 294.69921875 c 0
 269.854492188 296.572265625 248.793945312 292.204101562 226.954101562 281.596679688 c 0
84.6826171875 177.69921875 m 2
 100.282226562 245.091796875 143.337890625 295.01171875 213.849609375 327.459960938 c 0
 255.034179688 346.8046875 294.03515625 351.484375 330.849609375 341.499023438 c 0
 367.666015625 331.515625 395.434570312 311.236328125 414.154296875 280.659179688 c 0
 432.874023438 249.459960938 437.5546875 213.580078125 428.194335938 173.01953125 c 0
 418.834960938 131.8359375 397.618164062 95.95703125 364.546875 65.3798828125 c 0
 331.474609375 34.8037109375 294.346679688 14.8359375 253.162109375 5.4765625 c 0
 212.602539062 -4.5087890625 177.346679688 -0.7646484375 147.393554688 16.7080078125 c 0
 89.3623046875 50.4033203125 67.8349609375 100.948242188 82.810546875 168.33984375 c 2
 84.6826171875 177.69921875 l 2
EndSplineSet
Layer: 2
Colour: ffff00
EndChar

StartChar: visarga
Encoding: 232 3459 232
Width: 260
VWidth: 867
Flags: W
VStem: 66.2441 270.505
LayerCount: 3
Back
Fore
SplineSet
177.627929688 377.840820312 m 1
 174.5078125 355.376953125 180.749023438 339.77734375 196.348632812 331.041015625 c 0
 211.948242188 322.928710938 229.420898438 323.240234375 248.764648438 331.9765625 c 0
 268.108398438 340.712890625 280.276367188 356.000976562 285.268554688 377.840820312 c 0
 290.259765625 399.6796875 285.268554688 414.969726562 270.29296875 423.705078125 c 0
 255.317382812 432.440429688 237.844726562 432.751953125 217.876953125 424.640625 c 0
 197.908203125 415.904296875 184.493164062 400.3046875 177.627929688 377.840820312 c 1
128.021484375 382.521484375 m 1
 139.252929688 418.711914062 159.844726562 445.544921875 189.796875 463.016601562 c 0
 220.372070312 480.489257812 250.325195312 485.79296875 279.65234375 478.928710938 c 0
 308.98046875 471.44140625 328.012695312 453.657226562 336.749023438 425.577148438 c 0
 341.116210938 411.848632812 341.116210938 395.9375 336.749023438 377.840820312 c 0
 328.63671875 343.520507812 309.603515625 316.376953125 279.65234375 296.408203125 c 0
 249.076171875 276.440429688 218.500976562 269.577148438 187.924804688 275.81640625 c 0
 156.725585938 280.80859375 136.444335938 298.592773438 127.083984375 329.16796875 c 0
 123.340820312 341.025390625 123.028320312 355.689453125 126.149414062 373.161132812 c 1
 128.021484375 382.521484375 l 1
116.7890625 111.081054688 m 1
 113.668945312 88.6162109375 119.909179688 73.0166015625 135.508789062 64.28125 c 0
 151.108398438 55.544921875 168.581054688 55.544921875 187.924804688 64.28125 c 0
 207.268554688 73.0166015625 219.436523438 88.4599609375 224.428710938 110.61328125 c 0
 229.420898438 133.388671875 224.116210938 149.145507812 208.517578125 157.881835938 c 0
 193.541015625 166.6171875 176.380859375 166.6171875 157.037109375 157.881835938 c 0
 137.068359375 149.145507812 123.653320312 133.545898438 116.7890625 111.081054688 c 1
66.244140625 114.825195312 m 1
 77.4765625 151.640625 98.380859375 178.94140625 128.95703125 196.725585938 c 0
 159.532226562 214.508789062 189.484375 219.657226562 218.8125 212.16796875 c 0
 248.140625 204.681640625 266.860351562 186.896484375 274.97265625 158.81640625 c 0
 279.340820312 145.088867188 279.65234375 129.177734375 275.908203125 111.081054688 c 0
 267.795898438 76.759765625 248.452148438 49.6171875 217.876953125 29.6484375 c 0
 187.30078125 9.0576171875 156.725585938 1.8798828125 126.149414062 8.12109375 c 0
 94.9482421875 13.11328125 74.98046875 31.208984375 66.244140625 62.408203125 c 0
 62.5009765625 74.888671875 61.8759765625 89.8642578125 64.3720703125 107.336914062 c 1
 66.244140625 114.825195312 l 1
EndSplineSet
Layer: 2
Colour: ffff00
EndChar

StartChar: si_A
Encoding: 233 3461 233
Width: 554
VWidth: 853
Flags: W
HStem: 7.13965 44.9277<224.124 382.136> 57.6836 29.0156<501.288 533.167> 254.243 46.7998<494.738 579.398> 423.659 91.7295<255.87 310.841>
LayerCount: 3
Back
Fore
SplineSet
567.463867188 465.779296875 m 1
 543.751953125 442.69140625 528.462890625 426.311523438 521.599609375 416.639648438 c 0
 514.736328125 406.966796875 508.495117188 390.586914062 502.879882812 367.499023438 c 2
 493.51953125 325.37890625 l 1
 497.263671875 316.642578125 504.127929688 310.091796875 514.111328125 305.723632812 c 0
 524.096679688 301.35546875 534.391601562 299.795898438 544.999023438 301.04296875 c 0
 555.607421875 302.291015625 565.124023438 307.283203125 573.547851562 316.01953125 c 0
 581.971679688 324.754882812 586.49609375 335.674804688 587.119140625 348.779296875 c 0
 587.743164062 361.883789062 586.650390625 372.3359375 583.84375 380.134765625 c 0
 581.03515625 387.935546875 576.979492188 398.54296875 571.674804688 411.958984375 c 0
 566.372070312 425.375976562 564.655273438 438.947265625 566.528320312 452.674804688 c 1
 567.463867188 465.779296875 l 1
271.6875 54.875 m 0
 306.630859375 46.7626953125 346.255859375 45.8271484375 390.559570312 52.0673828125 c 1
 463.568359375 368.435546875 l 1
 432.3671875 378.418945312 396.174804688 379.04296875 354.991210938 370.307617188 c 0
 286.975585938 356.579101562 235.184570312 323.5078125 199.615234375 271.090820312 c 0
 187.135742188 253.620117188 178.087890625 231.779296875 172.471679688 205.571289062 c 0
 166.85546875 179.364257812 167.479492188 155.65234375 174.34375 134.435546875 c 0
 188.072265625 93.2509765625 220.51953125 66.732421875 271.6875 54.875 c 0
453.271484375 148.474609375 m 1
 439.231445312 83.890625 l 1
 433.615234375 63.298828125 l 1
 439.231445312 64.546875 446.095703125 66.419921875 454.208007812 68.9150390625 c 2
 488.83984375 80.1474609375 l 2
 503.815429688 85.1396484375 514.267578125 87.3232421875 520.1953125 86.69921875 c 0
 526.123046875 86.076171875 530.491210938 83.2666015625 533.299804688 78.2744140625 c 0
 536.108398438 73.283203125 534.080078125 66.419921875 527.215820312 57.68359375 c 1
 515.360351562 47.69921875 489.462890625 37.7158203125 449.528320312 27.73046875 c 0
 440.16796875 25.2353515625 431.743164062 22.7392578125 424.254882812 20.2431640625 c 1
 379.328125 -174.4453125 l 2
 378.079101562 -180.684570312 375.115234375 -185.052734375 370.435546875 -187.548828125 c 0
 365.754882812 -190.044921875 360.919921875 -191.291992188 355.928710938 -191.291992188 c 0
 342.82421875 -191.291992188 337.208007812 -185.676757812 339.080078125 -174.4453125 c 1
 382.135742188 11.8193359375 l 1
 358.423828125 8.69921875 334.243164062 7.1396484375 309.594726562 7.1396484375 c 0
 284.948242188 7.1396484375 261.391601562 9.3232421875 238.928710938 13.69140625 c 0
 157.806640625 29.2919921875 111.319335938 69.2275390625 99.4638671875 133.499023438 c 0
 91.9755859375 177.178710938 98.2158203125 220.547851562 118.184570312 263.603515625 c 0
 143.767578125 317.266601562 187.291992188 357.515625 248.754882812 384.34765625 c 0
 310.21875 411.178710938 383.071289062 419.603515625 467.311523438 409.620117188 c 1
 471.055664062 439.571289062 462.943359375 460.475585938 442.975585938 472.331054688 c 0
 423.006835938 484.1875 399.295898438 486.99609375 371.83984375 480.754882812 c 0
 344.383789062 474.515625 323.479492188 462.03515625 309.127929688 443.315429688 c 1
 308.19140625 442.37890625 l 1
 291.967773438 424.907226562 272.624023438 418.666992188 250.16015625 423.659179688 c 0
 236.431640625 426.155273438 228.787109375 430.6796875 227.228515625 437.23046875 c 0
 225.666992188 443.784179688 225.666992188 450.647460938 227.228515625 457.823242188 c 0
 228.787109375 464.999023438 235.49609375 474.359375 247.350585938 485.903320312 c 0
 259.20703125 497.447265625 276.211914062 507.276367188 298.36328125 515.388671875 c 0
 320.516601562 523.499023438 342.82421875 528.178710938 365.288085938 529.427734375 c 0
 415.20703125 531.922851562 453.896484375 522.563476562 481.350585938 501.34765625 c 0
 495.079101562 490.115234375 503.50390625 473.891601562 506.624023438 452.674804688 c 1
 524.719726562 475.763671875 542.66015625 493.547851562 560.443359375 506.028320312 c 0
 578.228515625 518.5078125 598.350585938 526.930664062 620.815429688 531.298828125 c 0
 629.55078125 531.922851562 634.85546875 529.583007812 636.728515625 524.279296875 c 0
 638.599609375 518.975585938 639.068359375 514.451171875 638.130859375 510.708007812 c 0
 637.1953125 506.963867188 634.54296875 503.219726562 630.174804688 499.474609375 c 0
 621.438476562 491.362304688 615.66796875 481.067382812 612.859375 468.587890625 c 0
 610.05078125 456.107421875 611.143554688 445.188476562 616.135742188 435.828125 c 0
 625.495117188 418.35546875 632.984375 401.975585938 638.599609375 386.688476562 c 0
 644.215820312 371.3984375 643.903320312 354.70703125 637.663085938 336.610351562 c 0
 631.422851562 318.515625 623.311523438 303.8515625 613.328125 292.620117188 c 0
 592.735351562 267.036132812 568.087890625 254.243164062 539.383789062 254.243164062 c 0
 520.663085938 254.243164062 506.624023438 256.739257812 497.263671875 261.73046875 c 0
 487.904296875 266.72265625 482.599609375 270.779296875 481.350585938 273.899414062 c 1
 478.231445312 258.299804688 475.111328125 243.010742188 471.991210938 228.03515625 c 2
 453.271484375 148.474609375 l 1
EndSplineSet
Layer: 2
Colour: ffff00
EndChar

StartChar: si_Aa
Encoding: 234 3462 234
Width: 798
VWidth: 853
Flags: W
HStem: 7.13965 44.9277<232.263 390.274> 13.6914 82.3682<623.226 651.813> 57.6836 29.0156<509.427 541.306> 254.243 46.7998<502.878 587.536> 423.659 91.7295<264.01 318.98>
LayerCount: 3
Back
Fore
SplineSet
606.491210938 74.5302734375 m 1x58
 606.491210938 85.1396484375 611.794921875 92.3154296875 622.403320312 96.0595703125 c 0
 633.010742188 99.1796875 641.123046875 95.123046875 646.73828125 83.890625 c 0
 659.842773438 56.435546875 676.377929688 43.6435546875 696.346679688 45.515625 c 0
 733.787109375 48.01171875 766.546875 98.5556640625 794.625976562 197.147460938 c 0
 837.059570312 343.787109375 834.874023438 419.603515625 788.07421875 424.595703125 c 0
 763.73828125 427.091796875 740.026367188 415.235351562 716.938476562 389.028320312 c 0
 706.955078125 377.795898438 697.750976562 373.115234375 689.326171875 374.98828125 c 0
 680.903320312 376.859375 677.938476562 384.34765625 680.434570312 397.451171875 c 1
 687.298828125 409.930664062 696.346679688 420.8515625 707.579101562 430.2109375 c 0
 730.666992188 449.555664062 757.186523438 461.098632812 787.137695312 464.842773438 c 0
 817.090820312 467.962890625 840.491210938 459.540039062 857.337890625 439.571289062 c 0
 883.546875 408.372070312 893.374023438 363.130859375 886.823242188 303.8515625 c 0
 880.271484375 244.571289062 867.634765625 193.091796875 848.9140625 149.411132812 c 0
 822.083007812 85.763671875 786.513671875 42.0830078125 742.2109375 18.37109375 c 0
 712.881835938 2.771484375 683.7109375 1.2109375 654.694335938 13.69140625 c 0
 625.678710938 26.171875 609.610351562 46.451171875 606.491210938 74.5302734375 c 1x58
575.602539062 465.779296875 m 1
 551.890625 442.69140625 536.603515625 426.311523438 529.73828125 416.639648438 c 0
 522.875 406.966796875 516.634765625 390.586914062 511.018554688 367.499023438 c 2
 501.658203125 325.37890625 l 1
 505.403320312 316.642578125 512.266601562 310.091796875 522.250976562 305.723632812 c 0
 532.235351562 301.35546875 542.530273438 299.795898438 553.137695312 301.04296875 c 0
 563.74609375 302.291015625 573.262695312 307.283203125 581.686523438 316.01953125 c 0
 590.111328125 324.754882812 594.634765625 335.674804688 595.2578125 348.779296875 c 0
 595.881835938 361.883789062 594.791015625 372.3359375 591.982421875 380.134765625 c 0
 589.173828125 387.935546875 585.118164062 398.54296875 579.813476562 411.958984375 c 0
 574.510742188 425.375976562 572.793945312 438.947265625 574.666992188 452.674804688 c 1
 575.602539062 465.779296875 l 1
279.826171875 54.875 m 0
 314.76953125 46.7626953125 354.39453125 45.8271484375 398.698242188 52.0673828125 c 1x98
 471.70703125 368.435546875 l 1
 440.505859375 378.418945312 404.313476562 379.04296875 363.130859375 370.307617188 c 0
 295.114257812 356.579101562 243.323242188 323.5078125 207.75390625 271.090820312 c 0
 195.274414062 253.620117188 186.2265625 231.779296875 180.611328125 205.571289062 c 0
 174.994140625 179.364257812 175.618164062 155.65234375 182.482421875 134.435546875 c 0
 196.2109375 93.2509765625 228.659179688 66.732421875 279.826171875 54.875 c 0
461.411132812 148.474609375 m 1
 447.37109375 83.890625 l 1
 441.75390625 63.298828125 l 1
 447.37109375 64.546875 454.234375 66.419921875 462.346679688 68.9150390625 c 2
 496.978515625 80.1474609375 l 2
 511.954101562 85.1396484375 522.40625 87.3232421875 528.334960938 86.69921875 c 0
 534.262695312 86.076171875 538.630859375 83.2666015625 541.438476562 78.2744140625 c 0
 544.247070312 73.283203125 542.21875 66.419921875 535.354492188 57.68359375 c 1
 523.499023438 47.69921875 497.6015625 37.7158203125 457.666992188 27.73046875 c 0
 448.306640625 25.2353515625 439.881835938 22.7392578125 432.393554688 20.2431640625 c 1
 387.466796875 -174.4453125 l 2
 386.217773438 -180.684570312 383.25390625 -185.052734375 378.57421875 -187.548828125 c 0
 373.893554688 -190.044921875 369.059570312 -191.291992188 364.067382812 -191.291992188 c 0
 350.962890625 -191.291992188 345.346679688 -185.676757812 347.21875 -174.4453125 c 1
 390.274414062 11.8193359375 l 1
 366.5625 8.69921875 342.3828125 7.1396484375 317.734375 7.1396484375 c 0xb8
 293.086914062 7.1396484375 269.53125 9.3232421875 247.067382812 13.69140625 c 0x58
 165.9453125 29.2919921875 119.458007812 69.2275390625 107.602539062 133.499023438 c 0
 100.114257812 177.178710938 106.354492188 220.547851562 126.323242188 263.603515625 c 0
 151.90625 317.266601562 195.430664062 357.515625 256.893554688 384.34765625 c 0
 318.357421875 411.178710938 391.2109375 419.603515625 475.451171875 409.620117188 c 1
 479.194335938 439.571289062 471.083007812 460.475585938 451.114257812 472.331054688 c 0
 431.146484375 484.1875 407.434570312 486.99609375 379.978515625 480.754882812 c 0
 352.522460938 474.515625 331.618164062 462.03515625 317.266601562 443.315429688 c 1
 316.331054688 442.37890625 l 1
 300.106445312 424.907226562 280.762695312 418.666992188 258.298828125 423.659179688 c 0
 244.5703125 426.155273438 236.92578125 430.6796875 235.3671875 437.23046875 c 0
 233.805664062 443.784179688 233.805664062 450.647460938 235.3671875 457.823242188 c 0
 236.92578125 464.999023438 243.634765625 474.359375 255.491210938 485.903320312 c 0
 267.346679688 497.447265625 284.350585938 507.276367188 306.502929688 515.388671875 c 0
 328.655273438 523.499023438 350.962890625 528.178710938 373.426757812 529.427734375 c 0
 423.345703125 531.922851562 462.03515625 522.563476562 489.491210938 501.34765625 c 0
 503.217773438 490.115234375 511.642578125 473.891601562 514.762695312 452.674804688 c 1
 532.859375 475.763671875 550.798828125 493.547851562 568.58203125 506.028320312 c 0
 586.3671875 518.5078125 606.491210938 526.930664062 628.954101562 531.298828125 c 0
 637.690429688 531.922851562 642.994140625 529.583007812 644.8671875 524.279296875 c 0
 646.73828125 518.975585938 647.20703125 514.451171875 646.271484375 510.708007812 c 0
 645.334960938 506.963867188 642.681640625 503.219726562 638.313476562 499.474609375 c 0
 629.578125 491.362304688 623.806640625 481.067382812 620.998046875 468.587890625 c 0
 618.19140625 456.107421875 619.282226562 445.188476562 624.274414062 435.828125 c 0
 633.634765625 418.35546875 641.123046875 401.975585938 646.73828125 386.688476562 c 0
 652.354492188 371.3984375 652.041992188 354.70703125 645.802734375 336.610351562 c 0
 639.5625 318.515625 631.450195312 303.8515625 621.466796875 292.620117188 c 0
 600.874023438 267.036132812 576.2265625 254.243164062 547.522460938 254.243164062 c 0
 528.802734375 254.243164062 514.762695312 256.739257812 505.403320312 261.73046875 c 0
 496.04296875 266.72265625 490.73828125 270.779296875 489.491210938 273.899414062 c 1
 486.370117188 258.299804688 483.25 243.010742188 480.130859375 228.03515625 c 2
 461.411132812 148.474609375 l 1
EndSplineSet
Layer: 2
Colour: ffff00
EndChar

StartChar: si_Ae
Encoding: 235 3463 235
Width: 772
VWidth: 853
Flags: W
HStem: 7.13965 44.9277<231.252 389.263> 57.6836 29.0156<508.416 540.294> 254.243 46.7998<501.865 586.525> 304.788 39.3105<676.253 796.422> 423.659 91.7295<262.999 317.968>
LayerCount: 3
Back
Fore
SplineSet
676.146484375 325.37890625 m 0
 678.33203125 335.36328125 685.975585938 341.602539062 699.080078125 344.098632812 c 1
 845.095703125 344.098632812 l 2
 853.83203125 344.098632812 858.200195312 340.978515625 858.200195312 334.739257812 c 0
 858.200195312 328.499023438 855.080078125 321.010742188 848.83984375 312.274414062 c 1
 780.19921875 246.130859375 733.399414062 174.99609375 708.439453125 98.8671875 c 0
 689.719726562 42.7080078125 688.626953125 1.8349609375 705.163085938 -23.7490234375 c 0
 721.69921875 -49.3330078125 747.126953125 -48.396484375 781.446289062 -20.9404296875 c 1
 793.926757812 -14.0771484375 802.975585938 -14.0771484375 808.590820312 -20.9404296875 c 0
 814.20703125 -27.1796875 812.958984375 -35.916015625 804.846679688 -47.1484375 c 1
 778.639648438 -67.740234375 750.559570312 -79.5966796875 720.607421875 -82.7158203125 c 0
 690.655273438 -85.8359375 666.631835938 -80.220703125 648.536132812 -65.869140625 c 0
 613.590820312 -39.0361328125 612.03125 11.9765625 643.85546875 87.16796875 c 0
 675.6796875 162.359375 726.536132812 234.899414062 796.421875 304.788085938 c 1
 689.719726562 304.788085938 l 1
 678.487304688 308.530273438 673.963867188 315.395507812 676.146484375 325.37890625 c 0
574.590820312 465.779296875 m 1
 550.879882812 442.69140625 535.591796875 426.311523438 528.7265625 416.639648438 c 0
 521.86328125 406.966796875 515.622070312 390.586914062 510.006835938 367.499023438 c 2
 500.646484375 325.37890625 l 1
 504.390625 316.642578125 511.255859375 310.091796875 521.239257812 305.723632812 c 0
 531.223632812 301.35546875 541.51953125 299.795898438 552.126953125 301.04296875 c 0
 562.736328125 302.291015625 572.250976562 307.283203125 580.67578125 316.01953125 c 0
 589.099609375 324.754882812 593.623046875 335.674804688 594.247070312 348.779296875 c 0
 594.87109375 361.883789062 593.780273438 372.3359375 590.970703125 380.134765625 c 0
 588.163085938 387.935546875 584.107421875 398.54296875 578.802734375 411.958984375 c 0
 573.499023438 425.375976562 571.782226562 438.947265625 573.655273438 452.674804688 c 1
 574.590820312 465.779296875 l 1
278.815429688 54.875 m 0
 313.758789062 46.7626953125 353.3828125 45.8271484375 397.6875 52.0673828125 c 1
 470.6953125 368.435546875 l 1
 439.495117188 378.418945312 403.302734375 379.04296875 362.119140625 370.307617188 c 0
 294.102539062 356.579101562 242.311523438 323.5078125 206.743164062 271.090820312 c 0
 194.263671875 253.620117188 185.21484375 231.779296875 179.599609375 205.571289062 c 0
 173.982421875 179.364257812 174.607421875 155.65234375 181.470703125 134.435546875 c 0
 195.19921875 93.2509765625 227.646484375 66.732421875 278.815429688 54.875 c 0
460.399414062 148.474609375 m 1
 446.359375 83.890625 l 1
 440.743164062 63.298828125 l 1
 446.359375 64.546875 453.223632812 66.419921875 461.3359375 68.9150390625 c 2
 495.967773438 80.1474609375 l 2
 510.943359375 85.1396484375 521.39453125 87.3232421875 527.322265625 86.69921875 c 0
 533.250976562 86.076171875 537.619140625 83.2666015625 540.426757812 78.2744140625 c 0
 543.235351562 73.283203125 541.20703125 66.419921875 534.342773438 57.68359375 c 1
 522.487304688 47.69921875 496.590820312 37.7158203125 456.655273438 27.73046875 c 0
 447.294921875 25.2353515625 438.87109375 22.7392578125 431.3828125 20.2431640625 c 1
 386.456054688 -174.4453125 l 2
 385.208007812 -180.684570312 382.243164062 -185.052734375 377.5625 -187.548828125 c 0
 372.8828125 -190.044921875 368.046875 -191.291992188 363.055664062 -191.291992188 c 0
 349.951171875 -191.291992188 344.3359375 -185.676757812 346.20703125 -174.4453125 c 1
 389.262695312 11.8193359375 l 1
 365.55078125 8.69921875 341.37109375 7.1396484375 316.72265625 7.1396484375 c 0
 292.075195312 7.1396484375 268.51953125 9.3232421875 246.055664062 13.69140625 c 0
 164.936523438 29.2919921875 118.448242188 69.2275390625 106.590820312 133.499023438 c 0
 99.1025390625 177.178710938 105.34375 220.547851562 125.311523438 263.603515625 c 0
 150.895507812 317.266601562 194.418945312 357.515625 255.8828125 384.34765625 c 0
 317.34765625 411.178710938 390.200195312 419.603515625 474.439453125 409.620117188 c 1
 478.182617188 439.571289062 470.071289062 460.475585938 450.102539062 472.331054688 c 0
 430.134765625 484.1875 406.423828125 486.99609375 378.967773438 480.754882812 c 0
 351.510742188 474.515625 330.607421875 462.03515625 316.255859375 443.315429688 c 1
 315.319335938 442.37890625 l 1
 299.094726562 424.907226562 279.750976562 418.666992188 257.287109375 423.659179688 c 0
 243.55859375 426.155273438 235.915039062 430.6796875 234.35546875 437.23046875 c 0
 232.795898438 443.784179688 232.795898438 450.647460938 234.35546875 457.823242188 c 0
 235.915039062 464.999023438 242.623046875 474.359375 254.479492188 485.903320312 c 0
 266.334960938 497.447265625 283.338867188 507.276367188 305.491210938 515.388671875 c 0
 327.643554688 523.499023438 349.951171875 528.178710938 372.415039062 529.427734375 c 0
 422.3359375 531.922851562 461.0234375 522.563476562 488.479492188 501.34765625 c 0
 502.208007812 490.115234375 510.630859375 473.891601562 513.750976562 452.674804688 c 1
 531.846679688 475.763671875 549.787109375 493.547851562 567.571289062 506.028320312 c 0
 585.35546875 518.5078125 605.479492188 526.930664062 627.943359375 531.298828125 c 0
 636.678710938 531.922851562 641.982421875 529.583007812 643.85546875 524.279296875 c 0
 645.7265625 518.975585938 646.1953125 514.451171875 645.258789062 510.708007812 c 0
 644.322265625 506.963867188 641.670898438 503.219726562 637.302734375 499.474609375 c 0
 628.568359375 491.362304688 622.794921875 481.067382812 619.987304688 468.587890625 c 0
 617.1796875 456.107421875 618.270507812 445.188476562 623.262695312 435.828125 c 0
 632.622070312 418.35546875 640.111328125 401.975585938 645.7265625 386.688476562 c 0
 651.342773438 371.3984375 651.03125 354.70703125 644.791015625 336.610351562 c 0
 638.551757812 318.515625 630.439453125 303.8515625 620.456054688 292.620117188 c 0
 599.86328125 267.036132812 575.21484375 254.243164062 546.51171875 254.243164062 c 0
 527.791015625 254.243164062 513.750976562 256.739257812 504.390625 261.73046875 c 0
 495.03125 266.72265625 489.727539062 270.779296875 488.479492188 273.899414062 c 1
 485.359375 258.299804688 482.239257812 243.010742188 479.119140625 228.03515625 c 2
 460.399414062 148.474609375 l 1
EndSplineSet
Layer: 2
Colour: ffff00
EndChar

StartChar: si_Aae
Encoding: 236 3464 236
Width: 782
VWidth: 853
Flags: W
HStem: 7.13965 44.9277<231.354 389.366> 57.6836 29.0156<508.519 540.398> 213.06 39.3115<755.343 771.254> 254.243 46.7998<501.969 586.628> 304.788 39.3105<683.391 773.126> 423.659 91.7295<263.102 318.072>
LayerCount: 3
Back
Fore
SplineSet
683.270507812 325.37890625 m 0
 685.766601562 335.36328125 693.25390625 341.602539062 705.734375 344.098632812 c 1
 843.326171875 344.098632812 l 1
 853.934570312 342.8515625 859.86328125 338.483398438 861.110351562 330.995117188 c 0
 862.358398438 323.5078125 857.991210938 316.01953125 848.005859375 308.530273438 c 1
 832.40625 299.795898438 816.961914062 290.590820312 801.673828125 280.919921875 c 0
 786.38671875 271.247070312 770.942382812 261.73046875 755.342773438 252.37109375 c 1
 822.734375 252.37109375 l 2
 831.470703125 252.37109375 836.150390625 249.095703125 836.774414062 242.54296875 c 0
 837.3984375 235.991210938 834.590820312 228.659179688 828.350585938 220.547851562 c 1
 792.783203125 186.8515625 763.454101562 154.090820312 740.366210938 122.267578125 c 0
 717.278320312 90.443359375 704.486328125 59.2431640625 701.990234375 28.66796875 c 0
 700.7421875 9.947265625 704.797851562 -6.5888671875 714.158203125 -20.9404296875 c 0
 731.005859375 -46.5234375 756.278320312 -45.5888671875 789.973632812 -18.1328125 c 1
 802.454101562 -11.26953125 811.502929688 -11.26953125 817.119140625 -18.1328125 c 0
 822.734375 -24.9970703125 821.486328125 -34.044921875 813.374023438 -45.2763671875 c 1
 787.166015625 -65.244140625 759.397460938 -76.7890625 730.0703125 -79.9091796875 c 0
 682.022460938 -84.9013671875 650.354492188 -69.30078125 635.065429688 -33.109375 c 0
 619.778320312 3.0830078125 634.286132812 53.00390625 678.58984375 116.651367188 c 0
 707.91796875 158.458984375 738.806640625 190.595703125 771.25390625 213.059570312 c 1
 680.462890625 213.059570312 l 1
 672.350585938 215.555664062 667.826171875 220.079101562 666.890625 226.630859375 c 0
 665.954101562 232.559570312 669.229492188 239.267578125 676.71875 246.754882812 c 1
 718.526367188 271.715820312 750.663085938 291.059570312 773.125976562 304.788085938 c 1
 697.309570312 304.788085938 l 1
 685.454101562 308.530273438 680.775390625 315.395507812 683.270507812 325.37890625 c 0
574.694335938 465.779296875 m 1
 550.982421875 442.69140625 535.6953125 426.311523438 528.830078125 416.639648438 c 0
 521.966796875 406.966796875 515.7265625 390.586914062 510.110351562 367.499023438 c 2
 500.750976562 325.37890625 l 1
 504.495117188 316.642578125 511.358398438 310.091796875 521.342773438 305.723632812 c 0
 531.327148438 301.35546875 541.622070312 299.795898438 552.229492188 301.04296875 c 0
 562.837890625 302.291015625 572.354492188 307.283203125 580.778320312 316.01953125 c 0
 589.203125 324.754882812 593.7265625 335.674804688 594.350585938 348.779296875 c 0
 594.973632812 361.883789062 593.8828125 372.3359375 591.07421875 380.134765625 c 0
 588.265625 387.935546875 584.2109375 398.54296875 578.905273438 411.958984375 c 0
 573.602539062 425.375976562 571.885742188 438.947265625 573.758789062 452.674804688 c 1
 574.694335938 465.779296875 l 1
278.918945312 54.875 m 0
 313.861328125 46.7626953125 353.486328125 45.8271484375 397.790039062 52.0673828125 c 1
 470.797851562 368.435546875 l 1
 439.59765625 378.418945312 403.405273438 379.04296875 362.22265625 370.307617188 c 0
 294.20703125 356.579101562 242.4140625 323.5078125 206.845703125 271.090820312 c 0
 194.366210938 253.620117188 185.319335938 231.779296875 179.703125 205.571289062 c 0
 174.0859375 179.364257812 174.7109375 155.65234375 181.57421875 134.435546875 c 0
 195.302734375 93.2509765625 227.750976562 66.732421875 278.918945312 54.875 c 0
460.502929688 148.474609375 m 1
 446.462890625 83.890625 l 1
 440.845703125 63.298828125 l 1
 446.462890625 64.546875 453.326171875 66.419921875 461.438476562 68.9150390625 c 2
 496.0703125 80.1474609375 l 2
 511.045898438 85.1396484375 521.498046875 87.3232421875 527.42578125 86.69921875 c 0
 533.354492188 86.076171875 537.72265625 83.2666015625 540.530273438 78.2744140625 c 0
 543.338867188 73.283203125 541.310546875 66.419921875 534.446289062 57.68359375 c 1
 522.590820312 47.69921875 496.694335938 37.7158203125 456.758789062 27.73046875 c 0
 447.3984375 25.2353515625 438.973632812 22.7392578125 431.485351562 20.2431640625 c 1
 386.55859375 -174.4453125 l 2
 385.310546875 -180.684570312 382.345703125 -185.052734375 377.666015625 -187.548828125 c 0
 372.985351562 -190.044921875 368.150390625 -191.291992188 363.158203125 -191.291992188 c 0
 350.053710938 -191.291992188 344.438476562 -185.676757812 346.309570312 -174.4453125 c 1
 389.366210938 11.8193359375 l 1
 365.654296875 8.69921875 341.475585938 7.1396484375 316.826171875 7.1396484375 c 0
 292.177734375 7.1396484375 268.623046875 9.3232421875 246.158203125 13.69140625 c 0
 165.038085938 29.2919921875 118.55078125 69.2275390625 106.694335938 133.499023438 c 0
 99.205078125 177.178710938 105.446289062 220.547851562 125.4140625 263.603515625 c 0
 150.998046875 317.266601562 194.522460938 357.515625 255.985351562 384.34765625 c 0
 317.451171875 411.178710938 390.302734375 419.603515625 474.541992188 409.620117188 c 1
 478.286132812 439.571289062 470.174804688 460.475585938 450.205078125 472.331054688 c 0
 430.23828125 484.1875 406.526367188 486.99609375 379.0703125 480.754882812 c 0
 351.614257812 474.515625 330.709960938 462.03515625 316.358398438 443.315429688 c 1
 315.422851562 442.37890625 l 1
 299.198242188 424.907226562 279.854492188 418.666992188 257.390625 423.659179688 c 0
 243.662109375 426.155273438 236.017578125 430.6796875 234.458984375 437.23046875 c 0
 232.897460938 443.784179688 232.897460938 450.647460938 234.458984375 457.823242188 c 0
 236.017578125 464.999023438 242.7265625 474.359375 254.583007812 485.903320312 c 0
 266.438476562 497.447265625 283.44140625 507.276367188 305.594726562 515.388671875 c 0
 327.747070312 523.499023438 350.053710938 528.178710938 372.518554688 529.427734375 c 0
 422.438476562 531.922851562 461.126953125 522.563476562 488.583007812 501.34765625 c 0
 502.310546875 490.115234375 510.734375 473.891601562 513.854492188 452.674804688 c 1
 531.951171875 475.763671875 549.890625 493.547851562 567.673828125 506.028320312 c 0
 585.458984375 518.5078125 605.583007812 526.930664062 628.045898438 531.298828125 c 0
 636.782226562 531.922851562 642.0859375 529.583007812 643.958984375 524.279296875 c 0
 645.830078125 518.975585938 646.297851562 514.451171875 645.36328125 510.708007812 c 0
 644.42578125 506.963867188 641.7734375 503.219726562 637.405273438 499.474609375 c 0
 628.670898438 491.362304688 622.8984375 481.067382812 620.08984375 468.587890625 c 0
 617.283203125 456.107421875 618.374023438 445.188476562 623.366210938 435.828125 c 0
 632.7265625 418.35546875 640.21484375 401.975585938 645.830078125 386.688476562 c 0
 651.446289062 371.3984375 651.133789062 354.70703125 644.89453125 336.610351562 c 0
 638.654296875 318.515625 630.541992188 303.8515625 620.55859375 292.620117188 c 0
 599.965820312 267.036132812 575.317382812 254.243164062 546.614257812 254.243164062 c 0
 527.89453125 254.243164062 513.854492188 256.739257812 504.495117188 261.73046875 c 0
 495.134765625 266.72265625 489.830078125 270.779296875 488.583007812 273.899414062 c 1
 485.462890625 258.299804688 482.341796875 243.010742188 479.22265625 228.03515625 c 2
 460.502929688 148.474609375 l 1
EndSplineSet
Layer: 2
Colour: ffff00
EndChar

StartChar: si_I
Encoding: 237 3465 237
Width: 573
VWidth: 851
Flags: W
LayerCount: 3
Back
Fore
SplineSet
447.072265625 274.326171875 m 1
 450.192382812 309.270507812 437.088867188 331.110351562 407.759765625 339.845703125 c 0
 389.6640625 345.462890625 370.3203125 343.278320312 349.727539062 333.294921875 c 0
 329.759765625 323.934570312 314.47265625 309.89453125 303.864257812 291.173828125 c 0
 298.872070312 281.190429688 296.064453125 271.20703125 295.440429688 261.22265625 c 1
 292.943359375 246.87109375 294.81640625 234.858398438 301.055664062 225.185546875 c 0
 307.295898438 215.514648438 316.032226562 208.494140625 327.263671875 204.125976562 c 0
 352.223632812 194.141601562 376.403320312 195.858398438 399.803710938 209.274414062 c 0
 423.203125 222.690429688 438.959960938 244.374023438 447.072265625 274.326171875 c 1
357.215820312 10.3740234375 m 1
 301.6796875 1.638671875 252.071289062 1.9501953125 208.391601562 11.3095703125 c 0
 199.032226562 13.1826171875 191.231445312 17.23828125 184.9921875 23.478515625 c 0
 181.872070312 28.470703125 181.248046875 33.931640625 183.120117188 39.8583984375 c 0
 184.9921875 45.7861328125 188.267578125 49.998046875 192.947265625 52.4951171875 c 0
 197.627929688 54.9912109375 201.99609375 56.08203125 206.051757812 55.7705078125 c 0
 210.108398438 55.4580078125 214.630859375 54.833984375 219.623046875 53.8984375 c 0
 224.616210938 52.962890625 230.232421875 51.87109375 236.471679688 50.623046875 c 0
 242.086914062 48.7509765625 251.135742188 47.1904296875 263.616210938 45.9423828125 c 0
 335.999023438 37.20703125 401.51953125 51.55859375 460.176757812 88.998046875 c 0
 492.000976562 108.965820312 517.583984375 132.677734375 536.927734375 160.134765625 c 0
 556.271484375 186.966796875 569.375976562 214.110351562 576.240234375 241.565429688 c 0
 590.591796875 298.975585938 581.544921875 349.517578125 549.096679688 393.198242188 c 0
 516.647460938 436.877929688 469.536132812 458.094726562 407.759765625 456.845703125 c 0
 360.3359375 455.59765625 315.408203125 442.962890625 272.9765625 418.938476562 c 0
 230.544921875 394.915039062 198.563476562 364.182617188 177.036132812 326.7421875 c 0
 155.5078125 289.302734375 150.047851562 251.23828125 160.655273438 212.55078125 c 0
 173.135742188 167.623046875 204.647460938 140.166015625 255.19140625 130.182617188 c 0
 287.639648438 123.94140625 317.279296875 126.750976562 344.111328125 138.60546875 c 0
 358.463867188 144.22265625 373.439453125 152.646484375 389.040039062 163.87890625 c 1
 354.719726562 155.142578125 324.456054688 157.170898438 298.248046875 169.962890625 c 0
 272.040039062 183.377929688 257.376953125 205.063476562 254.255859375 235.014648438 c 0
 249.888671875 273.702148438 264.240234375 308.801757812 297.311523438 340.314453125 c 0
 330.383789062 371.827148438 367.356445312 385.0859375 408.227539062 380.094726562 c 0
 449.099609375 375.102539062 474.372070312 355.602539062 484.04296875 321.594726562 c 0
 493.716796875 287.5859375 487.4765625 248.2734375 465.323242188 203.658203125 c 0
 443.171875 159.041992188 410.567382812 126.905273438 367.51171875 107.250976562 c 0
 324.456054688 87.5947265625 280.151367188 82.1337890625 234.600585938 90.8701171875 c 0
 179.688476562 100.853515625 143.18359375 132.053710938 125.086914062 184.470703125 c 0
 101.375976562 253.110351562 116.040039062 324.870117188 169.080078125 399.750976562 c 0
 222.120117188 474.629882812 294.81640625 517.374023438 387.166992188 527.983398438 c 0
 463.296875 536.717773438 524.135742188 521.7421875 569.6875 483.053710938 c 0
 608.376953125 450.606445312 630.060546875 408.331054688 634.740234375 356.2265625 c 0
 639.420898438 304.122070312 629.903320312 253.734375 606.19140625 205.063476562 c 0
 582.479492188 156.390625 553.620117188 117.858398438 519.611328125 89.4658203125 c 0
 485.604492188 61.697265625 445.82421875 39.078125 400.271484375 21.60546875 c 1
 422.112304688 -9.5927734375 427.728515625 -45.4736328125 417.120117188 -86.0341796875 c 0
 406.51171875 -126.592773438 383.736328125 -158.10546875 348.791992188 -180.5703125 c 0
 313.223632812 -203.658203125 276.720703125 -211.145507812 239.280273438 -203.034179688 c 0
 220.560546875 -199.290039062 206.364257812 -192.58203125 196.69140625 -182.91015625 c 0
 187.020507812 -173.23828125 180.624023438 -163.409179688 177.50390625 -153.42578125 c 0
 175.0078125 -144.065429688 174.383789062 -134.08203125 175.631835938 -123.473632812 c 0
 178.751953125 -101.009765625 188.736328125 -80.8857421875 205.583984375 -63.1015625 c 0
 222.432617188 -45.3173828125 243.0234375 -35.8017578125 267.360351562 -34.5537109375 c 0
 279.83984375 -33.3046875 292.943359375 -36.42578125 306.671875 -43.9140625 c 1
 312.287109375 -48.9052734375 313.848632812 -54.521484375 311.352539062 -60.7607421875 c 0
 306.984375 -71.994140625 300.120117188 -78.2333984375 290.759765625 -79.4814453125 c 1
 271.103515625 -75.7373046875 l 1
 259.872070312 -75.11328125 250.51171875 -79.638671875 243.0234375 -89.3095703125 c 0
 235.536132812 -98.982421875 231.479492188 -108.809570312 230.85546875 -118.794921875 c 0
 229.608398438 -135.641601562 237.095703125 -148.27734375 253.3203125 -156.702148438 c 0
 269.54296875 -165.125976562 286.704101562 -166.841796875 304.80078125 -161.849609375 c 0
 336.623046875 -153.737304688 358.463867188 -132.989257812 370.3203125 -99.60546875 c 0
 382.17578125 -66.2216796875 382.487304688 -38.609375 371.255859375 -16.7705078125 c 2
 357.215820312 10.3740234375 l 1
EndSplineSet
Layer: 2
Colour: ffff00
EndChar

StartChar: si_Ii
Encoding: 238 3466 238
Width: 677
VWidth: 895
Flags: W
LayerCount: 3
Back
Fore
SplineSet
384.267578125 445.72265625 m 1
 378.026367188 445.72265625 360.7109375 438.858398438 332.318359375 425.130859375 c 0
 303.926757812 411.40234375 280.682617188 398.922851562 262.586914062 387.690429688 c 0
 223.274414062 362.10546875 193.166992188 332.310546875 172.262695312 298.301757812 c 0
 151.358398438 264.293945312 144.337890625 226.07421875 151.202148438 183.642578125 c 0
 159.314453125 134.346679688 203.619140625 105.330078125 284.114257812 96.5947265625 c 0
 327.794921875 91.6015625 367.262695312 91.9140625 402.518554688 97.5302734375 c 0
 437.775390625 103.145507812 463.827148438 108.450195312 480.674804688 113.442382812 c 0
 497.5234375 117.810546875 514.370117188 124.986328125 531.21875 134.969726562 c 0
 548.69140625 144.954101562 565.2265625 156.498046875 580.827148438 169.6015625 c 0
 615.146484375 198.305664062 639.638671875 230.442382812 654.302734375 266.010742188 c 0
 668.966796875 302.201171875 668.186523438 335.8984375 651.962890625 367.09765625 c 0
 631.995117188 406.411132812 595.491210938 432.9296875 542.450195312 446.657226562 c 0
 489.411132812 460.385742188 436.682617188 460.07421875 384.267578125 445.72265625 c 1
706.25 697.974609375 m 0
 711.2421875 705.150390625 716.547851562 712.793945312 722.163085938 720.90625 c 0
 727.779296875 729.018554688 734.174804688 735.2578125 741.350585938 739.625976562 c 0
 748.526367188 743.370117188 755.235351562 745.866210938 761.474609375 747.114257812 c 0
 775.202148438 748.986328125 785.966796875 745.3984375 793.767578125 736.350585938 c 0
 801.56640625 727.301757812 800.475585938 716.849609375 790.490234375 704.994140625 c 1
 753.05078125 644.466796875 661.946289062 577.385742188 517.178710938 503.754882812 c 1
 502.202148438 496.266601562 l 1
 598.298828125 483.162109375 661.01171875 448.530273438 690.338867188 392.370117188 c 0
 710.930664062 354.306640625 714.05078125 310.9375 699.69921875 262.266601562 c 0
 670.37109375 158.682617188 602.354492188 86.6103515625 495.650390625 46.05078125 c 0
 435.748046875 23.5859375 375.0625 14.849609375 313.598632812 19.841796875 c 0
 252.135742188 24.833984375 201.748046875 44.4892578125 162.434570312 78.810546875 c 0
 142.466796875 96.28125 127.491210938 117.498046875 117.506835938 142.458007812 c 0
 98.787109375 189.881835938 102.686523438 239.801757812 129.20703125 292.217773438 c 0
 155.7265625 344.634765625 194.8828125 387.06640625 246.674804688 419.514648438 c 0
 285.987304688 443.2265625 338.870117188 468.341796875 405.327148438 494.862304688 c 0
 471.783203125 521.381835938 522.170898438 545.717773438 556.490234375 567.870117188 c 0
 590.811523438 590.021484375 616.55078125 608.274414062 633.7109375 622.625976562 c 0
 650.870117188 636.978515625 663.0390625 647.8984375 670.213867188 655.38671875 c 0
 677.391601562 662.875 683.942382812 670.049804688 689.870117188 676.9140625 c 0
 695.798828125 683.778320312 701.2578125 690.798828125 706.25 697.974609375 c 0
571.467773438 657.2578125 m 1
 577.70703125 669.73828125 579.266601562 680.033203125 576.147460938 688.145507812 c 0
 573.026367188 696.2578125 567.723632812 702.030273438 560.234375 705.461914062 c 0
 552.748046875 708.89453125 544.01171875 709.206054688 534.02734375 706.3984375 c 0
 524.04296875 703.590820312 515.930664062 698.129882812 509.690429688 690.017578125 c 0
 499.08203125 677.538085938 495.806640625 665.213867188 499.86328125 653.045898438 c 0
 503.918945312 640.876953125 511.5625 634.169921875 522.794921875 632.922851562 c 0
 542.762695312 631.674804688 558.987304688 639.787109375 571.467773438 657.2578125 c 1
616.39453125 672.235351562 m 1
 609.53125 643.530273438 593.618164062 622.001953125 568.658203125 607.650390625 c 0
 543.69921875 593.298828125 519.831054688 589.2421875 497.0546875 595.481445312 c 0
 474.278320312 601.721679688 461.018554688 617.010742188 457.274414062 641.345703125 c 0
 455.40234375 653.201171875 456.650390625 665.994140625 461.018554688 679.72265625 c 0
 469.754882812 707.178710938 489.098632812 726.991210938 519.05078125 739.157226562 c 0
 549.002929688 751.326171875 573.650390625 750.702148438 592.994140625 737.286132812 c 0
 612.337890625 723.870117188 620.450195312 705.306640625 617.330078125 681.594726562 c 2
 616.39453125 672.235351562 l 1
770.833984375 509.370117188 m 1
 777.075195312 521.849609375 778.635742188 532.147460938 775.514648438 540.2578125 c 0
 772.395507812 548.370117188 767.08984375 554.142578125 759.602539062 557.57421875 c 0
 752.114257812 560.381835938 743.377929688 560.538085938 733.39453125 558.041992188 c 0
 722.787109375 555.546875 714.674804688 550.2421875 709.05859375 542.130859375 c 0
 698.451171875 529.650390625 695.174804688 517.326171875 699.23046875 505.157226562 c 0
 703.287109375 492.991210938 710.930664062 486.282226562 722.163085938 485.03515625 c 0
 742.130859375 483.786132812 758.35546875 491.8984375 770.833984375 509.370117188 c 1
815.762695312 524.345703125 m 1
 808.8984375 495.642578125 792.987304688 474.11328125 768.02734375 459.76171875 c 0
 743.06640625 445.41015625 719.04296875 441.354492188 695.955078125 447.594726562 c 0
 672.8671875 453.834960938 659.762695312 469.122070312 656.643554688 493.458007812 c 0
 654.770507812 505.314453125 656.01953125 518.106445312 660.387695312 531.834960938 c 0
 669.122070312 559.2890625 688.467773438 579.1015625 718.418945312 591.270507812 c 0
 748.370117188 603.4375 772.08203125 603.282226562 789.5546875 590.801757812 c 0
 807.026367188 577.698242188 815.762695312 562.41015625 815.762695312 544.9375 c 0
 815.762695312 539.9453125 816.075195312 536.201171875 816.69921875 533.706054688 c 2
 815.762695312 524.345703125 l 1
EndSplineSet
Layer: 2
Colour: ffff00
EndChar

StartChar: si_U
Encoding: 239 3467 239
Width: 584
VWidth: 850
Flags: W
VStem: 576.072 40.249<-59.1541 43.6557> 610.236 37.9092<400.512 465.459>
LayerCount: 3
Back
Fore
SplineSet
606.4921875 400.392578125 m 0x80
 607.428710938 402.888671875 608.677734375 408.348632812 610.236328125 416.771484375 c 0
 611.796875 425.196289062 610.705078125 434.399414062 606.9609375 444.384765625 c 0
 603.216796875 454.368164062 597.2890625 462.48046875 589.176757812 468.720703125 c 0
 574.201171875 479.952148438 553.920898438 484.3203125 528.336914062 481.825195312 c 0
 492.14453125 478.081054688 465.936523438 464.9765625 449.711914062 442.51171875 c 1
 448.77734375 441.576171875 l 1
 432.553710938 424.104492188 413.208984375 417.864257812 390.745117188 422.856445312 c 0
 377.016601562 425.352539062 369.373046875 429.875976562 367.8125 436.427734375 c 0
 366.252929688 442.98046875 366.252929688 449.84375 367.8125 457.020507812 c 0
 369.373046875 464.1953125 376.080078125 473.555664062 387.936523438 485.100585938 c 0
 399.79296875 496.643554688 416.796875 506.47265625 438.948242188 514.584960938 c 0
 461.1015625 522.6953125 483.720703125 527.375976562 506.80859375 528.625 c 0
 592.920898438 534.864257812 640.033203125 506.47265625 648.145507812 443.448242188 c 0x40
 652.513671875 415.368164062 649.392578125 390.095703125 638.78515625 367.631835938 c 0
 634.416992188 357.6484375 626.928710938 353.280273438 616.321289062 354.52734375 c 0
 605.713867188 355.776367188 591.672851562 357.6484375 574.201171875 360.14453125 c 0
 480.6015625 373.873046875 402.7578125 368.255859375 340.66796875 343.295898438 c 0
 278.580078125 318.336914062 229.440429688 279.024414062 193.248046875 225.360351562 c 0
 157.057617188 171.6953125 140.208984375 114.288085938 142.705078125 53.13671875 c 0
 145.201171875 -26.736328125 177.9609375 -86.328125 240.985351562 -125.639648438 c 0
 294.024414062 -158.711914062 351.432617188 -169.631835938 413.208984375 -158.399414062 c 0
 474.360351562 -147.16796875 519.912109375 -117.840820312 549.865234375 -70.4150390625 c 0
 568.584960938 -40.4638671875 577.3203125 -9.8876953125 576.072265625 21.3125 c 1
 577.3203125 33.79296875 583.873046875 41.2802734375 595.728515625 43.7763671875 c 0
 607.584960938 46.2734375 614.448242188 41.9052734375 616.321289062 30.671875 c 1
 615.697265625 -4.271484375 610.080078125 -33.287109375 599.47265625 -56.375 c 0
 588.865234375 -79.462890625 574.66796875 -100.211914062 556.884765625 -118.619140625 c 0
 539.1015625 -137.02734375 519.6015625 -152.783203125 498.384765625 -165.887695312 c 0
 457.82421875 -190.84765625 411.9609375 -206.135742188 360.791992188 -211.751953125 c 0
 309.624023438 -217.368164062 265.6328125 -214.248046875 228.81640625 -202.392578125 c 0
 156.43359375 -178.680664062 107.760742188 -134.375976562 82.8017578125 -69.4794921875 c 0
 60.3369140625 -13.943359375 59.7138671875 51.888671875 80.9287109375 128.016601562 c 0
 103.392578125 207.887695312 146.13671875 272.47265625 209.161132812 321.767578125 c 0
 260.329101562 361.705078125 320.077148438 387.131835938 388.405273438 398.051757812 c 0
 456.733398438 408.97265625 527.401367188 408.81640625 600.408203125 397.584960938 c 0
 603.528320312 396.958984375 605.557617188 397.896484375 606.4921875 400.392578125 c 0x80
EndSplineSet
Layer: 2
Colour: ffff00
EndChar

StartChar: si_Uu
Encoding: 240 3468 240
Width: 886
VWidth: 850
Flags: W
HStem: 432.217 38.376<765.936 816.54>
VStem: 587.56 40.249<-59.1541 43.6557> 621.725 37.9072<400.512 465.459> 654.952 40.248<61.4233 107.757>
LayerCount: 3
Back
Fore
SplineSet
870.232421875 317.087890625 m 0x90
 866.489257812 302.112304688 854.6328125 286.200195312 834.6640625 269.3515625 c 0
 814.696289062 252.504882812 790.984375 244.081054688 763.528320312 244.081054688 c 0
 736.072265625 244.081054688 716.104492188 253.440429688 703.625 272.161132812 c 0
 685.528320312 298.368164062 684.904296875 333.624023438 701.751953125 377.927734375 c 0
 721.720703125 428.471679688 754.168945312 459.360351562 799.095703125 470.592773438 c 1
 811.576171875 469.344726562 817.50390625 463.728515625 816.879882812 453.744140625 c 0
 816.256835938 443.759765625 809.704101562 436.583984375 797.224609375 432.216796875 c 1
 786.616210938 429.095703125 776.9453125 423.791992188 768.208984375 416.3046875 c 0
 750.736328125 400.080078125 739.036132812 379.80078125 733.108398438 355.46484375 c 0
 727.1796875 331.127929688 729.83203125 311.16015625 741.064453125 295.560546875 c 0
 752.295898438 279.958984375 771.639648438 277.776367188 799.095703125 289.0078125 c 0
 805.336914062 291.504882812 812.200195312 295.560546875 819.688476562 301.17578125 c 0
 826.551757812 306.16796875 830.608398438 315.83984375 831.856445312 330.192382812 c 0
 834.352539062 352.032226562 827.17578125 362.952148438 810.328125 362.952148438 c 1
 799.095703125 366.073242188 794.727539062 373.873046875 797.224609375 386.3515625 c 0
 805.336914062 421.295898438 832.479492188 448.127929688 878.65625 466.848632812 c 0
 896.127929688 474.336914062 915.471679688 475.895507812 936.688476562 471.52734375 c 0
 1000.3359375 457.799804688 1014.06445312 379.176757812 977.872070312 235.65625 c 0
 960.400390625 164.520507812 927.016601562 106.17578125 877.720703125 60.625 c 0
 845.896484375 30.671875 815.3203125 13.2001953125 785.991210938 8.2080078125 c 0
 745.432617188 1.3447265625 711.111328125 8.51953125 683.032226562 29.736328125 c 0
 663.688476562 44.087890625 654.328125 62.49609375 654.952148438 84.9609375 c 1
 658.072265625 97.439453125 664.780273438 105.084960938 675.076171875 107.892578125 c 0
 685.372070312 110.700195312 692.079101562 106.48828125 695.200195312 95.255859375 c 1
 695.200195312 85.2724609375 698.3203125 76.8486328125 704.559570312 69.9853515625 c 0
 710.799804688 63.1201171875 721.096679688 57.0361328125 735.448242188 51.732421875 c 0
 749.80078125 46.427734375 767.584960938 46.2734375 788.80078125 51.2646484375 c 1
 834.9765625 66.240234375 873.040039062 115.536132812 902.991210938 199.151367188 c 0
 909.232421875 216 914.536132812 233.004882812 918.904296875 250.1640625 c 0
 923.272460938 267.32421875 927.640625 289.0078125 932.008789062 315.216796875 c 0
 936.376953125 341.424804688 935.127929688 367.0078125 928.264648438 391.967773438 c 0
 921.400390625 416.928710938 904.864257812 427.224609375 878.65625 422.856445312 c 0
 863.6796875 420.359375 851.825195312 411.625 843.088867188 396.6484375 c 1
 870.544921875 383.544921875 879.591796875 357.024414062 870.232421875 317.087890625 c 0x90
617.979492188 400.392578125 m 0
 618.916015625 402.888671875 620.165039062 408.348632812 621.724609375 416.771484375 c 0
 623.284179688 425.196289062 622.19140625 434.399414062 618.448242188 444.384765625 c 0
 614.704101562 454.368164062 608.776367188 462.48046875 600.6640625 468.720703125 c 0
 585.688476562 479.952148438 565.408203125 484.3203125 539.825195312 481.825195312 c 0
 503.6328125 478.081054688 477.424804688 464.9765625 461.200195312 442.51171875 c 1
 460.264648438 441.576171875 l 1
 444.040039062 424.104492188 424.696289062 417.864257812 402.232421875 422.856445312 c 0
 388.504882812 425.352539062 380.859375 429.875976562 379.30078125 436.427734375 c 0
 377.740234375 442.98046875 377.740234375 449.84375 379.30078125 457.020507812 c 0
 380.859375 464.1953125 387.567382812 473.555664062 399.424804688 485.100585938 c 0
 411.279296875 496.643554688 428.284179688 506.47265625 450.435546875 514.584960938 c 0
 472.588867188 522.6953125 495.208007812 527.375976562 518.295898438 528.625 c 0
 604.408203125 534.864257812 651.520507812 506.47265625 659.631835938 443.448242188 c 0xa0
 664 415.368164062 660.880859375 390.095703125 650.271484375 367.631835938 c 0
 645.904296875 357.6484375 638.416015625 353.280273438 627.80859375 354.52734375 c 0
 617.200195312 355.776367188 603.16015625 357.6484375 585.688476562 360.14453125 c 0
 492.088867188 373.873046875 414.245117188 368.255859375 352.15625 343.295898438 c 0
 290.068359375 318.336914062 240.927734375 279.024414062 204.735351562 225.360351562 c 0
 168.544921875 171.6953125 151.696289062 114.288085938 154.19140625 53.13671875 c 0
 156.688476562 -26.736328125 189.448242188 -86.328125 252.471679688 -125.639648438 c 0
 305.512695312 -158.711914062 362.919921875 -169.631835938 424.696289062 -158.399414062 c 0
 485.84765625 -147.16796875 531.400390625 -117.840820312 561.3515625 -70.4150390625 c 0
 580.071289062 -40.4638671875 588.807617188 -9.8876953125 587.559570312 21.3125 c 1
 588.807617188 33.79296875 595.360351562 41.2802734375 607.215820312 43.7763671875 c 0
 619.072265625 46.2734375 625.935546875 41.9052734375 627.80859375 30.671875 c 1xc0
 627.184570312 -4.271484375 621.567382812 -33.287109375 610.959960938 -56.375 c 0
 600.352539062 -79.462890625 586.15625 -100.211914062 568.372070312 -118.619140625 c 0
 550.588867188 -137.02734375 531.088867188 -152.783203125 509.872070312 -165.887695312 c 0
 469.3125 -190.84765625 423.448242188 -206.135742188 372.280273438 -211.751953125 c 0
 321.112304688 -217.368164062 277.12109375 -214.248046875 240.303710938 -202.392578125 c 0
 167.919921875 -178.680664062 119.248046875 -134.375976562 94.2890625 -69.4794921875 c 0
 71.8251953125 -13.943359375 71.201171875 51.888671875 92.416015625 128.016601562 c 0
 114.879882812 207.887695312 157.624023438 272.47265625 220.6484375 321.767578125 c 0
 271.81640625 361.081054688 331.876953125 386.3515625 400.828125 397.584960938 c 0
 469.779296875 408.81640625 540.135742188 408.81640625 611.896484375 397.584960938 c 0
 615.016601562 396.958984375 617.044921875 397.896484375 617.979492188 400.392578125 c 0
EndSplineSet
Layer: 2
Colour: ffff00
EndChar

StartChar: si_vocalicR
Encoding: 241 3469 241
Width: 974
VWidth: 874
Flags: W
HStem: 378.945 41.1836<259.665 412.181> 430.426 91.7275<232.998 289.123>
VStem: 396.3 39.3135<134.512 204.673>
LayerCount: 3
Back
Fore
SplineSet
965.388671875 90.6572265625 m 1
 987.853515625 143.073242188 l 2
 990.97265625 150.561523438 994.404296875 161.168945312 998.1484375 174.897460938 c 2
 1002.82910156 195.489257812 l 1
 999.708984375 210.465820312 984.732421875 221.07421875 957.900390625 227.313476562 c 0
 931.068359375 233.552734375 903.61328125 232.9296875 875.533203125 225.442382812 c 0
 860.555664062 221.698242188 845.892578125 211.713867188 831.541015625 195.489257812 c 0
 804.708007812 165.537109375 795.973632812 135.8984375 805.333984375 106.569335938 c 0
 810.325195312 90.345703125 820.932617188 81.609375 837.15625 80.361328125 c 0
 847.765625 79.7373046875 858.841796875 83.4814453125 870.384765625 91.59375 c 0
 881.928710938 99.7060546875 890.6640625 105.9453125 896.592773438 110.313476562 c 0
 902.521484375 114.681640625 909.229492188 117.489257812 916.716796875 118.737304688 c 0
 938.556640625 123.10546875 954.78125 113.745117188 965.388671875 90.6572265625 c 1
764.1484375 162.729492188 m 0
 792.853515625 227.625 841.524414062 263.193359375 910.165039062 269.432617188 c 0
 948.852539062 273.176757812 985.043945312 264.44140625 1018.74121094 243.225585938 c 1
 1024.35644531 262.569335938 1027.78808594 280.666015625 1029.03613281 297.512695312 c 0
 1036.52441406 381.129882812 1014.99707031 428.241210938 964.453125 438.849609375 c 0
 942.612304688 443.841796875 917.653320312 438.849609375 889.573242188 423.873046875 c 0
 873.348632812 415.760742188 862.428710938 405.153320312 856.8125 392.048828125 c 1
 848.700195312 380.817382812 839.96484375 376.44921875 830.604492188 378.9453125 c 0
 821.244140625 381.44140625 818.124023438 388.9296875 821.244140625 401.408203125 c 1
 826.236328125 412.641601562 834.037109375 423.249023438 844.64453125 433.233398438 c 0
 886.453125 470.673828125 931.068359375 486.2734375 978.493164062 480.033203125 c 0
 1014.06054688 475.041992188 1039.64453125 459.442382812 1055.24414062 433.233398438 c 0
 1088.94042969 378.3203125 1091.125 302.193359375 1061.796875 204.849609375 c 0
 1051.18847656 171.153320312 1039.33398438 139.952148438 1026.22949219 111.249023438 c 0
 999.396484375 53.841796875 977.868164062 22.017578125 961.64453125 15.77734375 c 0
 947.29296875 10.7861328125 939.4921875 13.90625 938.244140625 25.1376953125 c 0
 934.5 46.3525390625 925.763671875 57.8974609375 912.036132812 59.7685546875 c 1
 903.30078125 55.400390625 893.004882812 48.537109375 881.1484375 39.1767578125 c 0
 869.291992188 29.8173828125 854.940429688 22.017578125 838.092773438 15.77734375 c 0
 821.244140625 9.5380859375 802.680664062 13.28125 782.400390625 27.0087890625 c 0
 762.12109375 40.7373046875 751.043945312 59.92578125 749.172851562 84.5732421875 c 0
 747.299804688 109.220703125 752.291992188 135.2734375 764.1484375 162.729492188 c 0
367.28515625 420.12890625 m 0
 384.133789062 420.12890625 384.133789062 420.12890625 397.705078125 420.12890625 c 0
 406.752929688 420.12890625 411.587890625 422.625 412.212890625 427.6171875 c 0
 416.581054688 443.841796875 415.33203125 456.321289062 408.46875 465.057617188 c 0
 395.98828125 484.401367188 376.021484375 491.420898438 348.565429688 486.1171875 c 0
 321.109375 480.813476562 300.829101562 468.801757812 287.724609375 450.08203125 c 1
 286.788085938 449.145507812 l 1
 270.563476562 431.673828125 251.219726562 425.432617188 228.755859375 430.42578125 c 0
 215.653320312 432.920898438 208.0078125 437.4453125 205.82421875 443.998046875 c 0
 203.641601562 450.548828125 203.485351562 457.569335938 205.356445312 465.057617188 c 0
 207.229492188 472.545898438 213.936523438 481.90625 225.48046875 493.137695312 c 0
 237.024414062 504.369140625 252.467773438 514.041015625 271.8125 522.153320312 c 0
 291.15625 530.265625 310.8125 534.9453125 330.780273438 536.193359375 c 0
 371.96484375 538.689453125 405.97265625 529.330078125 432.8046875 508.11328125 c 0
 449.028320312 494.385742188 457.140625 472.232421875 457.140625 441.657226562 c 0
 457.140625 422.9375 453.396484375 408.5859375 445.909179688 398.6015625 c 0
 438.419921875 388.618164062 430.93359375 382.064453125 423.444335938 378.9453125 c 1
 376.021484375 382.688476562 339.516601562 382.064453125 313.93359375 377.073242188 c 0
 247.1640625 362.09765625 200.052734375 331.520507812 172.596679688 285.345703125 c 0
 155.125 254.145507812 147.63671875 222.009765625 150.133789062 188.9375 c 0
 152.62890625 155.866210938 164.329101562 129.813476562 185.233398438 110.78125 c 0
 206.13671875 91.75 234.373046875 83.4814453125 269.940429688 85.9775390625 c 0
 304.884765625 87.849609375 333.900390625 96.8974609375 356.98828125 113.122070312 c 0
 368.219726562 121.232421875 375.397460938 129.657226562 378.516601562 138.393554688 c 0
 388.500976562 163.352539062 394.428710938 179.732421875 396.299804688 187.533203125 c 0
 398.172851562 195.333007812 400.66796875 201.10546875 403.788085938 204.849609375 c 0
 406.908203125 208.59375 412.524414062 210.465820312 420.63671875 210.465820312 c 0
 434.364257812 211.08984375 439.356445312 204.225585938 435.61328125 189.873046875 c 0
 428.125 153.056640625 427.188476562 130.749023438 432.8046875 122.94921875 c 0
 438.419921875 115.149414062 444.661132812 109.376953125 451.524414062 105.6328125 c 0
 464.004882812 98.1455078125 481.1640625 93.15234375 503.004882812 90.6572265625 c 0
 563.532226562 83.79296875 613.453125 101.577148438 652.764648438 144.008789062 c 0
 677.100585938 170.217773438 693.012695312 200.637695312 700.5 235.268554688 c 0
 707.98828125 269.901367188 704.868164062 299.698242188 691.140625 324.657226562 c 0
 663.684570312 373.329101562 599.100585938 391.424804688 497.388671875 378.9453125 c 1
 486.15625 382.064453125 482.100585938 390.176757812 485.219726562 403.28125 c 0
 498.32421875 459.442382812 527.340820312 498.75390625 572.268554688 521.217773438 c 0
 600.348632812 534.9453125 629.052734375 540.873046875 658.380859375 539.000976562 c 0
 687.708007812 537.12890625 711.107421875 528.392578125 728.580078125 512.79296875 c 0
 737.31640625 505.305664062 742.620117188 497.193359375 744.493164062 488.45703125 c 0
 755.100585938 446.025390625 750.420898438 419.817382812 730.453125 409.833007812 c 1
 712.356445312 406.088867188 704.868164062 411.706054688 707.98828125 426.681640625 c 0
 717.97265625 470.361328125 695.508789062 493.44921875 640.596679688 495.9453125 c 0
 601.28515625 497.817382812 571.95703125 486.5859375 552.61328125 462.249023438 c 0
 543.876953125 451.641601562 536.700195312 439.473632812 531.084960938 425.745117188 c 0
 530.4609375 422.000976562 531.708984375 420.12890625 534.829101562 420.12890625 c 1
 605.340820312 426.369140625 659.78515625 414.201171875 698.16015625 383.625976562 c 0
 736.536132812 353.049804688 752.291992188 308.432617188 745.428710938 249.77734375 c 0
 738.563476562 191.12109375 716.100585938 139.017578125 678.036132812 93.4658203125 c 0
 639.97265625 47.9130859375 591.14453125 21.5498046875 531.553710938 14.373046875 c 0
 471.9609375 7.1982421875 431.245117188 20.45703125 409.404296875 54.1533203125 c 0
 404.412109375 62.265625 400.043945312 71.0009765625 396.299804688 80.361328125 c 1
 393.180664062 83.4814453125 389.749023438 83.1689453125 386.004882812 79.42578125 c 0
 366.661132812 59.45703125 348.875976562 44.4814453125 332.653320312 34.498046875 c 0
 296.4609375 14.5302734375 257.4609375 7.9765625 215.653320312 14.841796875 c 0
 152.62890625 24.201171875 115.188476562 60.7060546875 103.333984375 124.353515625 c 0
 95.2216796875 165.537109375 99.5888671875 208.59375 116.436523438 253.522460938 c 0
 142.021484375 322.161132812 191.94140625 372.081054688 266.196289062 403.28125 c 0
 295.524414062 415.13671875 329.221679688 420.752929688 367.28515625 420.12890625 c 0
EndSplineSet
Layer: 2
Colour: ffff00
EndChar

StartChar: si_vocalicRr
Encoding: 242 3470 242
Width: 1278
VWidth: 874
Flags: W
HStem: 378.945 41.1836<269.93 421.221> 430.426 91.7275<242.676 298.11>
VStem: 406.275 39.3135<134.512 204.673>
LayerCount: 3
Back
Fore
SplineSet
1297.34863281 90.6572265625 m 1
 1319.8125 143.073242188 l 2
 1322.93164062 150.561523438 1326.05273438 161.168945312 1329.17285156 174.897460938 c 2
 1333.85351562 195.489257812 l 1
 1330.73242188 210.465820312 1315.75683594 221.07421875 1288.92480469 227.313476562 c 0
 1262.09277344 233.552734375 1234.63574219 232.9296875 1206.55566406 225.442382812 c 0
 1191.58007812 221.698242188 1177.22851562 211.713867188 1163.5 195.489257812 c 0
 1136.66796875 165.537109375 1127.62109375 135.8984375 1136.35644531 106.569335938 c 0
 1141.34863281 90.345703125 1151.95703125 81.609375 1168.18066406 80.361328125 c 0
 1178.78808594 79.7373046875 1189.86425781 83.4814453125 1201.40917969 91.59375 c 0
 1212.953125 99.7060546875 1221.84472656 105.9453125 1228.08496094 110.313476562 c 0
 1234.32421875 114.681640625 1240.87695312 117.489257812 1247.74023438 118.737304688 c 0
 1270.20507812 123.10546875 1286.74121094 113.745117188 1297.34863281 90.6572265625 c 1
1096.109375 162.729492188 m 0
 1124.8125 227.625 1173.484375 263.193359375 1242.12402344 269.432617188 c 0
 1280.8125 273.176757812 1316.69238281 264.44140625 1349.76464844 243.225585938 c 1
 1355.37988281 262.569335938 1358.8125 280.666015625 1360.06054688 297.512695312 c 0
 1367.54882812 381.129882812 1346.33203125 428.241210938 1296.41308594 438.849609375 c 0
 1274.57324219 443.841796875 1249.30078125 438.849609375 1220.59667969 423.873046875 c 0
 1204.37304688 415.760742188 1193.765625 405.153320312 1188.7734375 392.048828125 c 1
 1180.66113281 380.817382812 1171.92480469 376.44921875 1162.56542969 378.9453125 c 0
 1153.20507812 381.44140625 1149.77246094 388.9296875 1152.26855469 401.408203125 c 1
 1157.26074219 412.641601562 1165.37304688 423.249023438 1176.60449219 433.233398438 c 0
 1219.03613281 470.673828125 1263.65332031 486.2734375 1310.453125 480.033203125 c 0
 1346.01953125 475.041992188 1371.60449219 459.442382812 1387.20507812 433.233398438 c 0
 1420.90039062 378.3203125 1423.08496094 302.193359375 1393.75585938 204.849609375 c 0
 1383.1484375 171.153320312 1371.29296875 139.952148438 1358.18847656 111.249023438 c 0
 1331.35644531 53.841796875 1309.51660156 22.017578125 1292.66894531 15.77734375 c 0
 1278.31738281 10.7861328125 1270.51660156 13.90625 1269.26855469 25.1376953125 c 0
 1265.52441406 46.3525390625 1257.10058594 57.8974609375 1243.99609375 59.7685546875 c 1
 1235.26074219 55.400390625 1224.80957031 48.537109375 1212.640625 39.1767578125 c 0
 1200.47265625 29.8173828125 1185.96484375 22.017578125 1169.11621094 15.77734375 c 0
 1152.26855469 9.5380859375 1133.86035156 13.28125 1113.89257812 27.0087890625 c 0
 1093.92382812 40.7373046875 1083.00488281 59.92578125 1081.13378906 84.5732421875 c 0
 1079.26074219 109.220703125 1084.25292969 135.2734375 1096.109375 162.729492188 c 0
975.365234375 90.6572265625 m 1
 997.829101562 143.073242188 l 2
 1000.94824219 150.561523438 1004.06835938 161.168945312 1007.18847656 174.897460938 c 2
 1011.86816406 195.489257812 l 1
 1008.74804688 210.465820312 993.772460938 221.07421875 966.940429688 227.313476562 c 0
 940.107421875 233.552734375 912.653320312 232.9296875 884.573242188 225.442382812 c 0
 869.596679688 221.698242188 855.244140625 211.713867188 841.516601562 195.489257812 c 0
 814.685546875 165.537109375 805.63671875 135.8984375 814.373046875 106.569335938 c 0
 819.365234375 90.345703125 829.97265625 81.609375 846.196289062 80.361328125 c 0
 856.8046875 79.7373046875 867.880859375 83.4814453125 879.424804688 91.59375 c 0
 890.967773438 99.7060546875 899.860351562 105.9453125 906.100585938 110.313476562 c 0
 912.340820312 114.681640625 918.892578125 117.489257812 925.755859375 118.737304688 c 0
 948.219726562 123.10546875 964.756835938 113.745117188 975.365234375 90.6572265625 c 1
774.124023438 162.729492188 m 0
 802.829101562 227.625 851.500976562 263.193359375 920.140625 269.432617188 c 0
 958.828125 273.176757812 994.708984375 264.44140625 1027.78027344 243.225585938 c 1
 1033.39648438 262.569335938 1036.82910156 280.666015625 1038.07617188 297.512695312 c 0
 1045.56542969 381.129882812 1024.34863281 428.241210938 974.428710938 438.849609375 c 0
 952.587890625 443.841796875 927.317382812 438.849609375 898.612304688 423.873046875 c 0
 882.387695312 415.760742188 871.780273438 405.153320312 866.788085938 392.048828125 c 1
 858.67578125 380.817382812 849.940429688 376.44921875 840.580078125 378.9453125 c 0
 831.219726562 381.44140625 827.788085938 388.9296875 830.28515625 401.408203125 c 1
 835.276367188 412.641601562 843.388671875 423.249023438 854.620117188 433.233398438 c 0
 897.052734375 470.673828125 941.668945312 486.2734375 988.46875 480.033203125 c 0
 1024.03613281 475.041992188 1049.62109375 459.442382812 1065.21972656 433.233398438 c 0
 1098.91601562 378.3203125 1101.10058594 302.193359375 1071.7734375 204.849609375 c 0
 1061.1640625 171.153320312 1049.30957031 139.952148438 1036.20507812 111.249023438 c 0
 1009.37207031 53.841796875 987.533203125 22.017578125 970.684570312 15.77734375 c 0
 956.33203125 10.7861328125 948.532226562 13.90625 947.28515625 25.1376953125 c 0
 943.541015625 46.3525390625 935.116210938 57.8974609375 922.012695312 59.7685546875 c 1
 913.27734375 55.400390625 902.82421875 48.537109375 890.65625 39.1767578125 c 0
 878.48828125 29.8173828125 863.98046875 22.017578125 847.133789062 15.77734375 c 0
 830.28515625 9.5380859375 811.875976562 13.28125 791.909179688 27.0087890625 c 0
 771.94140625 40.7373046875 761.01953125 59.92578125 759.1484375 84.5732421875 c 0
 757.275390625 109.220703125 762.267578125 135.2734375 774.124023438 162.729492188 c 0
376.32421875 420.12890625 m 0
 393.172851562 420.12890625 393.172851562 420.12890625 406.744140625 420.12890625 c 0
 415.79296875 420.12890625 420.627929688 422.625 421.252929688 427.6171875 c 0
 425.62109375 443.841796875 424.684570312 456.321289062 418.444335938 465.057617188 c 0
 405.963867188 484.401367188 385.840820312 491.420898438 358.073242188 486.1171875 c 0
 330.3046875 480.813476562 309.868164062 468.801757812 296.764648438 450.08203125 c 1
 295.829101562 449.145507812 l 1
 279.604492188 431.673828125 260.260742188 425.432617188 237.796875 430.42578125 c 0
 224.693359375 432.920898438 217.205078125 437.4453125 215.333007812 443.998046875 c 0
 213.4609375 450.548828125 213.3046875 457.569335938 214.865234375 465.057617188 c 0
 216.423828125 472.545898438 223.131835938 481.90625 234.98828125 493.137695312 c 0
 246.84375 504.369140625 262.444335938 514.041015625 281.788085938 522.153320312 c 0
 301.131835938 530.265625 320.4765625 534.9453125 339.8203125 536.193359375 c 0
 381.004882812 538.689453125 415.32421875 529.330078125 442.780273438 508.11328125 c 0
 459.62890625 494.385742188 467.741210938 472.232421875 467.116210938 441.657226562 c 0
 467.116210938 422.9375 463.216796875 408.5859375 455.416015625 398.6015625 c 0
 447.6171875 388.618164062 439.97265625 382.064453125 432.484375 378.9453125 c 1
 385.060546875 382.688476562 348.556640625 382.064453125 322.97265625 377.073242188 c 0
 234.365234375 357.729492188 181.32421875 311.241210938 163.853515625 237.608398438 c 0
 155.741210938 203.913085938 157.612304688 173.025390625 169.46875 144.9453125 c 0
 188.188476562 101.888671875 225.62890625 82.2333984375 281.788085938 85.9775390625 c 0
 316.108398438 87.849609375 344.5 96.8974609375 366.96484375 113.122070312 c 0
 378.196289062 120.608398438 385.373046875 129.033203125 388.493164062 138.393554688 c 0
 398.477539062 163.352539062 404.404296875 179.732421875 406.275390625 187.533203125 c 0
 408.1484375 195.333007812 410.48828125 201.10546875 413.296875 204.849609375 c 0
 416.104492188 208.59375 421.876953125 210.465820312 430.612304688 210.465820312 c 0
 444.340820312 211.08984375 449.333007812 204.225585938 445.588867188 189.873046875 c 0
 438.100585938 153.056640625 437.0078125 130.749023438 442.3125 122.94921875 c 0
 447.6171875 115.149414062 453.701171875 109.376953125 460.565429688 105.6328125 c 0
 473.044921875 98.1455078125 490.204101562 93.15234375 512.043945312 90.6572265625 c 0
 571.94921875 83.79296875 621.868164062 101.577148438 661.8046875 144.008789062 c 0
 686.140625 170.217773438 702.053710938 200.637695312 709.541015625 235.268554688 c 0
 717.029296875 269.901367188 714.219726562 299.698242188 701.116210938 324.657226562 c 0
 673.661132812 373.329101562 608.765625 391.424804688 506.428710938 378.9453125 c 1
 495.196289062 382.064453125 491.141601562 390.176757812 494.260742188 403.28125 c 0
 507.365234375 459.442382812 536.692382812 498.75390625 582.244140625 521.217773438 c 0
 610.32421875 534.9453125 639.028320312 540.873046875 668.356445312 539.000976562 c 0
 697.685546875 537.12890625 721.084960938 528.392578125 738.555664062 512.79296875 c 0
 747.291992188 505.305664062 752.596679688 497.193359375 754.46875 488.45703125 c 0
 765.076171875 446.025390625 760.084960938 419.817382812 739.493164062 409.833007812 c 1
 721.397460938 406.088867188 713.909179688 411.706054688 717.029296875 426.681640625 c 0
 725.141601562 461.000976562 712.348632812 482.841796875 678.653320312 492.201171875 c 0
 649.948242188 500.3125 622.9609375 498.91015625 597.688476562 487.989257812 c 0
 572.416015625 476.4453125 553.228515625 455.698242188 540.124023438 425.745117188 c 0
 539.5 422.000976562 540.748046875 420.12890625 543.868164062 420.12890625 c 1
 614.380859375 426.369140625 668.82421875 414.201171875 707.200195312 383.625976562 c 0
 745.576171875 353.049804688 761.48828125 308.432617188 754.936523438 249.77734375 c 0
 748.384765625 191.12109375 725.919921875 139.017578125 687.543945312 93.4658203125 c 0
 649.168945312 47.9130859375 600.184570312 21.5498046875 540.592773438 14.373046875 c 0
 481 7.1982421875 440.596679688 20.45703125 419.379882812 54.1533203125 c 0
 414.387695312 62.265625 409.708984375 71.0009765625 405.340820312 80.361328125 c 1
 402.221679688 83.4814453125 399.100585938 83.1689453125 395.98046875 79.42578125 c 0
 376.63671875 59.45703125 358.541015625 44.4814453125 341.693359375 34.498046875 c 0
 305.5 14.5302734375 266.8125 7.9765625 225.62890625 14.841796875 c 0
 162.604492188 24.201171875 124.852539062 60.7060546875 112.373046875 124.353515625 c 0
 104.260742188 165.537109375 108.62890625 208.59375 125.475585938 253.522460938 c 0
 151.060546875 322.161132812 201.29296875 372.081054688 276.172851562 403.28125 c 0
 304.876953125 415.13671875 338.260742188 420.752929688 376.32421875 420.12890625 c 0
EndSplineSet
Layer: 2
Colour: ffff00
EndChar

StartChar: si_vocalicL
Encoding: 243 3471 243
Width: 833
VWidth: 874
Flags: W
HStem: 13.9092 73.0088<320.138 620.66> 380.354 38.8438<354.557 503.493 613.004 732.365> 429.494 80.4951<297.798 380.569> 448.214 89.3877<734.186 794.9>
VStem: 500.685 44.459<419.496 478.166>
LayerCount: 3
Back
Fore
SplineSet
585.859375 378.94921875 m 1xe8
 567.762695312 380.198242188 563.70703125 396.421875 573.69140625 427.622070312 c 0
 586.171875 466.309570312 606.762695312 494.077148438 635.467773438 510.92578125 c 0
 664.171875 527.150390625 696.30859375 536.041015625 731.875 537.6015625 c 0xd8
 767.443359375 539.162109375 794.899414062 529.958007812 814.243164062 509.989257812 c 1xe8
 846.692382812 509.989257812 873.6796875 498.133789062 895.208007812 474.421875 c 0
 916.735351562 450.709960938 928.123046875 422.006835938 929.37109375 388.309570312 c 0
 929.37109375 380.198242188 929.83984375 372.241210938 930.775390625 364.442382812 c 0
 931.7109375 356.641601562 931.555664062 344.629882812 930.30859375 328.40625 c 0
 929.059570312 312.181640625 924.067382812 290.497070312 915.331054688 263.353515625 c 0
 906.594726562 236.208984375 895.051757812 209.221679688 880.69921875 182.389648438 c 0
 850.123046875 124.357421875 812.995117188 77.5576171875 769.315429688 41.9892578125 c 1
 756.834960938 35.1259765625 747.630859375 34.9697265625 741.704101562 41.521484375 c 0
 735.774414062 48.07421875 737.1796875 56.9658203125 745.916015625 68.197265625 c 1
 786.475585938 98.1494140625 820.171875 139.95703125 847.00390625 193.622070312 c 0
 891.306640625 280.981445312 902.540039062 353.053710938 880.69921875 409.837890625 c 0
 871.33984375 434.173828125 856.364257812 451.333984375 835.771484375 461.318359375 c 1
 832.65234375 444.469726562 819.391601562 433.706054688 795.991210938 429.026367188 c 0
 772.591796875 424.345703125 756.834960938 430.741210938 748.723632812 448.213867188 c 1
 747.788085938 448.213867188 l 1
 742.794921875 467.557617188 727.819335938 479.4140625 702.859375 483.782226562 c 0
 677.899414062 487.526367188 654.811523438 479.1015625 633.595703125 458.508789062 c 0
 622.987304688 448.525390625 616.123046875 435.420898438 613.00390625 419.197265625 c 1
 613.940429688 419.197265625 l 2
 625.171875 419.197265625 636.715820312 419.352539062 648.571289062 419.666015625 c 0
 660.427734375 419.977539062 671.971679688 419.509765625 683.204101562 418.262695312 c 0
 731.875 415.765625 767.287109375 399.23046875 789.440429688 368.653320312 c 0
 811.591796875 338.078125 820.640625 301.88671875 816.583984375 260.077148438 c 0
 812.528320312 218.26953125 796.459960938 178.021484375 768.379882812 139.333007812 c 0
 707.227539062 55.7177734375 605.515625 13.9091796875 463.243164062 13.9091796875 c 0
 355.916015625 13.9091796875 282.284179688 39.181640625 242.34765625 89.7265625 c 0
 219.259765625 118.430664062 208.962890625 154.62109375 211.459960938 198.301757812 c 0
 215.204101562 263.821289062 244.219726562 319.982421875 298.508789062 366.782226562 c 0
 340.940429688 402.97265625 396.474609375 420.4453125 465.115234375 419.197265625 c 0
 482.899414062 419.197265625 482.899414062 419.197265625 500.684570312 419.197265625 c 2
 505.052734375 435.420898438 504.428710938 448.525390625 498.811523438 458.508789062 c 0
 486.956054688 479.1015625 467.455078125 487.526367188 440.311523438 483.782226562 c 0
 413.16796875 480.038085938 392.731445312 468.181640625 379.00390625 448.213867188 c 1xd8
 362.779296875 430.741210938 343.435546875 424.501953125 320.971679688 429.494140625 c 0
 306.619140625 432.614257812 298.663085938 437.76171875 297.103515625 444.9375 c 0
 295.54296875 452.11328125 295.387695312 458.197265625 296.635742188 463.189453125 c 1
 257.32421875 448.837890625 223.627929688 417.481445312 195.547851562 369.122070312 c 0
 167.467773438 320.76171875 156.235351562 262.26171875 161.850585938 193.622070312 c 0
 166.21875 141.206054688 180.883789062 99.3984375 205.84375 68.197265625 c 1
 208.962890625 56.9658203125 205.999023438 48.07421875 196.951171875 41.521484375 c 0
 187.903320312 34.9697265625 179.01171875 35.1259765625 170.275390625 41.9892578125 c 1
 142.819335938 77.5576171875 126.284179688 127.321289062 120.66796875 191.282226562 c 0
 115.05078125 255.241210938 125.971679688 312.805664062 153.428710938 363.973632812 c 0
 157.794921875 371.461914062 162.943359375 381.6015625 168.87109375 394.393554688 c 0
 174.799804688 407.186523438 184.315429688 421.069335938 197.418945312 436.045898438 c 0
 210.5234375 450.3984375 224.875 463.189453125 240.475585938 474.421875 c 0
 274.794921875 498.133789062 308.4921875 509.989257812 341.564453125 509.989257812 c 1
 369.643554688 529.333007812 401.467773438 538.381835938 437.03515625 537.133789062 c 0
 472.603515625 536.509765625 501.931640625 526.837890625 525.01953125 508.118164062 c 0
 543.116210938 493.142578125 549.82421875 468.181640625 545.143554688 433.23828125 c 0
 540.463867188 398.293945312 528.764648438 380.198242188 510.043945312 378.94921875 c 1
 496.940429688 378.94921875 483.5234375 379.41796875 469.795898438 380.353515625 c 0
 456.067382812 381.2890625 437.81640625 380.977539062 415.040039062 379.41796875 c 0
 392.262695312 377.858398438 371.515625 371.461914062 352.795898438 360.228515625 c 0
 294.140625 325.286132812 261.068359375 279.733398438 253.580078125 223.57421875 c 0
 242.971679688 149.94140625 287.586914062 105.950195312 387.428710938 91.59765625 c 0
 411.764648438 88.4775390625 442.650390625 86.91796875 480.091796875 86.91796875 c 0
 644.203125 86.91796875 740.299804688 131.220703125 768.379882812 219.829101562 c 0
 787.099609375 278.486328125 777.427734375 324.038085938 739.364257812 356.486328125 c 0
 715.65234375 376.453125 678.211914062 384.565429688 627.043945312 380.821289062 c 0
 606.451171875 379.88671875 606.451171875 379.88671875 585.859375 378.94921875 c 1xe8
EndSplineSet
Layer: 2
Colour: ffff00
EndChar

StartChar: si_vocalicLL
Encoding: 244 3472 244
Width: 1168
VWidth: 874
Flags: W
HStem: 13.8555 73.0088<331.88 632.403> 380.3 38.8447<366.299 515.234 624.747 744.108> 429.439 80.4971<309.541 392.312> 431.78 48.2031<1136.09 1212.94> 439.736 38.376<1053.47 1105.9> 448.159 89.3896<745.929 806.642>
VStem: 512.426 44.4609<419.441 478.112> 943.923 41.1836<67.9588 115.278> 1223.32 63.1797<237.381 424.508>
LayerCount: 3
Back
Fore
SplineSet
597.6015625 378.895507812 m 1xe380
 579.505859375 380.14453125 575.450195312 396.368164062 585.43359375 427.568359375 c 0
 597.9140625 466.255859375 618.506835938 494.024414062 647.2109375 510.873046875 c 0
 675.9140625 527.095703125 708.05078125 535.987304688 743.618164062 537.548828125 c 0xc780
 779.186523438 539.107421875 806.642578125 529.905273438 825.986328125 509.936523438 c 1xe380
 858.434570312 509.936523438 885.422851562 498.080078125 906.950195312 474.368164062 c 0
 928.478515625 450.65625 939.866210938 421.952148438 941.11328125 388.255859375 c 0
 941.11328125 380.14453125 941.58203125 372.1875 942.517578125 364.388671875 c 0
 943.454101562 356.587890625 943.298828125 344.576171875 942.05078125 328.352539062 c 0
 940.801757812 312.127929688 935.810546875 290.444335938 927.07421875 263.299804688 c 0
 918.337890625 236.15625 906.793945312 209.16796875 892.442382812 182.3359375 c 0
 861.8671875 124.3046875 824.73828125 77.5048828125 781.057617188 41.9365234375 c 1
 768.579101562 35.072265625 759.374023438 34.9150390625 753.446289062 41.46875 c 0
 747.518554688 48.01953125 748.921875 56.9130859375 757.657226562 68.14453125 c 1
 798.217773438 98.095703125 831.9140625 139.903320312 858.747070312 193.568359375 c 0
 903.049804688 280.927734375 914.282226562 353 892.442382812 409.784179688 c 0
 883.08203125 434.120117188 868.106445312 451.280273438 847.513671875 461.263671875 c 1
 844.39453125 444.415039062 831.1328125 433.65234375 807.733398438 428.97265625 c 0
 784.333007812 424.29296875 768.579101562 430.6875 760.466796875 448.159179688 c 1
 759.530273438 448.159179688 l 1
 754.538085938 467.502929688 739.561523438 479.360351562 714.6015625 483.727539062 c 0
 689.642578125 487.47265625 666.5546875 479.048828125 645.337890625 458.456054688 c 0
 634.73046875 448.471679688 627.8671875 435.368164062 624.747070312 419.14453125 c 1
 625.681640625 419.14453125 l 2
 636.913085938 419.14453125 648.458007812 419.299804688 660.313476562 419.612304688 c 0
 672.169921875 419.924804688 683.713867188 419.456054688 694.946289062 418.208007812 c 0
 743.618164062 415.711914062 779.030273438 399.176757812 801.181640625 368.599609375 c 0
 823.334960938 338.024414062 832.381835938 301.83203125 828.326171875 260.024414062 c 0
 824.26953125 218.215820312 808.202148438 177.967773438 780.122070312 139.280273438 c 0
 718.969726562 55.6640625 617.2578125 13.85546875 474.986328125 13.85546875 c 0
 367.658203125 13.85546875 294.025390625 39.1279296875 254.090820312 89.6728515625 c 0
 231.002929688 118.375976562 220.706054688 154.568359375 223.202148438 198.249023438 c 0
 226.946289062 263.768554688 255.961914062 319.927734375 310.25 366.727539062 c 0
 352.682617188 402.919921875 408.21875 420.392578125 476.857421875 419.14453125 c 0
 494.642578125 419.14453125 494.642578125 419.14453125 512.42578125 419.14453125 c 2
 516.793945312 435.368164062 516.169921875 448.471679688 510.553710938 458.456054688 c 0
 498.698242188 479.048828125 479.198242188 487.47265625 452.053710938 483.727539062 c 0
 424.911132812 479.983398438 404.474609375 468.126953125 390.747070312 448.159179688 c 1xc780
 374.522460938 430.6875 355.178710938 424.448242188 332.713867188 429.439453125 c 0
 318.361328125 432.560546875 310.40625 437.708007812 308.846679688 444.883789062 c 0
 307.287109375 452.059570312 307.129882812 458.143554688 308.377929688 463.135742188 c 1
 269.06640625 448.783203125 235.370117188 417.427734375 207.291015625 369.068359375 c 0
 179.2109375 320.708007812 167.978515625 262.208007812 173.59375 193.568359375 c 0
 177.961914062 141.15234375 192.625976562 99.3447265625 217.5859375 68.14453125 c 1
 220.706054688 56.9130859375 217.7421875 48.01953125 208.693359375 41.46875 c 0
 199.647460938 34.9150390625 190.75390625 35.072265625 182.017578125 41.9365234375 c 1
 154.561523438 77.5048828125 138.026367188 127.268554688 132.411132812 191.227539062 c 0
 126.793945312 255.1875 137.713867188 312.751953125 165.169921875 363.919921875 c 0
 169.538085938 371.408203125 174.686523438 381.546875 180.61328125 394.33984375 c 0
 186.54296875 407.131835938 196.057617188 421.015625 209.162109375 435.993164062 c 0
 222.266601562 450.344726562 236.618164062 463.135742188 252.217773438 474.368164062 c 0
 286.538085938 498.080078125 320.234375 509.936523438 353.306640625 509.936523438 c 1
 381.38671875 529.280273438 413.2109375 538.327148438 448.778320312 537.080078125 c 0
 484.346679688 536.456054688 513.673828125 526.784179688 536.76171875 508.064453125 c 0
 554.857421875 493.087890625 561.56640625 468.126953125 556.88671875 433.18359375 c 0
 552.206054688 398.239257812 540.505859375 380.14453125 521.786132812 378.895507812 c 1
 508.681640625 378.895507812 495.266601562 379.364257812 481.538085938 380.299804688 c 0
 467.810546875 381.236328125 449.557617188 380.923828125 426.782226562 379.364257812 c 0
 404.005859375 377.8046875 383.2578125 371.408203125 364.538085938 360.17578125 c 0
 305.881835938 325.232421875 272.810546875 279.680664062 265.322265625 223.51953125 c 0
 254.713867188 149.887695312 299.330078125 105.895507812 399.169921875 91.5439453125 c 0
 423.505859375 88.423828125 454.393554688 86.8642578125 491.833007812 86.8642578125 c 0
 655.947265625 86.8642578125 752.041992188 131.16796875 780.122070312 219.775390625 c 0
 798.841796875 278.432617188 789.169921875 323.984375 751.106445312 356.432617188 c 0
 727.39453125 376.400390625 689.954101562 384.512695312 638.786132812 380.768554688 c 0
 618.193359375 379.83203125 618.193359375 379.83203125 597.6015625 378.895507812 c 1xe380
1089.00195312 478.112304688 m 1xcb80
 1101.48242188 476.86328125 1107.25390625 471.248046875 1106.31835938 461.263671875 c 0
 1105.38183594 451.280273438 1098.67382812 444.103515625 1086.19335938 439.736328125 c 1xcb80
 1065.6015625 434.744140625 1048.75390625 420.392578125 1035.65039062 396.680664062 c 0
 1029.41015625 386.072265625 1025.04199219 374.99609375 1022.546875 363.452148438 c 0
 1020.04980469 351.908203125 1019.11328125 341.143554688 1019.73730469 331.159179688 c 0
 1022.85742188 301.208007812 1039.70605469 288.104492188 1070.28222656 291.848632812 c 0
 1084.01074219 293.719726562 1094.61816406 297.776367188 1102.10644531 304.015625 c 0
 1110.21875 309.6328125 1115.2109375 315.249023438 1117.08203125 320.864257812 c 0
 1122.07421875 333.344726562 1123.32226562 344.732421875 1120.82617188 355.028320312 c 0
 1118.33007812 365.32421875 1111.15429688 370.47265625 1099.29785156 370.47265625 c 1
 1088.06640625 372.967773438 1083.85351562 380.456054688 1086.66210938 392.936523438 c 0
 1089.46972656 405.416015625 1094.61816406 416.647460938 1102.10644531 426.6328125 c 0
 1108.96972656 436.6171875 1117.08203125 445.352539062 1126.44238281 452.83984375 c 0
 1146.41015625 467.815429688 1168.71875 476.86328125 1193.36621094 479.983398438 c 0
 1218.01367188 483.104492188 1237.51367188 479.048828125 1251.86621094 467.815429688 c 0
 1276.20214844 449.095703125 1287.74707031 414.463867188 1286.49804688 363.919921875 c 0
 1285.87402344 332.095703125 1281.19433594 298.711914062 1272.45800781 263.768554688 c 0
 1243.75390625 148.328125 1189.46679688 69.392578125 1109.59375 26.9599609375 c 0
 1076.52246094 9.4873046875 1040.64257812 7.615234375 1001.95410156 21.34375 c 0
 978.2421875 28.83203125 961.39453125 41.9365234375 951.411132812 60.65625 c 0
 945.793945312 69.392578125 943.298828125 80 943.922851562 92.48046875 c 1
 947.04296875 104.9609375 953.90625 112.604492188 964.513671875 115.413085938 c 0
 975.123046875 118.219726562 981.986328125 114.0078125 985.106445312 102.775390625 c 1
 984.482421875 84.0556640625 994.622070312 70.7958984375 1015.52636719 62.9951171875 c 0
 1036.4296875 55.1962890625 1057.48925781 53.79296875 1078.70605469 58.7841796875 c 1
 1124.88183594 73.759765625 1162.94628906 123.056640625 1192.8984375 206.672851562 c 0
 1212.2421875 260.3359375 1222.38183594 306.82421875 1223.31835938 346.135742188 c 0
 1224.25390625 385.448242188 1217.23339844 411.34375 1202.2578125 423.82421875 c 0
 1194.77050781 430.6875 1185.56640625 433.33984375 1174.64648438 431.780273438 c 0xd380
 1163.7265625 430.219726562 1155.30273438 427.568359375 1149.37402344 423.82421875 c 0
 1143.4453125 420.080078125 1137.98632812 413.528320312 1132.99316406 404.168945312 c 1
 1149.84179688 396.056640625 1159.82617188 382.015625 1162.94628906 362.048828125 c 0
 1164.81835938 352.688476562 1164.19433594 342.705078125 1161.07421875 332.095703125 c 0
 1157.95410156 322.112304688 1153.5859375 312.439453125 1147.96972656 303.080078125 c 0
 1136.73730469 285.607421875 1122.07421875 272.659179688 1103.97851562 264.236328125 c 0
 1085.88183594 255.8125 1068.72265625 251.599609375 1052.49804688 251.599609375 c 0
 1025.04199219 251.599609375 1005.38574219 260.959960938 993.530273438 279.680664062 c 0
 975.434570312 305.888671875 974.499023438 341.143554688 990.72265625 385.448242188 c 0
 1002.57910156 417.2734375 1020.67382812 441.919921875 1045.01074219 459.392578125 c 0
 1058.11328125 468.126953125 1072.77929688 474.368164062 1089.00195312 478.112304688 c 1xcb80
EndSplineSet
Layer: 2
Colour: ffff00
EndChar

StartChar: si_E
Encoding: 245 3473 245
Width: 654
VWidth: 894
Flags: W
HStem: 385.381 39.3125<130.989 217.404 250.854 413.934> 436.86 91.7285<234.78 290.905>
LayerCount: 3
Back
Fore
SplineSet
662.034179688 548.245117188 m 1
 634.578125 586.932617188 600.258789062 622.500976562 559.073242188 654.94921875 c 0
 557.202148438 656.196289062 555.641601562 657.1328125 554.39453125 657.7578125 c 0
 553.146484375 658.381835938 551.275390625 656.196289062 548.778320312 651.204101562 c 0
 546.282226562 646.212890625 542.5390625 639.97265625 537.546875 632.484375 c 0
 500.73046875 576.948242188 502.9140625 539.8203125 544.09765625 521.100585938 c 0
 580.9140625 504.876953125 618.354492188 512.365234375 656.41796875 543.564453125 c 2
 662.034179688 548.245117188 l 1
143.490234375 385.380859375 m 1
 132.258789062 387.252929688 128.046875 393.961914062 130.853515625 405.50390625 c 0
 133.663085938 417.049804688 140.995117188 423.4453125 152.849609375 424.693359375 c 1
 405.5703125 426.564453125 l 1
 409.938476562 427.8125 412.74609375 430.30859375 413.994140625 434.052734375 c 0
 418.361328125 450.276367188 417.114257812 462.756835938 410.249023438 471.493164062 c 0
 397.770507812 490.836914062 377.801757812 497.857421875 350.346679688 492.552734375 c 0
 322.890625 487.25 302.609375 475.237304688 289.506835938 456.517578125 c 1
 288.5703125 455.581054688 l 1
 272.346679688 438.109375 253.002929688 431.869140625 230.538085938 436.860351562 c 0
 217.43359375 439.357421875 209.790039062 443.880859375 207.607421875 450.43359375 c 0
 205.421875 456.984375 205.266601562 464.00390625 207.138671875 471.493164062 c 0
 209.009765625 478.98046875 215.717773438 488.340820312 227.262695312 499.573242188 c 0
 238.805664062 510.8046875 254.250976562 520.4765625 273.594726562 528.588867188 c 0
 292.938476562 536.701171875 312.594726562 541.381835938 332.5625 542.62890625 c 0
 373.747070312 545.125976562 407.75390625 535.765625 434.5859375 514.549804688 c 0
 455.801757812 497.077148438 462.354492188 468.372070312 454.2421875 428.4375 c 0
 451.74609375 416.581054688 447.065429688 404.725585938 440.202148438 392.869140625 c 1
 433.337890625 387.876953125 426.786132812 385.380859375 420.546875 385.380859375 c 2
 325.073242188 385.380859375 l 1
 286.385742188 379.140625 257.837890625 370.716796875 239.4296875 360.108398438 c 0
 221.021484375 349.500976562 206.826171875 339.206054688 196.841796875 329.220703125 c 0
 186.858398438 319.237304688 178.122070312 308.005859375 170.633789062 295.525390625 c 0
 163.146484375 283.045898438 158.309570312 271.969726562 156.126953125 262.296875 c 0
 153.94140625 252.625976562 152.3828125 241.393554688 151.446289062 228.600585938 c 0
 150.509765625 215.809570312 153.161132812 202.547851562 159.40234375 188.8203125 c 0
 165.641601562 175.091796875 175.001953125 162.92578125 187.482421875 152.317382812 c 0
 209.946289062 131.100585938 240.522460938 115.033203125 279.209960938 104.11328125 c 0
 317.8984375 93.1923828125 351.749023438 88.6689453125 380.766601562 90.5400390625 c 0
 409.782226562 92.4130859375 435.677734375 96.1572265625 458.454101562 101.772460938 c 0
 481.229492188 107.388671875 503.538085938 115.189453125 525.377929688 125.172851562 c 0
 573.42578125 147.012695312 612.739257812 175.40625 643.314453125 210.349609375 c 0
 696.354492188 271.500976562 716.322265625 346.380859375 703.217773438 434.989257812 c 0
 699.473632812 464.31640625 691.361328125 491.4609375 678.8828125 516.420898438 c 1
 623.346679688 475.237304688 573.73828125 463.380859375 530.05859375 480.852539062 c 0
 503.849609375 491.4609375 485.91015625 508.15234375 476.23828125 530.928710938 c 0
 466.56640625 553.705078125 467.970703125 578.508789062 480.44921875 605.340820312 c 0
 487.314453125 619.692382812 494.958007812 633.108398438 503.3828125 645.588867188 c 0
 511.806640625 658.069335938 516.641601562 665.869140625 517.889648438 668.989257812 c 0
 519.138671875 672.109375 519.91796875 674.137695312 520.229492188 675.073242188 c 0
 520.541992188 676.008789062 520.854492188 676.6328125 521.166015625 676.9453125 c 0
 521.478515625 677.256835938 521.478515625 677.725585938 521.166015625 678.349609375 c 0
 520.854492188 678.97265625 520.698242188 680.220703125 520.698242188 682.09375 c 0
 516.954101562 686.461914062 512.119140625 689.891601562 506.189453125 692.388671875 c 0
 500.26171875 694.884765625 495.426757812 698.31640625 491.682617188 702.684570312 c 0
 487.938476562 707.052734375 487.314453125 712.356445312 489.809570312 718.596679688 c 0
 492.306640625 724.836914062 496.05078125 729.205078125 501.041992188 731.701171875 c 0
 516.017578125 740.4375 546.282226562 725.4609375 591.833984375 686.772460938 c 0
 616.169921875 666.805664062 637.07421875 647.459960938 654.546875 628.740234375 c 0
 727.553710938 551.365234375 758.442382812 463.380859375 747.209960938 364.7890625 c 0
 739.098632812 292.40625 711.642578125 225.63671875 664.841796875 164.484375 c 0
 610.553710938 92.1015625 538.170898438 46.5498046875 447.689453125 27.8291015625 c 0
 372.809570312 12.228515625 302.609375 16.28515625 237.08984375 39.9970703125 c 0
 170.946289062 63.708984375 129.76171875 104.891601562 113.538085938 163.549804688 c 0
 101.681640625 208.477539062 107.610351562 253.092773438 131.322265625 297.397460938 c 0
 147.545898438 327.349609375 175.625976562 353.557617188 215.5625 376.020507812 c 1
 217.43359375 378.516601562 218.057617188 380.701171875 217.43359375 382.573242188 c 0
 216.809570312 384.4453125 215.250976562 385.380859375 212.75390625 385.380859375 c 2
 143.490234375 385.380859375 l 1
EndSplineSet
Layer: 2
Colour: ffff00
EndChar

